<?xml version="1.0" encoding="utf-8"?>
<!-- Generator: Adobe Illustrator 20.1.0, SVG Export Plug-In . SVG Version: 6.00 Build 0)  -->
<svg version="1.1" id="icon" xmlns="http://www.w3.org/2000/svg" xmlns:xlink="http://www.w3.org/1999/xlink" x="0px" y="0px"
	 viewBox="0 0 18 18" style="enable-background:new 0 0 18 18;" xml:space="preserve">
<style type="text/css">
	.st0{fill:#323234;}
	.st1{opacity:5.000000e-02;fill:#FFFFFF;}
	.st2{opacity:0.25;}
	.st3{fill:none;}
	.st4{opacity:0.2;}
	.st5{fill:#46C8FF;}
</style>
<g>
	<rect class="st0" width="18" height="18"/>
	<polygon class="st1" points="17,1 2,1 1,1 1,2 1,17 2,17 2,2 17,2 	"/>
	<g class="st2">
		<path d="M17,1v16H1V1H17 M18,0H0v18h18V0L18,0z"/>
	</g>
</g>
<rect class="st3" width="18" height="18"/>
<path class="st4" d="M10,7.8v1.4C10,9.6,9.6,10,9.2,10H7.8C7.4,10,7,9.6,7,9.2V7.8C7,7.4,7.4,7,7.8,7h1.4C9.6,7,10,7.4,10,7.8z
	 M14,7.8v1.4c0,0.4-0.4,0.8-0.8,0.8h-1.4C11.4,10,11,9.6,11,9.2V7.8C11,7.4,11.4,7,11.8,7h1.4C13.6,7,14,7.4,14,7.8z M6,7.8v1.4
	C6,9.6,5.6,10,5.2,10H3.8C3.4,10,3,9.6,3,9.2V7.8C3,7.4,3.4,7,3.8,7h1.4C5.6,7,6,7.4,6,7.8z M10,11.8v1.4c0,0.4-0.4,0.8-0.8,0.8H7.8
	C7.4,14,7,13.6,7,13.2v-1.4C7,11.4,7.4,11,7.8,11h1.4C9.6,11,10,11.4,10,11.8z M14,11.8v1.4c0,0.4-0.4,0.8-0.8,0.8h-1.4
	c-0.4,0-0.8-0.4-0.8-0.8v-1.4c0-0.4,0.4-0.8,0.8-0.8h1.4C13.6,11,14,11.4,14,11.8z M6,11.8v1.4C6,13.6,5.6,14,5.2,14H3.8
	C3.4,14,3,13.6,3,13.2v-1.4C3,11.4,3.4,11,3.8,11h1.4C5.6,11,6,11.4,6,11.8z M10,3.8v1.4C10,5.6,9.6,6,9.2,6H7.8C7.4,6,7,5.6,7,5.2
	V3.8C7,3.4,7.4,3,7.8,3h1.4C9.6,3,10,3.4,10,3.8z M14,3.8v1.4C14,5.6,13.6,6,13.2,6h-1.4C11.4,6,11,5.6,11,5.2V3.8
	C11,3.4,11.4,3,11.8,3h1.4C13.6,3,14,3.4,14,3.8z M6,3.8v1.4C6,5.6,5.6,6,5.2,6H3.8C3.4,6,3,5.6,3,5.2V3.8C3,3.4,3.4,3,3.8,3h1.4
	C5.6,3,6,3.4,6,3.8z"/>
<path class="st5" d="M11,8.8v1.4c0,0.4-0.4,0.8-0.8,0.8H8.8C8.4,11,8,10.6,8,10.2V8.8C8,8.4,8.4,8,8.8,8h1.4C10.6,8,11,8.4,11,8.8z
	 M15,8.8v1.4c0,0.4-0.4,0.8-0.8,0.8h-1.4c-0.4,0-0.8-0.4-0.8-0.8V8.8C12,8.4,12.4,8,12.8,8h1.4C14.6,8,15,8.4,15,8.8z M7,8.8v1.4
	C7,10.6,6.6,11,6.2,11H4.8C4.4,11,4,10.6,4,10.2V8.8C4,8.4,4.4,8,4.8,8h1.4C6.6,8,7,8.4,7,8.8z M11,12.8v1.4c0,0.4-0.4,0.8-0.8,0.8
	H8.8C8.4,15,8,14.6,8,14.2v-1.4C8,12.4,8.4,12,8.8,12h1.4C10.6,12,11,12.4,11,12.8z M15,12.8v1.4c0,0.4-0.4,0.8-0.8,0.8h-1.4
	c-0.4,0-0.8-0.4-0.8-0.8v-1.4c0-0.4,0.4-0.8,0.8-0.8h1.4C14.6,12,15,12.4,15,12.8z M7,12.8v1.4C7,14.6,6.6,15,6.2,15H4.8
	C4.4,15,4,14.6,4,14.2v-1.4C4,12.4,4.4,12,4.8,12h1.4C6.6,12,7,12.4,7,12.8z M11,4.8v1.4C11,6.6,10.6,7,10.2,7H8.8
	C8.4,7,8,6.6,8,6.2V4.8C8,4.4,8.4,4,8.8,4h1.4C10.6,4,11,4.4,11,4.8z M15,4.8v1.4C15,6.6,14.6,7,14.2,7h-1.4C12.4,7,12,6.6,12,6.2
	V4.8C12,4.4,12.4,4,12.8,4h1.4C14.6,4,15,4.4,15,4.8z M7,4.8v1.4C7,6.6,6.6,7,6.2,7H4.8C4.4,7,4,6.6,4,6.2V4.8C4,4.4,4.4,4,4.8,4
	h1.4C6.6,4,7,4.4,7,4.8z"/>
</svg>
