<?xml version="1.0" encoding="utf-8"?>
<!-- Generator: Adobe Illustrator 21.0.2, SVG Export Plug-In . SVG Version: 6.00 Build 0)  -->
<svg version="1.1" id="레이어_1" xmlns="http://www.w3.org/2000/svg" xmlns:xlink="http://www.w3.org/1999/xlink" x="0px"
	 y="0px" viewBox="0 0 30 30" style="enable-background:new 0 0 30 30;" xml:space="preserve">
<style type="text/css">
	.st0{fill:none;}
	.st1{opacity:0.3;}
	.st2{fill:#46C8FF;}
</style>
<rect class="st0" width="30" height="30"/>
<path class="st1" d="M14.8,17l6.6-6.6c0.8-0.8,0.8-2,0-2.8c-0.8-0.8-2-0.8-2.8,0l-8,8c-0.8,0.8-0.8,2,0,2.8l8,8
	C19,26.8,19.5,27,20,27s1-0.2,1.4-0.6c0.8-0.8,0.8-2,0-2.8L14.8,17z"/>
<path class="st2" d="M12.8,15l6.6-6.6c0.8-0.8,0.8-2,0-2.8c-0.8-0.8-2-0.8-2.8,0l-8,8c-0.8,0.8-0.8,2,0,2.8l8,8
	C17,24.8,17.5,25,18,25s1-0.2,1.4-0.6c0.8-0.8,0.8-2,0-2.8L12.8,15z"/>
</svg>
