<?xml version="1.0" standalone="no"?>
<!DOCTYPE svg PUBLIC "-//W3C//DTD SVG 20010904//EN"
 "http://www.w3.org/TR/2001/REC-SVG-20010904/DTD/svg10.dtd">
<svg version="1.0" xmlns="http://www.w3.org/2000/svg"
 width="664.000000pt" height="159.000000pt" viewBox="0 0 664.000000 159.000000"
 preserveAspectRatio="xMidYMid meet">

<g transform="translate(0.000000,159.000000) scale(0.100000,-0.100000)"
fill="transparent" stroke="none">
<path d="M0 795 l0 -795 3320 0 3320 0 0 795 0 795 -3320 0 -3320 0 0 -795z
m710 296 c28 -11 66 -31 84 -44 l32 -25 39 29 c149 111 363 53 443 -120 21
-46 24 -64 20 -131 -5 -89 -32 -145 -95 -200 -89 -79 -220 -98 -319 -48 -27
15 -56 34 -63 42 -18 21 -34 20 -55 -3 -55 -61 -208 -84 -297 -44 -174 78
-234 293 -125 442 77 103 219 146 336 102z m3856 -31 c8 0 14 -4 14 -10 0 -5
-17 -10 -38 -10 -51 0 -75 -26 -76 -83 l-1 -42 80 0 80 0 3 58 c2 31 7 57 12
57 5 0 10 -26 12 -57 l3 -58 58 -3 c76 -4 74 -22 -3 -22 l-60 0 0 -123 c0
-149 8 -167 76 -167 44 0 58 -12 28 -24 -30 -12 -72 -6 -95 13 -23 18 -24 27
-29 158 l-5 138 -80 0 -80 0 -3 -152 c-1 -88 -7 -153 -12 -153 -5 0 -11 65
-12 153 -3 149 -3 152 -25 155 -13 2 -23 7 -23 12 0 5 10 10 23 12 19 3 23 11
28 54 4 29 10 57 14 64 10 17 67 40 83 35 8 -3 20 -5 28 -5z m-2741 -29 c22
-10 48 -27 58 -38 16 -19 16 -21 -2 -37 -18 -16 -21 -16 -56 8 -67 46 -138 46
-206 2 -48 -32 -74 -87 -73 -156 1 -103 63 -177 157 -187 43 -5 101 14 149 49
15 11 21 10 35 -5 17 -18 17 -19 -12 -43 -116 -94 -286 -63 -359 66 -71 125
-17 287 114 344 49 21 146 20 195 -3z m1385 -11 c0 -27 -3 -30 -30 -30 -27 0
-30 3 -30 30 0 27 3 30 30 30 27 0 30 -3 30 -30z m663 14 c45 -15 75 -39 64
-50 -3 -4 -26 3 -51 15 -78 38 -188 24 -216 -28 -33 -62 12 -122 106 -141 175
-35 232 -119 145 -213 l-40 -42 -78 0 c-67 0 -85 4 -130 29 -29 16 -53 35 -53
43 0 19 10 16 55 -14 36 -25 49 -28 123 -28 79 0 85 1 108 28 28 32 32 82 9
114 -9 13 -39 29 -73 39 -133 39 -155 47 -180 69 -22 19 -27 32 -27 68 0 101
112 154 238 111z m-1125 -61 l3 -53 55 0 c51 0 54 -1 54 -25 0 -24 -3 -25 -55
-25 l-55 0 0 -109 c0 -129 9 -146 72 -138 32 4 38 2 38 -14 0 -37 -67 -51
-119 -24 -40 20 -51 61 -51 181 0 97 -1 104 -20 104 -30 0 -28 47 3 52 17 2
22 10 23 33 2 73 3 77 27 73 19 -3 22 -10 25 -55z m3474 -53 c-2 -16 -5 -30
-7 -30 -2 0 -5 14 -7 30 -3 19 0 30 7 30 7 0 10 -11 7 -30z m56 12 c9 9 12 7
12 -9 0 -11 -7 -23 -15 -27 -8 -3 -15 0 -15 7 0 8 -4 6 -10 -3 -7 -11 -10 -6
-10 20 1 31 2 33 14 18 10 -13 15 -15 24 -6z m-4100 -29 c35 -25 72 -98 72
-140 l0 -33 -129 0 c-73 0 -132 -4 -136 -10 -8 -13 21 -66 47 -84 33 -23 109
-21 142 5 15 11 34 18 42 15 26 -10 11 -39 -31 -64 -32 -18 -51 -22 -98 -19
-63 4 -98 23 -134 76 -60 88 -23 224 72 267 40 19 119 12 153 -13z m358 11
c56 -27 74 -79 74 -217 l0 -117 -30 0 -30 0 0 115 c0 157 -15 184 -103 185
-18 0 -39 -11 -58 -29 -29 -29 -29 -30 -29 -150 l0 -121 -30 0 -30 0 0 170 0
170 30 0 c24 0 30 -4 30 -22 0 -20 1 -20 18 -5 42 38 104 46 158 21z m572 -17
c3 -22 0 -27 -20 -27 -33 0 -85 -34 -103 -69 -10 -21 -15 -59 -15 -126 l0 -95
-30 0 -30 0 0 170 0 170 30 0 c27 0 30 -3 30 -32 l0 -32 28 27 c54 51 105 58
110 14z m393 23 c19 -6 45 -20 57 -32 18 -20 19 -26 7 -41 -12 -17 -15 -17
-50 8 -21 14 -52 25 -70 25 -73 0 -135 -80 -121 -155 18 -92 121 -134 198 -82
32 22 38 23 49 11 25 -31 -52 -84 -122 -84 -102 0 -179 77 -179 179 0 58 15
93 57 133 48 46 102 58 174 38z m-296 -170 l0 -165 -27 -3 -28 -3 0 171 0 171
28 -3 27 -3 0 -165z m1078 137 c49 -37 70 -87 65 -156 -5 -69 -33 -113 -88
-141 -161 -82 -327 103 -226 253 54 79 175 101 249 44z m1255 6 c15 -11 33
-31 39 -44 16 -30 18 -269 3 -269 -5 0 -10 9 -10 19 0 11 -4 23 -10 26 -5 3
-10 2 -10 -4 0 -18 -78 -51 -120 -51 -104 0 -166 91 -110 162 31 40 71 51 161
46 44 -3 82 -1 85 4 12 19 -18 79 -48 94 -31 16 -117 15 -167 -1 -18 -6 -23
-5 -19 6 13 39 158 48 206 12z m290 12 c-1 -5 -17 -15 -35 -21 -71 -25 -96
-74 -99 -194 -2 -110 -2 -110 -14 -110 -6 0 -10 62 -10 165 0 103 4 165 10
165 6 0 11 -8 11 -17 1 -10 2 -22 4 -28 1 -5 3 -14 3 -19 1 -5 12 4 24 19 32
41 115 72 106 40z m252 -10 c42 -31 69 -79 70 -122 l0 -33 -140 0 -140 0 0
-30 c0 -38 49 -95 96 -110 42 -14 76 -7 127 26 50 33 62 21 17 -17 -100 -84
-253 -25 -267 104 -8 64 3 111 34 148 53 63 144 78 203 34z m-1204 -131 l50
-146 50 143 c32 92 55 144 64 144 9 0 32 -52 64 -144 l50 -144 50 147 c29 83
56 146 64 146 6 0 12 -2 12 -5 0 -12 -113 -321 -120 -329 -12 -12 -32 32 -76
167 -21 64 -41 117 -44 117 -3 0 -21 -46 -39 -102 -46 -139 -70 -193 -81 -182
-7 7 -120 317 -120 330 0 2 6 4 13 4 7 0 34 -63 63 -146z"/>
<path d="M514 1031 c-123 -56 -171 -220 -98 -338 75 -122 245 -149 353 -56 66
56 102 143 65 157 -32 12 -45 5 -65 -36 -30 -62 -84 -98 -149 -98 -61 0 -100
18 -135 64 -52 68 -42 149 25 210 52 47 110 56 175 27 l48 -21 16 22 c24 34
20 41 -29 66 -56 28 -147 30 -206 3z"/>
<path d="M924 1026 c-56 -26 -99 -74 -119 -133 -16 -46 -12 -53 28 -53 28 1
35 7 52 43 64 135 261 120 304 -23 21 -69 -15 -152 -79 -185 -39 -20 -114 -19
-157 2 -35 16 -36 16 -54 -6 -26 -32 -24 -38 24 -63 32 -17 59 -22 113 -23 61
0 77 4 120 30 123 77 150 246 56 356 -68 79 -187 102 -288 55z"/>
<path d="M2032 864 c-22 -15 -52 -63 -52 -84 0 -6 38 -10 105 -10 113 0 119 4
94 53 -28 54 -100 74 -147 41z"/>
<path d="M4122 885 c-42 -18 -59 -36 -77 -79 -50 -118 52 -239 173 -207 107
29 145 177 65 253 -50 48 -102 58 -161 33z"/>
<path d="M5375 744 c-38 -22 -45 -32 -45 -71 0 -66 74 -99 155 -69 24 10 51
28 60 42 21 32 31 89 17 98 -6 3 -43 8 -84 11 -57 4 -80 2 -103 -11z"/>
<path d="M5941 883 c-37 -19 -71 -66 -71 -100 0 -23 2 -23 125 -23 123 0 125
0 125 23 0 35 -38 87 -75 103 -44 18 -62 17 -104 -3z"/>
</g>
</svg>
