<svg id="Capa_1" enable-background="new 0 0 512.001 512.001" height="512" viewBox="0 0 512.001 512.001" width="512" xmlns="http://www.w3.org/2000/svg">
<style type="text/css">
	.st1{fill:#46C8FF;}
</style>
<path class="st1" d="m512 75.828v-.168c0-3.985-1.586-7.807-4.407-10.621l-60.822-60.659c-2.87-2.862-6.799-4.458-10.829-4.377-4.053.064-7.907 1.765-10.686 4.716l-28.803 30.596-28.802-30.596c-2.835-3.011-6.786-4.718-10.922-4.718s-8.088 1.708-10.922 4.718l-28.802 30.596-28.802-30.596c-2.835-3.011-6.786-4.718-10.922-4.718-4.135 0-8.087 1.707-10.922 4.718l-28.804 30.597-28.806-30.597c-2.835-3.011-6.787-4.718-10.922-4.718h-.168c-3.985 0-7.807 1.586-10.621 4.408l-60.659 60.822c-2.862 2.87-4.44 6.776-4.377 10.829s1.765 7.907 4.716 10.686l30.597 28.803-41.76 41.768-28.805-30.598c-2.835-3.011-6.787-4.718-10.922-4.718h-.168c-3.985 0-7.807 1.586-10.621 4.408l-60.66 60.822c-2.862 2.87-4.44 6.776-4.377 10.829s1.765 7.907 4.716 10.686l30.597 28.803-30.596 28.802c-3.011 2.834-4.719 6.786-4.719 10.921 0 4.136 1.707 8.087 4.719 10.922l30.596 28.801-30.596 28.803c-3.011 2.835-4.719 6.787-4.719 10.922s1.707 8.087 4.718 10.922l30.598 28.804-30.598 28.807c-3.01 2.834-4.718 6.786-4.718 10.921v.167c0 3.985 1.586 7.807 4.407 10.621l60.822 60.659c2.814 2.807 6.625 4.379 10.593 4.379.079 0 .157 0 .236-.002 4.053-.064 7.907-1.765 10.686-4.716l28.803-30.596 28.803 30.596c2.835 3.011 6.786 4.718 10.922 4.718s8.088-1.708 10.922-4.718l28.802-30.596 28.803 30.596c2.835 3.011 6.786 4.718 10.922 4.718 4.135 0 8.087-1.707 10.922-4.718l28.804-30.597 28.806 30.597c2.835 3.011 6.787 4.718 10.922 4.718h.168c3.985 0 7.807-1.586 10.621-4.408l60.659-60.822c2.862-2.87 4.44-6.776 4.377-10.829s-1.765-7.907-4.716-10.686l-30.597-28.803 41.76-41.768 28.806 30.597c2.835 3.011 6.787 4.718 10.922 4.718h.168c3.985 0 7.807-1.586 10.621-4.408l60.659-60.822c2.862-2.87 4.44-6.776 4.377-10.829s-1.765-7.907-4.716-10.686l-30.597-28.803 30.596-28.802c3.012-2.834 4.719-6.787 4.719-10.922 0-4.136-1.707-8.087-4.719-10.922l-30.596-28.801 30.596-28.803c3.012-2.834 4.719-6.787 4.719-10.922s-1.707-8.087-4.718-10.922l-30.598-28.804 30.598-28.807c3.009-2.831 4.716-6.783 4.716-10.918zm-197.435 399.707-29.197-31.014c-2.835-3.011-6.787-4.718-10.922-4.718-4.136 0-8.087 1.707-10.922 4.718l-28.804 30.596-28.803-30.596c-2.835-3.011-6.786-4.718-10.922-4.718s-8.087 1.708-10.922 4.718l-28.802 30.596-28.803-30.596c-2.835-3.011-6.786-4.718-10.922-4.718s-8.087 1.707-10.922 4.718l-29.142 30.957-39.017-38.912 31.014-29.198c3.011-2.834 4.718-6.786 4.718-10.921s-1.707-8.087-4.718-10.922l-30.595-28.805 30.596-28.803c3.012-2.834 4.719-6.787 4.719-10.922 0-4.136-1.707-8.087-4.719-10.922l-30.596-28.801 30.596-28.802c3.012-2.834 4.719-6.787 4.719-10.922s-1.707-8.087-4.718-10.922l-30.957-29.143 38.912-39.017 29.197 31.014c2.835 3.011 6.787 4.718 10.922 4.718 4.136 0 8.087-1.707 10.922-4.718l28.804-30.596 28.803 30.596c2.835 3.011 6.786 4.718 10.922 4.718s8.087-1.708 10.922-4.718l28.802-30.596 28.803 30.596c2.835 3.011 6.786 4.718 10.922 4.718s8.087-1.707 10.922-4.718l29.142-30.957 39.017 38.912-31.014 29.198c-3.011 2.834-4.718 6.786-4.718 10.921s1.707 8.087 4.718 10.922l30.597 28.804-30.596 28.803c-3.012 2.834-4.719 6.787-4.719 10.922 0 4.136 1.707 8.087 4.719 10.922l30.596 28.801-30.596 28.802c-3.012 2.834-4.719 6.787-4.719 10.922s1.707 8.087 4.718 10.922l30.957 29.143zm129.955-349.057 30.597 28.804-30.596 28.803c-3.012 2.834-4.719 6.787-4.719 10.922 0 4.136 1.707 8.087 4.719 10.922l30.596 28.801-30.596 28.802c-3.012 2.834-4.719 6.787-4.719 10.922s1.707 8.087 4.718 10.922l30.957 29.143-38.912 39.017-29.197-31.014c-2.835-3.011-6.787-4.718-10.922-4.718-4.136 0-8.087 1.707-10.922 4.718l-11.736 12.466-19.102-17.981 30.596-28.803c3.012-2.834 4.719-6.787 4.719-10.922s-1.707-8.087-4.718-10.922l-30.598-28.804 30.598-28.807c3.011-2.834 4.718-6.786 4.718-10.921v-.167c0-3.985-1.586-7.807-4.407-10.621l-60.822-60.659c-2.87-2.862-6.804-4.452-10.829-4.377-4.053.064-7.907 1.765-10.686 4.716l-28.803 30.596-28.803-30.596c-2.835-3.011-6.786-4.718-10.922-4.718s-8.088 1.708-10.922 4.718l-28.802 30.596-17.99-19.11 12.465-11.734c3.012-2.834 4.719-6.787 4.719-10.922s-1.707-8.087-4.718-10.922l-30.957-29.143 38.912-39.017 29.197 31.014c2.835 3.011 6.787 4.718 10.922 4.718 4.136 0 8.087-1.707 10.922-4.718l28.804-30.596 28.803 30.596c2.835 3.011 6.786 4.718 10.922 4.718s8.087-1.708 10.922-4.718l28.802-30.596 28.803 30.596c2.835 3.011 6.786 4.718 10.922 4.718s8.087-1.707 10.922-4.718l29.142-30.957 39.017 38.912-31.014 29.198c-3.011 2.834-4.718 6.786-4.718 10.921s1.705 8.087 4.716 10.922z"/></svg>