<?xml version="1.0" encoding="UTF-8" standalone="no"?>
<!-- Created with Inkscape (http://www.inkscape.org/) -->

<svg
   id="svg2"
   viewBox="0 0 18 18"
   version="1.1"
   inkscape:version="1.1 (c68e22c387, 2021-05-23)"
   sodipodi:docname="Print Design 102.svg"
   width="18"
   height="18"
   xmlns:inkscape="http://www.inkscape.org/namespaces/inkscape"
   xmlns:sodipodi="http://sodipodi.sourceforge.net/DTD/sodipodi-0.dtd"
   xmlns="http://www.w3.org/2000/svg"
   xmlns:svg="http://www.w3.org/2000/svg"
   xmlns:rdf="http://www.w3.org/1999/02/22-rdf-syntax-ns#"
   xmlns:cc="http://creativecommons.org/ns#"
   xmlns:dc="http://purl.org/dc/elements/1.1/">
  <defs
     id="defs93" />
  <sodipodi:namedview
     id="namedview91"
     pagecolor="#ffffff"
     bordercolor="#666666"
     borderopacity="1.0"
     inkscape:pageshadow="2"
     inkscape:pageopacity="0.0"
     inkscape:pagecheckerboard="0"
     showgrid="false"
     inkscape:zoom="16"
     inkscape:cx="1.15625"
     inkscape:cy="8.59375"
     inkscape:window-width="1366"
     inkscape:window-height="745"
     inkscape:window-x="-8"
     inkscape:window-y="-8"
     inkscape:window-maximized="1"
     inkscape:current-layer="layer1"
     width="18px" />
  <g
     id="layer1"
     transform="translate(0,-332.36)">
    <path
       id="path2844"
       style="fill:#46c8ff;fill-opacity:1;stroke-width:0.0444418"
       d="m 6.3531179,341.42859 c 0,1.47259 -1.1939113,2.66637 -2.6666665,2.66637 1.4727552,0 2.6666665,1.19276 2.6666665,2.66816 0,-1.4726 1.1939114,-2.66638 2.6666661,-2.66638 -1.4727547,0 -2.6666661,-1.19378 -2.6666661,-2.66637 z" />
    <path
       id="path2903"
       style="fill:#46c8ff;fill-opacity:1;stroke-width:0.0444418"
       d="m 11.686452,341.42859 c 0,1.47259 -1.193912,2.66637 -2.666668,2.66637 1.472756,0 2.666668,1.19378 2.666668,2.66637 0,-1.47259 1.19391,-2.66637 2.666666,-2.66637 -1.472756,0 -2.666666,-1.19378 -2.666666,-2.66637 z" />
    <path
       id="path2905-1-8-0-1-7-7-6-3-6"
       style="fill:#46c8ff;fill-opacity:1;stroke-width:0.0444418"
       d="m 3.686451,338.76222 c 0,1.47259 -1.1939111,2.66637 -2.6666666,2.66637 1.4727555,0 2.6666666,1.19378 2.6666666,2.66637 0,-1.47259 1.1939113,-2.66637 2.6666669,-2.66637 -1.4727556,0 -2.6666669,-1.19378 -2.6666669,-2.66637 z" />
    <path
       id="path2936"
       style="fill:#46c8ff;fill-opacity:1;stroke-width:0.0444418"
       d="m 11.686452,336.09584 c 0,1.4726 -1.193912,2.66638 -2.666668,2.66638 1.472756,0 2.666668,1.19378 2.666668,2.66637 0,-1.47259 1.19391,-2.66637 2.666666,-2.66637 -1.472756,0 -2.666666,-1.19378 -2.666666,-2.66638 z" />
    <path
       id="path2938"
       style="fill:#46c8ff;fill-opacity:1;stroke-width:0.0444418"
       d="m 6.3531179,336.09584 c 0,1.4726 -1.1939113,2.66638 -2.6666665,2.66638 1.4727552,0 2.6666665,1.19378 2.6666665,2.66637 0,-1.47259 1.1939114,-2.66637 2.6666661,-2.66637 -1.4727547,0 -2.6666661,-1.19378 -2.6666661,-2.66638 z" />
    <path
       id="path3067"
       style="fill:#46c8ff;fill-opacity:1;stroke-width:0.0444418"
       d="m 14.353118,333.42948 c 0,1.4726 -1.193911,2.66636 -2.666666,2.66636 1.472755,0 2.666666,1.19378 2.666666,2.66638 0,-1.4726 1.193911,-2.66638 2.666666,-2.66638 -1.472755,0 -2.666666,-1.19376 -2.666666,-2.66636 z" />
    <path
       id="path3069"
       style="fill:#46c8ff;fill-opacity:1;stroke-width:0.0444418"
       d="m 9.019784,333.42948 c 0,1.4726 -1.1939108,2.66636 -2.6666661,2.66636 1.4727553,0 2.6666661,1.19378 2.6666661,2.66638 0,-1.4726 1.193911,-2.66638 2.666668,-2.66638 -1.472757,0 -2.666668,-1.19376 -2.666668,-2.66636 z" />
    <path
       id="path3071"
       style="fill:#46c8ff;fill-opacity:1;stroke-width:0.0444418"
       d="m 3.6864514,333.42948 c 0,1.4726 -1.1939112,2.66636 -2.6666668,2.66636 1.4727556,0 2.6666668,1.19378 2.6666668,2.66638 0,-1.4726 1.193911,-2.66638 2.6666665,-2.66638 -1.4727555,0 -2.6666665,-1.19376 -2.6666665,-2.66636 z" />
    <path
       id="path3081"
       style="fill:#46c8ff;fill-opacity:1;stroke-width:0.0444418"
       d="m 14.353118,338.76222 c 0,1.47259 -1.193911,2.66637 -2.666666,2.66637 1.472755,0 2.666666,1.19378 2.666666,2.66637 0,-1.47259 1.193911,-2.66637 2.666666,-2.66637 -1.472755,0 -2.666666,-1.19378 -2.666666,-2.66637 z" />
    <path
       id="path3083"
       style="fill:#46c8ff;fill-opacity:1;stroke-width:0.0444418"
       d="m 9.019784,338.76222 c 0,1.47259 -1.1939108,2.66637 -2.6666661,2.66637 1.4727553,0 2.6666661,1.19378 2.6666661,2.66637 0,-1.47259 1.193911,-2.66637 2.666668,-2.66637 -1.472757,0 -2.666668,-1.19378 -2.666668,-2.66637 z" />
    <path
       id="path3095"
       style="fill:#46c8ff;fill-opacity:1;stroke-width:0.0444418"
       d="m 14.353118,344.09496 c 0,1.47273 -1.193778,2.66816 -2.666666,2.66816 1.472755,0 2.666666,1.19376 2.666666,2.66636 0,-1.4726 1.193911,-2.66636 2.666666,-2.66636 -1.472755,0 -2.666666,-1.19379 -2.666666,-2.66638 z" />
    <path
       id="path3097"
       style="fill:#46c8ff;fill-opacity:1;stroke-width:0.0444418"
       d="m 9.019784,344.09496 c 0,1.47273 -1.1939108,2.66816 -2.6666661,2.66816 1.4727553,0 2.6666661,1.19376 2.6666661,2.66636 0,-1.4726 1.193911,-2.66636 2.666668,-2.66636 -1.472757,0 -2.666668,-1.19379 -2.666668,-2.66638 z" />
    <path
       id="path3099"
       style="fill:#46c8ff;fill-opacity:1;stroke-width:0.0444418"
       d="m 3.6864514,344.09496 c 0,1.47273 -1.1939112,2.66816 -2.6666668,2.66816 1.4727556,0 2.6666668,1.19376 2.6666668,2.66636 0,-1.4726 1.193911,-2.66636 2.6666665,-2.66636 -1.4727555,0 -2.6666665,-1.19379 -2.6666665,-2.66638 z" />
  </g>
  <metadata
     id="metadata88">
    <rdf:RDF>
      <cc:Work>
        <dc:format>image/svg+xml</dc:format>
        <dc:type
           rdf:resource="http://purl.org/dc/dcmitype/StillImage" />
        <cc:license
           rdf:resource="http://creativecommons.org/publicdomain/zero/1.0/" />
        <dc:publisher>
          <cc:Agent
             rdf:about="http://openclipart.org/">
            <dc:title>Openclipart</dc:title>
          </cc:Agent>
        </dc:publisher>
        <dc:title>round tetragons</dc:title>
        <dc:date>2011-03-23T02:11:15</dc:date>
        <dc:description>I can't accurately describe this but it's one of my favorites!</dc:description>
        <dc:source>https://openclipart.org/detail/128845/round-tetragons-by-10binary</dc:source>
        <dc:creator>
          <cc:Agent>
            <dc:title>10binary</dc:title>
          </cc:Agent>
        </dc:creator>
        <dc:subject>
          <rdf:Bag>
            <rdf:li>circles</rdf:li>
            <rdf:li>round</rdf:li>
            <rdf:li>squares</rdf:li>
            <rdf:li>tetragons</rdf:li>
          </rdf:Bag>
        </dc:subject>
      </cc:Work>
      <cc:License
         rdf:about="http://creativecommons.org/publicdomain/zero/1.0/">
        <cc:permits
           rdf:resource="http://creativecommons.org/ns#Reproduction" />
        <cc:permits
           rdf:resource="http://creativecommons.org/ns#Distribution" />
        <cc:permits
           rdf:resource="http://creativecommons.org/ns#DerivativeWorks" />
      </cc:License>
    </rdf:RDF>
  </metadata>
</svg>
