<?xml version="1.0" encoding="utf-8"?>
<!-- Generator: Adobe Illustrator 24.1.3, SVG Export Plug-In . SVG Version: 6.00 Build 0)  -->
<svg version="1.1" id="icon" xmlns="http://www.w3.org/2000/svg" xmlns:xlink="http://www.w3.org/1999/xlink" x="0px" y="0px"
	 viewBox="0 0 18 18" style="enable-background:new 0 0 18 18;" xml:space="preserve">
<style type="text/css">
	.st0{fill:none;}
	.st1{opacity:0.15;enable-background:new    ;}
	.st2{fill:#969696;}
</style>
<rect class="st0" width="18" height="18"/>
<path class="st1" d="M9.5,13h-6c-0.7,0-1.1-0.7-0.9-1.3L5.1,4c0.2-0.6,0.8-1,1.4-1h6c0.7,0,1.1,0.7,0.9,1.3L10.9,12
	C10.7,12.6,10.1,13,9.5,13z"/>
<path class="st2" d="M10.5,14h-6c-0.7,0-1.1-0.7-0.9-1.3L6.1,5c0.2-0.6,0.8-1,1.4-1h6c0.7,0,1.1,0.7,0.9,1.3L11.9,13
	C11.7,13.6,11.1,14,10.5,14z"/>
</svg>
