<?xml version="1.0" encoding="UTF-8"?>
<svg xmlns="http://www.w3.org/2000/svg" xmlns:xlink="http://www.w3.org/1999/xlink" width="20pt" height="20pt" viewBox="0 0 20 20" version="1.1">
<style type="text/css">
	.st1{fill:#969696;}
	.st2{fill:#969696;}
</style>
<g id="surface1">
<path class="st1" d="M 10.011719 0.0546875 C 9.710938 0.152344 9.515625 0.304688 8.925781 0.894531 L 8.34375 1.484375 L 7.96875 1.113281 C 7.453125 0.609375 7.203125 0.488281 6.679688 0.488281 C 6.355469 0.488281 6.277344 0.503906 6.054688 0.601562 C 5.824219 0.707031 5.679688 0.835938 4.578125 1.929688 C 3.902344 2.597656 3.300781 3.214844 3.242188 3.304688 C 3.046875 3.582031 2.957031 3.917969 2.980469 4.277344 C 3.007812 4.746094 3.125 4.96875 3.574219 5.429688 C 3.777344 5.636719 3.945312 5.820312 3.945312 5.839844 C 3.945312 5.863281 3.675781 6.152344 3.34375 6.484375 C 2.585938 7.242188 2.519531 7.359375 2.519531 7.890625 C 2.519531 8.429688 2.582031 8.535156 3.390625 9.347656 C 4.378906 10.339844 4.316406 10.34375 5.441406 9.226562 L 6.25 8.421875 L 6.25 13.039062 C 6.25 18.214844 6.238281 17.984375 6.53125 18.589844 C 6.753906 19.058594 7.191406 19.496094 7.664062 19.722656 C 8.257812 20.011719 8.140625 20.003906 12.003906 19.992188 C 15.21875 19.980469 15.464844 19.976562 15.664062 19.90625 C 16.503906 19.628906 17.097656 19.054688 17.390625 18.242188 L 17.480469 17.988281 L 17.492188 12.195312 L 17.5 6.40625 L 8.261719 6.40625 L 10.398438 4.265625 C 12.757812 1.90625 12.660156 2.023438 12.523438 1.664062 C 12.425781 1.410156 11.261719 0.273438 10.953125 0.128906 C 10.679688 0.00390625 10.265625 -0.0273438 10.011719 0.0546875 Z M 6.867188 1.695312 C 6.925781 1.726562 7.09375 1.875 7.246094 2.027344 L 7.519531 2.304688 L 4.804688 5.019531 L 4.472656 4.683594 C 4.113281 4.320312 4.074219 4.222656 4.195312 3.992188 C 4.257812 3.875 6.382812 1.75 6.503906 1.683594 C 6.613281 1.625 6.742188 1.628906 6.867188 1.695312 Z M 9.578125 9.203125 C 9.632812 9.230469 9.71875 9.316406 9.761719 9.386719 C 9.84375 9.519531 9.84375 9.53125 9.84375 13.210938 L 9.84375 16.902344 L 9.753906 17.035156 C 9.507812 17.402344 9 17.378906 8.769531 16.988281 C 8.691406 16.859375 8.691406 16.773438 8.679688 13.289062 C 8.671875 10.878906 8.683594 9.671875 8.710938 9.566406 C 8.816406 9.183594 9.210938 9.015625 9.578125 9.203125 Z M 12.1875 9.214844 C 12.242188 9.253906 12.324219 9.34375 12.375 9.414062 L 12.460938 9.542969 L 12.460938 13.191406 C 12.460938 17.230469 12.476562 17.011719 12.210938 17.199219 C 12.125 17.261719 12.035156 17.285156 11.886719 17.285156 C 11.667969 17.285156 11.535156 17.214844 11.390625 17.015625 C 11.308594 16.910156 11.308594 16.882812 11.308594 13.203125 C 11.308594 9.523438 11.308594 9.496094 11.390625 9.386719 C 11.433594 9.328125 11.546875 9.238281 11.644531 9.1875 C 11.839844 9.085938 12.023438 9.097656 12.1875 9.214844 Z M 14.839844 9.246094 C 15.089844 9.4375 15.078125 9.25 15.078125 13.210938 C 15.078125 16.730469 15.078125 16.816406 15 16.972656 C 14.792969 17.402344 14.171875 17.40625 13.96875 16.976562 C 13.914062 16.855469 13.90625 16.480469 13.90625 13.203125 C 13.90625 9.273438 13.894531 9.46875 14.113281 9.265625 C 14.3125 9.078125 14.605469 9.070312 14.839844 9.246094 Z M 14.839844 9.246094 "/>
<path class="st2" d="M 16.40625 3.308594 C 16.226562 3.339844 12.601562 4.414062 12.453125 4.476562 C 12.203125 4.589844 11.996094 4.835938 11.910156 5.125 L 11.878906 5.234375 L 17.507812 5.234375 L 17.492188 4.597656 C 17.480469 3.902344 17.460938 3.832031 17.21875 3.589844 C 17.015625 3.390625 16.65625 3.265625 16.40625 3.308594 Z M 16.40625 3.308594 "/>
</g>
</svg>
