<?xml version="1.0" encoding="utf-8"?>
<!-- Generator: Adobe Illustrator 24.1.3, SVG Export Plug-In . SVG Version: 6.00 Build 0)  -->
<svg version="1.1" id="레이어_1" xmlns="http://www.w3.org/2000/svg" xmlns:xlink="http://www.w3.org/1999/xlink" x="0px"
	 y="0px" viewBox="0 0 30 30" style="enable-background:new 0 0 30 30;" xml:space="preserve">
<style type="text/css">
	.st0{fill:none;}
	.st1{fill:#46C8FF;}
</style>
<rect class="st0" width="30" height="30"/>
<path class="st1" d="M21.2,15l-6.6-6.6c-0.8-0.8-0.8-2,0-2.8s2-0.8,2.8,0l8,8c0.8,0.8,0.8,2,0,2.8l-8,8C17,24.8,16.5,25,16,25
	s-1-0.2-1.4-0.6c-0.8-0.8-0.8-2,0-2.8L21.2,15z"/>
<path class="st1" d="M11.2,15L4.6,8.4c-0.8-0.8-0.8-2,0-2.8s2-0.8,2.8,0l8,8c0.8,0.8,0.8,2,0,2.8l-8,8C7,24.8,6.5,25,6,25
	s-1-0.2-1.4-0.6c-0.8-0.8-0.8-2,0-2.8L11.2,15z"/>
</svg>
