<?xml version="1.0" encoding="UTF-8"?>
<svg xmlns="http://www.w3.org/2000/svg" xmlns:xlink="http://www.w3.org/1999/xlink" width="18px" height="18px" viewBox="0 0 18 18" version="1.1">
<g id="surface1">
<path style=" stroke:none;fill-rule:nonzero;fill:#46C8FF;fill-opacity:1;" d="M 12.945312 0.015625 C 12.875 0.015625 6.191406 0 6.191406 0 C 5 0 3.941406 1.09375 3.941406 2.25 L 3.289062 2.265625 C 2.097656 2.265625 1.125 3.34375 1.125 4.503906 L 1.125 15.757812 C 1.125 16.917969 2.1875 18.011719 3.378906 18.011719 L 11.820312 18.011719 C 13.011719 18.011719 14.070312 16.917969 14.070312 15.757812 L 14.632812 15.757812 C 15.824219 15.757812 16.886719 14.667969 16.886719 13.507812 L 16.886719 4.515625 Z M 11.820312 16.886719 L 3.378906 16.886719 C 2.785156 16.886719 2.25 16.332031 2.25 15.757812 L 2.25 4.503906 C 2.25 3.664062 2.941406 3.378906 3.941406 3.378906 L 3.941406 13.507812 C 3.941406 14.667969 5 15.757812 6.191406 15.757812 C 6.191406 15.757812 12.292969 15.753906 12.949219 15.753906 C 12.949219 16.4375 12.503906 16.886719 11.820312 16.886719 Z M 12.945312 11.824219 L 7.878906 11.824219 C 7.570312 11.824219 7.316406 11.574219 7.316406 11.261719 C 7.316406 10.953125 7.570312 10.703125 7.878906 10.703125 L 12.945312 10.703125 C 13.257812 10.703125 13.507812 10.953125 13.507812 11.261719 C 13.507812 11.574219 13.257812 11.824219 12.945312 11.824219 Z M 12.945312 9.015625 L 7.878906 9.015625 C 7.570312 9.015625 7.316406 8.761719 7.316406 8.453125 C 7.316406 8.140625 7.570312 7.890625 7.878906 7.890625 L 12.945312 7.890625 C 13.257812 7.890625 13.507812 8.140625 13.507812 8.453125 C 13.507812 8.761719 13.257812 9.015625 12.945312 9.015625 Z M 14.070312 4.503906 C 13.472656 4.503906 12.945312 3.960938 12.945312 3.378906 C 12.945312 3.378906 12.945312 2.238281 12.945312 1.144531 L 12.945312 1.140625 L 15.757812 4.503906 Z M 14.070312 4.503906 "/>
</g>
</svg>
