<?xml version="1.0" encoding="utf-8"?>
<!-- Generator: Adobe Illustrator 24.1.3, SVG Export Plug-In . SVG Version: 6.00 Build 0)  -->
<svg version="1.1" id="icon" xmlns="http://www.w3.org/2000/svg" xmlns:xlink="http://www.w3.org/1999/xlink" x="0px" y="0px"
	 viewBox="0 0 18 18" style="enable-background:new 0 0 18 18;" xml:space="preserve">
<style type="text/css">
	.st0{fill:none;}
	.st1{opacity:0.15;enable-background:new;}
	.st2{opacity:0.5;fill:#969696;enable-background:new;}
	.st3{fill:#969696;}
	.st4{fill:#ababab;}
</style>
<rect class="st0" width="18" height="18"/>
<rect class="st0" width="18" height="18"/>
<path class="st1" d="M8.2,2.1C8.1,2,7.9,2,7.8,2.1L2,4.9v6c0,0.2,0.1,0.4,0.3,0.5L8,14l5.7-2.7c0.2-0.1,0.3-0.3,0.3-0.5v-6L8.2,2.1z
	"/>
<path class="st2" d="M14.7,12.3L9,15V8.7l6-2.9v6C15,12,14.9,12.2,14.7,12.3z"/>
<path class="st3" d="M8.8,3.1L3,5.9l6,2.9l6-2.9L9.2,3.1C9.1,3,8.9,3,8.8,3.1z"/>
<path class="st4" d="M3.3,12.3L9,15V8.7L3,5.9v6C3,12,3.1,12.2,3.3,12.3z"/>
</svg>
