<?xml version="1.0" encoding="UTF-8"?>
<svg xmlns="http://www.w3.org/2000/svg" xmlns:xlink="http://www.w3.org/1999/xlink" width="20pt" height="20pt" viewBox="0 0 20 20" version="1.1">
<style type="text/css">
	.st1{fill:#969696;}
	.st2{fill:#969696;}
	.st3{fill:#969696;}
</style>
<g id="surface1">
<path class="st1" d="M 16.152344 0.0820312 C 16.046875 0.105469 15.84375 0.175781 15.703125 0.242188 C 15.484375 0.347656 15.316406 0.496094 14.472656 1.332031 L 13.496094 2.300781 L 15.535156 4.34375 L 17.578125 6.386719 L 18.558594 5.410156 C 19.09375 4.871094 19.613281 4.332031 19.703125 4.210938 C 20.019531 3.796875 20.078125 3.253906 19.863281 2.777344 C 19.78125 2.601562 19.574219 2.371094 18.738281 1.53125 C 17.691406 0.472656 17.410156 0.242188 17.054688 0.136719 C 16.792969 0.0585938 16.390625 0.0351562 16.152344 0.0820312 Z M 16.152344 0.0820312 "/>
<path class="st2" d="M 7.265625 8.535156 L 2.128906 13.671875 L 6.191406 17.734375 L 16.503906 7.421875 L 14.492188 5.410156 C 13.386719 4.304688 12.464844 3.398438 12.441406 3.398438 C 12.417969 3.398438 10.089844 5.710938 7.265625 8.535156 Z M 7.265625 8.535156 "/>
<path class="st3" d="M 0.511719 17.132812 C 0.152344 18.753906 0 19.5 0.015625 19.589844 C 0.0429688 19.734375 0.167969 19.863281 0.339844 19.921875 C 0.445312 19.960938 0.765625 19.890625 2.757812 19.410156 C 4.023438 19.105469 5.066406 18.847656 5.078125 18.839844 C 5.097656 18.824219 1.089844 14.804688 1.050781 14.804688 C 1.039062 14.804688 0.796875 15.851562 0.511719 17.132812 Z M 0.511719 17.132812 "/>
</g>
</svg>
