<svg width="18" height="18" viewBox="0 0 18 18" fill="none" xmlns="http://www.w3.org/2000/svg">
<g opacity="0.3">
<path d="M1.85836 4.44742C1.89549 4.39608 1.93942 4.34847 1.99473 4.31206C2.71193 3.83784 3.46209 3.17617 4.3538 3.01225C4.76472 2.93589 4.73477 3.22994 4.80785 3.52101C4.90428 3.90711 5.49011 5.40594 5.62269 5.78849C6.04778 7.0125 6.71208 8.32856 7.68665 9.30444C7.79008 9.44932 7.89331 9.59383 7.99993 9.73759C7.93684 9.80854 7.87853 9.88564 7.82023 9.95995C7.13996 10.6282 6.40219 11.2303 5.81916 11.9817C5.6187 12.239 5.27527 13.0723 4.91906 12.995C4.87174 13.0052 4.81743 12.995 4.7751 12.964C3.98022 12.3703 3.59087 11.4114 3.2127 10.5753C2.71273 9.47434 2.24691 8.34704 1.88871 7.2035C1.68964 6.57133 1.14055 5.0064 1.85836 4.44742Z" fill="black"/>
<path d="M14.1416 4.44742C14.1045 4.39608 14.0606 4.34847 14.0053 4.31206C13.288 3.83784 12.5379 3.17617 11.6461 3.01225C11.2352 2.93589 11.2652 3.22994 11.1921 3.52101C11.0956 3.90711 10.5098 5.40594 10.3772 5.78849C9.95212 7.0125 9.28781 8.32856 8.31322 9.30444C8.20979 9.44932 8.10656 9.59383 7.99993 9.73759C8.06303 9.80854 8.12133 9.88564 8.17964 9.95995C8.85992 10.6282 9.5977 11.2303 10.1807 11.9817C10.3812 12.239 10.7247 13.0723 11.0809 12.995C11.1282 13.0052 11.1825 12.995 11.2248 12.964C12.0197 12.3703 12.4091 11.4114 12.7873 10.5753C13.2872 9.47434 13.7531 8.34704 14.1113 7.2035C14.3104 6.57133 14.8595 5.0064 14.1416 4.44742Z" fill="black"/>
</g>
<path d="M2.85836 5.44742C2.89549 5.39608 2.93942 5.34847 2.99473 5.31206C3.71193 4.83784 4.46209 4.17617 5.3538 4.01225C5.76472 3.93589 5.73477 4.22994 5.80785 4.52101C5.90428 4.90711 6.49011 6.40594 6.62269 6.78849C7.04778 8.0125 7.71208 9.32856 8.68665 10.3044C8.79008 10.4493 8.89331 10.5938 8.99993 10.7376C8.93684 10.8085 8.87853 10.8856 8.82023 10.96C8.13996 11.6282 7.40219 12.2303 6.81916 12.9817C6.6187 13.239 6.27527 14.0723 5.91906 13.995C5.87174 14.0052 5.81743 13.995 5.7751 13.964C4.98022 13.3703 4.59087 12.4114 4.2127 11.5753C3.71273 10.4743 3.24691 9.34704 2.88871 8.2035C2.68964 7.57133 2.14055 6.0064 2.85836 5.44742Z" fill="#66CCFF"/>
<path d="M15.1416 5.44742C15.1045 5.39608 15.0606 5.34847 15.0053 5.31206C14.288 4.83784 13.5379 4.17617 12.6461 4.01225C12.2352 3.93589 12.2652 4.22994 12.1921 4.52101C12.0956 4.90711 11.5098 6.40594 11.3772 6.78849C10.9521 8.0125 10.2878 9.32856 9.31322 10.3044C9.20979 10.4493 9.10656 10.5938 8.99993 10.7376C9.06303 10.8085 9.12133 10.8856 9.17964 10.96C9.85992 11.6282 10.5977 12.2303 11.1807 12.9817C11.3812 13.239 11.7247 14.0723 12.0809 13.995C12.1282 14.0052 12.1825 13.995 12.2248 13.964C13.0197 13.3703 13.4091 12.4114 13.7873 11.5753C14.2872 10.4743 14.7531 9.34704 15.1113 8.2035C15.3104 7.57133 15.8595 6.0064 15.1416 5.44742Z" fill="#66CCFF"/>
</svg>
