<?xml version="1.0" encoding="utf-8"?>
<!-- Generator: Adobe Illustrator 24.1.3, SVG Export Plug-In . SVG Version: 6.00 Build 0)  -->
<svg version="1.1" id="icon" xmlns="http://www.w3.org/2000/svg" xmlns:xlink="http://www.w3.org/1999/xlink" x="0px" y="0px"
	 viewBox="0 0 18 18" style="enable-background:new 0 0 18 18;" xml:space="preserve">
<style type="text/css">
	.st0{fill:none;}
	.st1{opacity:0.15;}
	.st2{fill:#46C8FF;}
</style>
<rect class="st0" width="18" height="18"/>
<path class="st1" d="M7,3c0,0.5-0.5,1-1,1H4v8h2c0.5,0,1,0.5,1,1s-0.5,1-1,1H3c-0.5,0-1-0.5-1-1V3c0-0.5,0.5-1,1-1h3
	C6.5,2,7,2.5,7,3z M13.8,8.5c0.3-0.2,0.3-0.7,0-0.9L10,4.6C9.6,4.3,9,4.6,9,5.1V7H6.3c-0.5,0-1,0.5-1,1s0.5,1,1,1H9v1.9
	c0,0.5,0.5,0.7,0.9,0.5L13.8,8.5z"/>
<path class="st2" d="M8,4c0,0.5-0.5,1-1,1H5v8h2c0.5,0,1,0.5,1,1s-0.5,1-1,1H4c-0.5,0-1-0.5-1-1V4c0-0.5,0.5-1,1-1h3
	C7.5,3,8,3.5,8,4z M14.8,9.5c0.3-0.2,0.3-0.7,0-0.9L11,5.6c-0.4-0.3-0.9,0-0.9,0.5V8H7.3c-0.5,0-1,0.5-1,1s0.5,1,1,1H10v1.9
	c0,0.5,0.5,0.7,0.9,0.5L14.8,9.5z"/>
</svg>
