<?xml version="1.0" encoding="utf-8"?>
<!-- Generator: Adobe Illustrator 24.1.3, SVG Export Plug-In . SVG Version: 6.00 Build 0)  -->
<svg version="1.1" id="레이어_1" xmlns="http://www.w3.org/2000/svg" xmlns:xlink="http://www.w3.org/1999/xlink" x="0px"
	 y="0px" viewBox="0 0 30 30" style="enable-background:new 0 0 30 30;" xml:space="preserve">
<style type="text/css">
	.st0{fill:none;}
	.st1{fill:#46C8FF;}
</style>
<rect class="st0" width="30" height="30"/>
<path class="st1" d="M15.4,21.6c0.8,0.8,0.8,2,0,2.8C15,24.8,14.5,25,14,25s-1-0.2-1.4-0.6l-8-8c-0.8-0.8-0.8-2,0-2.8l8-8
	c0.8-0.8,2-0.8,2.8,0s0.8,2,0,2.8L8.8,15L15.4,21.6z"/>
<path class="st1" d="M25.4,21.6c0.8,0.8,0.8,2,0,2.8C25,24.8,24.5,25,24,25s-1-0.2-1.4-0.6l-8-8c-0.8-0.8-0.8-2,0-2.8l8-8
	c0.8-0.8,2-0.8,2.8,0c0.8,0.8,0.8,2,0,2.8L18.8,15L25.4,21.6z"/>
</svg>
