<?xml version="1.0" encoding="utf-8"?>
<!-- Generator: Adobe Illustrator 24.1.3, SVG Export Plug-In . SVG Version: 6.00 Build 0)  -->
<svg version="1.1" id="icon" xmlns="http://www.w3.org/2000/svg" xmlns:xlink="http://www.w3.org/1999/xlink" x="0px" y="0px"
	 viewBox="0 0 18 18" style="enable-background:new 0 0 18 18;" xml:space="preserve">
<style type="text/css">
	.st0{fill:none;}
	.st1{opacity:0.2;}
	.st2{opacity:0.2;enable-background:new    ;}
	.st3{fill:#767676;}
	.st4{fill:#969696;}
</style>
<rect class="st0" width="18" height="18"/>
<g class="st1">
	<polygon points="2,5 7,5 7.5,2 3.3,2 	"/>
	<polygon points="12.7,2 8.5,2 9,5 14,5 	"/>
</g>
<polygon class="st2" points="9,5 9,9 7,9 7,5 2,5 2,14 14,14 14,5 "/>
<g>
	<polygon class="st3" points="3,6 8,6 8.5,3 4.3,3 	"/>
	<polygon class="st3" points="13.7,3 9.5,3 10,6 15,6 	"/>
</g>
<polygon class="st4" points="10,6 10,10 8,10 8,6 3,6 3,15 15,15 15,6 "/>
</svg>
