<?xml version="1.0" encoding="UTF-8"?>
<svg width="140px" height="45px" viewBox="0 0 140 45" version="1.1" xmlns="http://www.w3.org/2000/svg" xmlns:xlink="http://www.w3.org/1999/xlink">
    <title>img/bi</title>
    <g id="img/bi" stroke="none" stroke-width="1" fill="none" fill-rule="evenodd">
        <g id="CLO-Vise" fill="#FFFFFF">
            <path d="M81.5001,13.50005 C81.5001,12.39555 80.6046,11.50005 79.5001,11.50005 L74.5001,11.50005 L74.5001,12.50005 C74.5001,13.60455 75.3956,14.50005 76.5001,14.50005 L81.5001,14.50005 L81.5001,13.50005 Z M137.1881,13.90605 L128.8416,13.90605 L128.8416,13.90605 C129.0191,11.53755 130.8541,9.61755 133.2516,9.61755 C135.8266,9.61755 137.1286,11.50605 137.1881,13.90605 L137.1881,13.90605 Z M133.2516,7.25005 C129.1371,7.25005 126.0001,10.54605 126.0001,15.28155 C126.0001,20.05005 129.1371,23.25005 133.3991,23.25005 C135.8856,23.25005 137.9281,22.25805 139.4376,20.14605 L138.8971,19.67705 C138.2091,19.07905 137.1711,19.03155 136.4801,19.62555 C135.6921,20.30255 134.6566,20.75405 133.3991,20.75405 C130.9426,20.75405 128.9301,18.73805 128.8416,16.14605 L139.9701,16.14605 L139.9701,16.14605 C140.0001,15.79405 140.0001,15.44205 140.0001,15.12205 C140.0001,10.28955 137.3951,7.25005 133.2516,7.25005 L133.2516,7.25005 Z M122.5441,10.34455 C121.8411,10.92355 120.8406,10.95555 120.0981,10.42805 C119.3961,9.92905 118.5001,9.61755 117.5151,9.61755 C116.1006,9.61755 114.6206,10.16155 114.6206,11.60205 C114.6206,12.88205 115.8046,13.36205 118.1726,13.87405 C121.1336,14.51405 123.4031,15.69805 123.4031,18.35405 C123.4031,21.93805 120.3441,23.25005 117.1861,23.25005 C114.8971,23.25005 112.5471,22.41305 111.0556,20.71055 C110.9701,20.61355 110.9856,20.46205 111.0851,20.37955 L111.6961,19.87355 C112.4231,19.27205 113.4541,19.27055 114.2191,19.82305 C115.0516,20.42455 116.1166,20.81805 117.2516,20.81805 C118.7976,20.81805 120.3441,20.27405 120.3441,18.61005 C120.3441,17.20155 118.9291,16.69005 116.2646,16.08205 C114.1926,15.60205 111.7256,14.73805 111.7256,11.89005 C111.7256,8.62605 114.6531,7.25005 117.6136,7.25005 C119.7361,7.25005 121.9801,8.05105 123.1426,9.56805 C123.2176,9.66555 123.1966,9.80755 123.1016,9.88555 L122.5441,10.34455 Z M105.7501,23.00005 L104.5001,23.00005 L104.5001,7.50005 L105.7501,7.50005 C106.7166,7.50005 107.5001,8.28355 107.5001,9.25005 L107.5001,21.25005 C107.5001,22.21655 106.7166,23.00005 105.7501,23.00005 L105.7501,23.00005 Z M105.4126,5.67105 C104.7071,5.47355 104.1586,4.86305 104.0326,4.14105 C103.8071,2.84755 104.7771,1.75005 105.9841,1.75005 C107.0721,1.75005 108.0001,2.60955 108.0001,3.76655 C108.0001,5.08405 106.7256,6.03755 105.4126,5.67105 L105.4126,5.67105 Z M91.7501,19.36305 L91.8451,19.36305 L98.1291,2.98955 C98.4151,2.24355 99.1431,1.75005 99.9566,1.75005 L102.0001,1.75005 L93.5721,22.29005 C93.3336,22.87005 92.7596,23.25005 92.1211,23.25005 L91.3186,23.25005 C90.6786,23.25005 90.1036,22.86805 89.8661,22.28655 L81.5001,1.75005 L83.6386,1.75005 C84.4521,1.75005 85.1801,2.24355 85.4666,2.98905 L91.7501,19.36305 Z M32.5976,6.22905 L32.5976,1.77105 C32.5976,0.79305 31.8051,5e-05 30.8271,5e-05 L29.0136,5e-05 L29.0136,8.00005 L30.8271,8.00005 C31.8051,8.00005 32.5976,7.20705 32.5976,6.22905 L32.5976,6.22905 Z M32.0296,17.35905 L30.2831,18.18455 C29.4241,16.45205 29.0121,14.59405 29.0135959,12.75055 L29.0135959,12.75005 L29.0135959,12.74955 C29.0135959,12.66655 29.0281,12.50005 29.0206,12.50005 L29.0135959,12.75005 L29.0135959,9.43455 L30.8056,9.43455 C31.7956,9.43455 32.5976,10.21855 32.5976,11.18455 L32.5881,12.50005 C32.5856,12.58355 32.5881,12.66655 32.5881,12.75005 C32.5876,13.60205 32.7121,14.45305 32.9621,15.27955 C33.2116,16.10405 32.8221,16.98405 32.0296,17.35905 L32.0296,17.35905 Z M39.6311,21.28155 C38.7731,21.08005 37.9566,20.76005 37.2011,20.33355 C36.4451,19.90755 35.7526,19.37705 35.1451,18.75255 C34.5381,18.12905 33.5631,18.01855 32.8341,18.50155 L31.2291,19.56555 C32.3361,21.15805 33.7781,22.43555 35.4136,23.35605 L35.4141,23.35605 C35.4141,23.35655 35.4141,23.35655 35.4146,23.35655 C37.0481,24.27955 38.9021,24.86055 40.8681,25.00005 L41.0091,23.11055 C41.0731,22.25255 40.4876,21.48355 39.6311,21.28155 L39.6311,21.28155 Z M19.0126,18.75255 C18.4191,19.37705 17.7426,19.90755 17.0046,20.33355 C16.2671,20.76005 15.4691,21.08005 14.6316,21.28155 C13.7956,21.48355 13.2236,22.25255 13.2861,23.11055 L13.4236,25.00005 C15.3436,24.86055 17.1541,24.27955 18.7496,23.35655 C18.7501,23.35655 18.7501,23.35655 18.7501,23.35605 L18.7501,23.35605 C20.3476,22.43555 21.7556,21.15805 22.8366,19.56555 L21.2691,18.50155 C20.5576,18.01855 19.6051,18.12905 19.0126,18.75255 L19.0126,18.75255 Z M11.5766,5e-05 C9.6566,0.13955 7.8461,0.72055 6.2501,1.64355 L6.2501,1.64355 C6.2501,1.64405 6.2501,1.64405 6.2496,1.64405 C4.6526,2.56455 3.2441,3.84205 2.1631,5.43455 L3.7311,6.49855 C4.4426,6.98155 5.3946,6.87055 5.9871,6.24755 C6.5811,5.62305 7.2571,5.09255 7.9951,4.66655 C8.7326,4.24005 9.5306,3.92005 10.3686,3.71855 C11.2046,3.51655 11.7761,2.74755 11.7141,1.88955 L11.5766,5e-05 Z M10.3686,21.28155 C9.5306,21.08005 8.7326,20.76005 7.9951,20.33355 C7.2571,19.90755 6.5811,19.37705 5.9871,18.75255 C5.3946,18.12905 4.4426,18.01855 3.7311,18.50155 L2.1631,19.56555 C3.2441,21.15805 4.6526,22.43555 6.2496,23.35605 L6.2501,23.35605 C6.2501,23.35655 6.2501,23.35655 6.2501,23.35655 C7.8461,24.27955 9.6566,24.86055 11.5766,25.00005 L11.7141,23.11055 C11.7761,22.25255 11.2046,21.48355 10.3686,21.28155 L10.3686,21.28155 Z M14.6316,3.71855 C15.4691,3.92005 16.2671,4.24005 17.0046,4.66655 C17.7426,5.09255 18.4191,5.62305 19.0126,6.24755 C19.6051,6.87055 20.5576,6.98155 21.2691,6.49855 L22.8366,5.43455 C21.7556,3.84205 20.3476,2.56455 18.7501,1.64405 C18.7501,1.64405 18.7501,1.64405 18.7501,1.64355 L18.7496,1.64355 C17.1541,0.72055 15.3436,0.13955 13.4236,5e-05 L13.2861,1.88955 C13.2236,2.74755 13.7956,3.51655 14.6316,3.71855 L14.6316,3.71855 Z M3.8556,15.02955 C3.6116,14.20305 3.4896,13.35205 3.4906,12.50005 C3.4896,11.64805 3.6116,10.79705 3.8556,9.97055 C4.0991,9.14555 3.7191,8.26605 2.9451,7.89105 L1.2396,7.06555 C0.4006,8.79805 -0.0014,10.65655 9.5818059e-05,12.49955 L9.5818059e-05,12.50005 L9.5818059e-05,12.50055 C-0.0014,14.34355 0.4006,16.20205 1.2396,17.93455 L2.9451,17.10905 C3.7191,16.73405 4.0991,15.85405 3.8556,15.02955 L3.8556,15.02955 Z M64.0126,18.75255 C63.4191,19.37705 62.7426,19.90755 62.0046,20.33355 C61.2671,20.76005 60.4691,21.08005 59.6316,21.28155 C58.7956,21.48355 58.2236,22.25255 58.2861,23.11055 L58.4236,25.00005 C60.3436,24.86055 62.1541,24.27955 63.7496,23.35655 C63.7501,23.35655 63.7501,23.35655 63.7501,23.35605 L63.7501,23.35605 C65.3476,22.43555 66.7556,21.15805 67.8366,19.56555 L66.2691,18.50155 C65.5576,18.01855 64.6051,18.12905 64.0126,18.75255 L64.0126,18.75255 Z M56.5766,5e-05 C54.6561,0.13955 52.8461,0.72055 51.2501,1.64355 L51.2501,1.64355 C51.2501,1.64405 51.2501,1.64405 51.2496,1.64405 C49.6526,2.56455 48.2441,3.84205 47.1631,5.43455 L48.7311,6.49855 C49.4426,6.98155 50.3946,6.87055 50.9871,6.24755 C51.5811,5.62305 52.2571,5.09255 52.9951,4.66655 C53.7326,4.24005 54.5306,3.92005 55.3686,3.71855 C56.2046,3.51655 56.7761,2.74755 56.7141,1.88955 L56.5766,5e-05 Z M55.3686,21.28155 C54.5306,21.08005 53.7326,20.76005 52.9951,20.33355 C52.2571,19.90755 51.5811,19.37705 50.9871,18.75255 C50.3946,18.12905 49.4426,18.01855 48.7311,18.50155 L47.1631,19.56555 C48.2441,21.15805 49.6526,22.43555 51.2496,23.35605 L51.2501,23.35605 C51.2501,23.35655 51.2501,23.35655 51.2501,23.35655 C52.8461,24.27955 54.6561,24.86055 56.5766,25.00005 L56.7141,23.11055 C56.7761,22.25255 56.2046,21.48355 55.3686,21.28155 L55.3686,21.28155 Z M59.6316,3.71855 C60.4691,3.92005 61.2671,4.24005 62.0046,4.66655 C62.7426,5.09255 63.4191,5.62305 64.0126,6.24755 C64.6051,6.87055 65.5576,6.98155 66.2691,6.49855 L67.8366,5.43455 C66.7556,3.84205 65.3476,2.56455 63.7501,1.64405 C63.7501,1.64405 63.7501,1.64405 63.7501,1.64355 L63.7496,1.64355 C62.1541,0.72055 60.3436,0.13955 58.4236,5e-05 L58.2861,1.88955 C58.2236,2.74755 58.7956,3.51655 59.6316,3.71855 L59.6316,3.71855 Z M48.8556,15.02955 C48.6116,14.20305 48.4896,13.35205 48.4906,12.50005 C48.4896,11.64805 48.6116,10.79705 48.8556,9.97055 C49.0991,9.14555 48.7186,8.26605 47.9451,7.89105 L46.2396,7.06555 C45.4006,8.79805 44.9986,10.65655 45.0000958,12.49955 L45.0000958,12.50005 L45.0000958,12.50055 C44.9986,14.34355 45.4006,16.20205 46.2396,17.93455 L47.9451,17.10905 C48.7186,16.73405 49.0991,15.85405 48.8556,15.02955 L48.8556,15.02955 Z M70.0001042,12.50005 L70.0001042,12.50055 C70.0016,14.34355 69.5996,16.20205 68.7606,17.93455 L67.0551,17.10905 C66.2811,16.73405 65.9006,15.85405 66.1446,15.02955 C66.3886,14.20305 66.5101,13.35205 66.5096,12.50005 C66.5101,11.64805 66.3886,10.79705 66.1446,9.97055 C65.9006,9.14555 66.2811,8.26605 67.0551,7.89105 L68.7606,7.06555 C69.5996,8.79805 70.0016,10.65655 70.0001042,12.49955 L70.0001042,12.50005 Z" id="Fill-1"></path>
        </g>
        <path d="M34.7571317,45 L34.7571317,42.502008 L34.7812954,42.502008 C35.0632062,42.9277108 35.5867547,43.1767068 36.1264124,43.1767068 C37.3023828,43.1767068 38.0514599,42.2771084 38.0514599,41.1606426 C38.0514599,40.0361446 37.278219,39.1606426 36.1425215,39.1606426 C35.5142633,39.1606426 35.0148786,39.4578313 34.7651863,39.8594378 L34.7410225,39.8594378 L34.7410225,39.2650602 L34,39.2650602 L34,45 L34.7571317,45 Z M35.9975389,42.5421687 C35.224298,42.5421687 34.7088041,41.8995984 34.7088041,41.1686747 C34.7088041,40.437751 35.224298,39.7871486 35.9975389,39.7871486 C36.8271619,39.7871486 37.2701644,40.4457831 37.2701644,41.1606426 C37.2701644,41.875502 36.8271619,42.5421687 35.9975389,42.5421687 Z M40.9108401,43.1767068 C42.078756,43.1767068 42.9728158,42.3333333 42.9728158,41.1606426 C42.9728158,39.9879518 42.078756,39.1606426 40.9108401,39.1606426 C39.7429243,39.1606426 38.8569191,39.9879518 38.8569191,41.1606426 C38.8569191,42.3333333 39.7429243,43.1767068 40.9108401,43.1767068 Z M40.9108401,42.5421687 C40.0973263,42.5421687 39.6382146,41.8835341 39.6382146,41.1606426 C39.6382146,40.437751 40.0973263,39.7871486 40.9108401,39.7871486 C41.7324085,39.7871486 42.1834657,40.437751 42.1834657,41.1606426 C42.1834657,41.8835341 41.7324085,42.5421687 40.9108401,42.5421687 Z M45.5422307,43.0722892 L46.4765634,40.2128514 L46.4926726,40.2128514 L47.4350599,43.0722892 L48.2244099,43.0722892 L49.4889809,39.2650602 L48.6915762,39.2650602 L47.8297349,42.1726908 L47.8136257,42.1726908 L46.8873476,39.2650602 L46.0899429,39.2650602 L45.179774,42.1726908 L45.1636648,42.1726908 L44.3018235,39.2650602 L43.4802551,39.2650602 L44.7528806,43.0722892 L45.5422307,43.0722892 Z M52.0100682,43.1767068 C52.686654,43.1767068 53.2424209,42.9277108 53.6532051,42.3975904 L53.121602,41.9718876 C52.904128,42.2931727 52.5255621,42.5502008 52.0100682,42.5502008 C51.3415371,42.5502008 50.7938248,42.0441767 50.769661,41.3935743 L53.7981877,41.3935743 C53.8062423,41.3052209 53.8062423,41.2168675 53.8062423,41.1365462 C53.8062423,39.9236948 53.0974382,39.1606426 51.9697953,39.1606426 C50.850207,39.1606426 49.9964202,39.9879518 49.9964202,41.1767068 C49.9964202,42.373494 50.850207,43.1767068 52.0100682,43.1767068 Z M53.041056,40.8313253 L50.769661,40.8313253 C50.8179886,40.2369478 51.3173733,39.7550201 51.9697953,39.7550201 C52.6705448,39.7550201 53.0249469,40.2289157 53.041056,40.8313253 Z M55.6185256,43.0722892 L55.6185256,41.0722892 C55.6185256,40.437751 55.964873,39.8514056 56.6897863,39.8514056 C56.8106052,39.8514056 56.9394787,39.8674699 57.0361338,39.8915663 L57.0683522,39.1927711 C56.9797517,39.1686747 56.875042,39.1606426 56.7703323,39.1606426 C56.2548383,39.1606426 55.8118358,39.4658635 55.6024164,39.9076305 L55.5782526,39.9076305 C55.5782526,39.746988 55.5621434,39.4578313 55.5460342,39.2650602 L54.8291755,39.2650602 C54.8533393,39.5140562 54.8613939,39.8835341 54.8613939,40.0843373 L54.8613939,43.0722892 L55.6185256,43.0722892 Z M59.3961293,43.1767068 C60.0727151,43.1767068 60.6284819,42.9277108 61.0392661,42.3975904 L60.507663,41.9718876 C60.2901891,42.2931727 59.9116232,42.5502008 59.3961293,42.5502008 C58.7275982,42.5502008 58.1798859,42.0441767 58.1557221,41.3935743 L61.1842488,41.3935743 C61.1923034,41.3052209 61.1923034,41.2168675 61.1923034,41.1365462 C61.1923034,39.9236948 60.4834993,39.1606426 59.3558564,39.1606426 C58.236268,39.1606426 57.3824813,39.9879518 57.3824813,41.1767068 C57.3824813,42.373494 58.236268,43.1767068 59.3961293,43.1767068 Z M60.4271171,40.8313253 L58.1557221,40.8313253 C58.2040497,40.2369478 58.7034344,39.7550201 59.3558564,39.7550201 C60.0566059,39.7550201 60.4110079,40.2289157 60.4271171,40.8313253 Z M63.9147556,43.1767068 C64.4544132,43.1767068 65.0021255,42.9277108 65.2920908,42.4698795 L65.3082,42.4698795 L65.3082,43.0722892 L66.0411679,43.0722892 L66.0411679,37 L65.2840362,37 L65.2840362,39.8353414 L65.2679271,39.8353414 C65.0021255,39.4658635 64.5269046,39.1606426 63.906701,39.1606426 C62.7629489,39.1606426 61.989708,40.0361446 61.989708,41.1606426 C61.989708,42.2771084 62.7387851,43.1767068 63.9147556,43.1767068 Z M64.043629,42.5421687 C63.214006,42.5421687 62.7790581,41.875502 62.7790581,41.1606426 C62.7790581,40.4457831 63.214006,39.7871486 64.043629,39.7871486 C64.8168699,39.7871486 65.3323638,40.437751 65.3323638,41.1686747 C65.3323638,41.8995984 64.8168699,42.5421687 64.043629,42.5421687 Z M71.5182906,43.1767068 C72.6942611,43.1767068 73.4433382,42.2771084 73.4433382,41.1606426 C73.4433382,40.0361446 72.6700973,39.1606426 71.5343998,39.1606426 C70.9061416,39.1606426 70.4309207,39.4658635 70.1731737,39.8353414 L70.14901,39.8353414 L70.14901,37 L69.3918783,37 L69.3918783,43.0722892 L70.1248462,43.0722892 L70.1248462,42.4698795 L70.1409554,42.4698795 C70.4389753,42.9277108 70.978633,43.1767068 71.5182906,43.1767068 Z M71.3894172,42.5421687 C70.6161763,42.5421687 70.1006824,41.8995984 70.1006824,41.1686747 C70.1006824,40.437751 70.6161763,39.7871486 71.3894172,39.7871486 C72.2190402,39.7871486 72.6620427,40.4457831 72.6620427,41.1606426 C72.6620427,41.875502 72.2190402,42.5421687 71.3894172,42.5421687 Z M74.651527,45 C75.4006041,45 75.7227878,44.6064257 75.9724801,43.9718876 L77.8250364,39.2650602 L77.0195771,39.2650602 L75.9644256,42.253012 L75.9483164,42.253012 L74.7642913,39.2650602 L73.9185591,39.2650602 L75.5536413,43.0722892 L75.3120036,43.7068273 C75.1509117,44.1164659 74.9978745,44.3413655 74.6031995,44.3413655 C74.4823806,44.3413655 74.3454525,44.3172691 74.2246336,44.2771084 L74.1521423,44.9437751 C74.3212887,44.9839357 74.4904352,45 74.651527,45 Z M83.3665958,43.2168675 C84.2042734,43.2168675 84.9130775,43.0401606 85.5091174,42.7188755 L85.5091174,39.9638554 L83.4551963,39.9638554 L83.4551963,40.6385542 L84.7197673,40.6385542 L84.7197673,42.2208835 C84.389529,42.3975904 83.9223627,42.502008 83.3907596,42.502008 C82.0295335,42.502008 81.1918559,41.4899598 81.1918559,40.2208835 C81.1918559,38.9759036 82.0295335,37.939759 83.3665958,37.939759 C84.0190178,37.939759 84.5747847,38.188755 84.9130775,38.5582329 L85.4688444,37.9799197 C85.001678,37.5301205 84.2606556,37.2409639 83.3585412,37.2409639 C81.6268039,37.2409639 80.32196,38.4457831 80.32196,40.2208835 C80.32196,41.9718876 81.5865309,43.2168675 83.3665958,43.2168675 Z M88.6423537,43.1767068 C89.8102696,43.1767068 90.7043293,42.3333333 90.7043293,41.1606426 C90.7043293,39.9879518 89.8102696,39.1606426 88.6423537,39.1606426 C87.4744379,39.1606426 86.5884327,39.9879518 86.5884327,41.1606426 C86.5884327,42.3333333 87.4744379,43.1767068 88.6423537,43.1767068 Z M88.6423537,42.5421687 C87.8288399,42.5421687 87.3697282,41.8835341 87.3697282,41.1606426 C87.3697282,40.437751 87.8288399,39.7871486 88.6423537,39.7871486 C89.4639221,39.7871486 89.9149793,40.437751 89.9149793,41.1606426 C89.9149793,41.8835341 89.4639221,42.5421687 88.6423537,42.5421687 Z M94.0469851,43.0722892 L96.2861618,37.3855422 L95.4243204,37.3855422 L93.7086922,42.0441767 L93.6845285,42.0441767 L91.9689003,37.3855422 L91.0828952,37.3855422 L93.3059626,43.0722892 L94.0469851,43.0722892 Z M97.1641123,38.373494 C97.4379685,38.373494 97.6715516,38.1646586 97.6715516,37.8915663 C97.6715516,37.6104418 97.4379685,37.4016064 97.1641123,37.4016064 C96.8902562,37.4016064 96.6647276,37.6184739 96.6647276,37.8915663 C96.6647276,38.1566265 96.8902562,38.373494 97.1641123,38.373494 Z M97.5426782,43.0722892 L97.5426782,39.2650602 L96.7855465,39.2650602 L96.7855465,43.0722892 L97.5426782,43.0722892 Z M99.9590558,43.1767068 C100.732297,43.1767068 101.481374,42.8473896 101.481374,41.9477912 C101.481374,41.2811245 100.925607,40.9839357 100.200694,40.8232932 C99.6207629,40.6947791 99.3307976,40.5742972 99.3307976,40.253012 C99.3307976,39.8915663 99.6932543,39.7550201 100.039602,39.7550201 C100.426222,39.7550201 100.75646,39.9558233 100.925607,40.2289157 L101.449155,39.7871486 C101.175299,39.37751 100.603423,39.1606426 100.063766,39.1606426 C99.3388522,39.1606426 98.6219935,39.5060241 98.6219935,40.3253012 C98.6219935,41.0401606 99.2260879,41.2570281 99.7335272,41.37751 C100.385949,41.5301205 100.732297,41.6586345 100.732297,42.0120482 C100.732297,42.4297189 100.353731,42.5662651 99.975165,42.5662651 C99.5482716,42.5662651 99.1616512,42.3333333 98.9602864,42.0361446 L98.4206287,42.4939759 C98.7830854,42.9518072 99.3791252,43.1767068 99.9590558,43.1767068 Z M104.203826,43.1767068 C104.880412,43.1767068 105.436179,42.9277108 105.846963,42.3975904 L105.31536,41.9718876 C105.097886,42.2931727 104.71932,42.5502008 104.203826,42.5502008 C103.535295,42.5502008 102.987583,42.0441767 102.963419,41.3935743 L105.991945,41.3935743 C106,41.3052209 106,41.2168675 106,41.1365462 C106,39.9236948 105.291196,39.1606426 104.163553,39.1606426 C103.043965,39.1606426 102.190178,39.9879518 102.190178,41.1767068 C102.190178,42.373494 103.043965,43.1767068 104.203826,43.1767068 Z M105.234814,40.8313253 L102.963419,40.8313253 C103.011746,40.2369478 103.511131,39.7550201 104.163553,39.7550201 C104.864302,39.7550201 105.218705,40.2289157 105.234814,40.8313253 Z" id="poweredbyGoVise" fill="#E5E6EB" fill-rule="nonzero"></path>
    </g>
</svg>