<?xml version="1.0" encoding="UTF-8"?>
<svg width="140px" height="20px" viewBox="0 0 140 20" version="1.1" xmlns="http://www.w3.org/2000/svg" xmlns:xlink="http://www.w3.org/1999/xlink">
    <title>img_bi_black_centricPLM</title>
    <g id="img_bi_black_centricPLM" stroke="none" stroke-width="1" fill="none" fill-rule="evenodd">
        <rect id="Rectangle" fill-rule="nonzero" x="0" y="0" width="140" height="20"></rect>
        <path d="M121,13.7173428 L120.88598,13.7173428 L120.863093,13.3179027 C120.856475,13.1908082 120.848478,13.0383501 120.849719,12.9251154 L120.845859,12.9251154 C120.814975,13.0316974 120.777336,13.1450708 120.731838,13.2706407 L120.571769,13.7119375 L120.483255,13.7119375 L120.336558,13.278818 C120.294094,13.1504761 120.257558,13.0329448 120.232051,12.9251154 L120.22957,12.9251154 C120.226812,13.0383501 120.220194,13.1908082 120.211922,13.3273274 L120.187794,13.7173428 L120.076256,13.7173428 L120.139539,12.8075841 L120.288579,12.8075841 L120.443134,13.2476334 C120.480084,13.3596208 120.511518,13.4595501 120.534129,13.5539355 L120.538128,13.5539355 C120.561015,13.4621835 120.593001,13.3623928 120.633811,13.2476334 L120.79457,12.8075841 L120.943748,12.8075841 L121,13.7173428 Z M119.330229,12.8075841 L120.00015,12.8075841 L120.00015,12.9075134 L119.723578,12.9075134 L119.723578,13.7173428 L119.605422,13.7173428 L119.605422,12.9075134 L119.330229,12.9075134 L119.330229,12.8075841 Z M113.601634,16.0394173 C113.616524,15.6851603 113.686564,15.3591773 113.811752,15.0613297 C113.936526,14.7633435 114.101283,14.5055509 114.305197,14.2868429 C114.509937,14.0682735 114.748042,13.8966889 115.020754,13.7722277 C115.293465,13.6480437 115.59251,13.5858131 115.918165,13.5858131 C116.274151,13.5858131 116.589879,13.655528 116.866175,13.7950964 C117.142471,13.9343876 117.373407,14.1190004 117.558983,14.3489349 C117.744559,14.5790079 117.88836,14.8408199 117.990799,15.1347868 C118.092549,15.4287536 118.15142,15.7304819 118.166448,16.0394173 L113.601634,16.0394173 Z M117.889739,14.165015 C117.667626,13.884908 117.394501,13.6596859 117.070777,13.4892101 C116.746501,13.3188729 116.369972,13.2334964 115.940776,13.2334964 C115.548943,13.2334964 115.187441,13.3094482 114.855859,13.4607975 C114.524551,13.6124239 114.235985,13.8225388 113.991261,14.0912808 C113.7464,14.3598841 113.55655,14.6742249 113.420746,15.0340259 C113.285079,15.3938268 113.217384,15.7855054 113.217384,16.2096159 L113.217384,16.2324847 C113.217384,16.686671 113.2928,17.0996937 113.44377,17.4705825 C113.594741,17.8414714 113.798654,18.1576139 114.05551,18.4188715 C114.312228,18.6801292 114.612238,18.8812352 114.955954,19.0212194 C115.299394,19.1613422 115.663515,19.2311957 116.048868,19.2311957 C116.569473,19.2311957 117.02266,19.1175451 117.407737,18.8903827 C117.792539,18.663636 118.117504,18.3790938 118.381253,18.038558 L118.110059,17.8224834 C117.882845,18.1178362 117.595243,18.368006 117.246978,18.5722998 C116.898713,18.7770093 116.501365,18.8792948 116.054658,18.8792948 C115.736725,18.8792948 115.431613,18.8205292 115.140289,18.7039681 C114.848551,18.5872684 114.593488,18.4212277 114.373995,18.2061233 C114.154364,17.9914346 113.974441,17.7278208 113.834363,17.414866 C113.694284,17.1019113 113.616524,16.7531982 113.601634,16.3685881 L118.550836,16.3685881 L118.550836,16.2438497 C118.550836,15.8574379 118.495963,15.4847473 118.387044,15.1249463 C118.277436,14.7654225 118.111989,14.445122 117.889739,14.165015 L117.889739,14.165015 Z M112.319146,13.3982897 C112.579173,13.2960042 112.85933,13.2490194 113.160856,13.2562265 L113.160856,13.6311347 L113.104053,13.6311347 C112.757718,13.6311347 112.441301,13.7087497 112.155354,13.8641183 C111.868855,14.0193483 111.620271,14.2237807 111.409327,14.4774154 C111.198244,14.7313274 111.034452,15.0226608 110.91795,15.3519702 C110.801172,15.6815567 110.742576,16.0243101 110.742576,16.3799532 L110.742576,19.094815 L110.380937,19.094815 L110.380937,13.3698771 L110.742576,13.3698771 L110.742576,15.1191252 C110.825713,14.8771327 110.942491,14.6420701 111.093048,14.4149076 C111.243604,14.1877451 111.42077,13.9871935 111.624132,13.8129756 C111.827493,13.6387576 112.059257,13.5004366 112.319146,13.3982897 L112.319146,13.3982897 Z M108.607348,16.9784203 C108.607348,17.234827 108.547098,17.4779282 108.426597,17.7080013 C108.305959,17.9380743 108.140099,18.1400119 107.92943,18.3132597 C107.718347,18.4870619 107.467833,18.6245513 107.178163,18.726421 C106.88808,18.8284293 106.569595,18.8792948 106.222984,18.8792948 C105.989566,18.8792948 105.763318,18.8489418 105.545066,18.7883744 C105.326676,18.7282228 105.13462,18.6375795 104.968898,18.5168605 C104.803037,18.3961414 104.671231,18.2472869 104.57348,18.0698812 C104.475453,17.8931685 104.426508,17.6872115 104.426508,17.4532578 L104.426508,17.4308048 C104.426508,17.196851 104.479037,16.9877063 104.584648,16.8028163 C104.69012,16.6182035 104.835299,16.4635279 105.01991,16.3389281 C105.204246,16.2144669 105.426496,16.1200815 105.686523,16.0559105 C105.946274,15.9917395 106.234565,15.9597234 106.550569,15.9597234 C106.979903,15.9597234 107.360293,15.9897992 107.692289,16.0503666 C108.023321,16.1107954 108.328432,16.1860542 108.607348,16.2766975 L108.607348,16.9784203 Z M108.392681,13.9037574 C107.978374,13.4874084 107.375872,13.2790952 106.584899,13.2790952 C106.200511,13.2790952 105.848385,13.32608 105.528246,13.4200496 C105.20783,13.513742 104.889759,13.637233 104.57348,13.7902455 L104.709008,14.1083284 C104.995369,13.9644634 105.286969,13.8488725 105.584497,13.7618328 C105.882164,13.6747931 106.208094,13.6311347 106.56215,13.6311347 C107.202291,13.6311347 107.701527,13.7895525 108.059581,14.1058336 C108.416946,14.4222533 108.596042,14.9041593 108.596042,15.552106 L108.596042,15.9363003 C108.317264,15.8423307 108.008293,15.7641613 107.66954,15.7015149 C107.330374,15.6391457 106.961428,15.6078225 106.56215,15.6078225 C106.200511,15.6078225 105.865068,15.6474616 105.556509,15.7272941 C105.247538,15.8074039 104.981995,15.9249352 104.760021,16.080581 C104.537633,16.2362268 104.362259,16.4299871 104.234176,16.6617233 C104.106093,16.8937367 104.042258,17.1573506 104.042258,17.4535349 L104.042258,17.4765423 C104.042258,17.7651037 104.102232,18.0198473 104.223146,18.2399412 C104.343509,18.4603124 104.505371,18.6443708 104.709008,18.7923937 C104.912232,18.9408324 105.143858,19.0508794 105.403885,19.1232277 C105.663774,19.1951602 105.929454,19.2311957 106.200511,19.2311957 C106.531956,19.2311957 106.827692,19.191418 107.087581,19.1118626 C107.347471,19.0323072 107.577166,18.9283586 107.776667,18.7994622 C107.976306,18.6708431 108.143959,18.5290571 108.279763,18.3736885 C108.415292,18.2185971 108.520626,18.0612881 108.596042,17.9020388 L108.596042,19.094815 L108.957543,19.094815 L108.957543,15.5279899 C108.957543,15.1722083 108.908599,14.8599465 108.810847,14.5909274 C108.71282,14.322324 108.573155,14.0930826 108.392681,13.9037574 L108.392681,13.9037574 Z M103.330423,13.3698771 L103.703092,13.3698771 L101.680643,19.1402753 L101.375394,19.1402753 L99.5900854,13.9151225 L97.7936092,19.1402753 L97.4882221,19.1402753 L95.4546055,13.3698771 L95.8610531,13.3698771 L97.6464995,18.61776 L99.4431135,13.3357819 L99.7371951,13.3357819 L101.533671,18.61776 L103.330423,13.3698771 Z M92.9119645,13.3700157 L94.9799112,13.3700157 L94.9799112,13.6994636 L92.9119645,13.6994636 L92.9119645,17.587005 C92.9119645,18.0104226 93.0155066,18.3257335 93.2227287,18.5330765 C93.4300886,18.741251 93.7218264,18.8451997 94.0986314,18.8451997 C94.3771335,18.8451997 94.6634943,18.7807515 94.9571623,18.6519937 L94.9571623,19.0041718 C94.6934125,19.1323752 94.3958841,19.1971005 94.0647148,19.1971005 C93.6051864,19.1971005 93.2378946,19.0666796 92.9628394,18.805422 C92.687922,18.5441643 92.5501875,18.1522086 92.5501875,17.6298319 L92.5501875,13.6994636 L91.6803512,13.6994636 L91.6803512,13.699325 L89.7029866,13.699325 L89.7029866,19.094815 L89.3413475,19.094815 L89.3413475,13.699325 L88.4710975,13.699325 L88.4710975,13.3698771 L89.3413475,13.3698771 L89.3413475,12.6544331 C89.3413475,11.9880528 89.5033475,11.4996327 89.8270716,11.1888955 C90.1057116,10.9087885 90.4786562,10.7686657 90.9459054,10.7686657 C91.119073,10.7686657 91.2696296,10.7819711 91.3979887,10.8084434 C91.5257963,10.8350543 91.6501571,10.8709512 91.7707954,10.9162728 L91.7707954,11.2685895 C91.5220738,11.1701848 91.2470185,11.1208438 90.9459054,11.1208438 C90.5466272,11.1208438 90.2397234,11.2457208 90.0251941,11.495752 C89.8099755,11.745506 89.7029866,12.1431442 89.7029866,12.688251 L89.7029866,13.3698771 L91.7483222,13.3698771 L91.7483222,13.3700157 L92.5501875,13.3700157 L92.5501875,11.4502917 L92.9119645,11.4502917 L92.9119645,13.3700157 Z M87.4544271,16.2438497 C87.4544271,16.6060068 87.391971,16.9451567 87.2676101,17.2618536 C87.1428357,17.5785505 86.9671864,17.8574102 86.7412137,18.0985711 C86.5144137,18.3401477 86.2445976,18.5304431 85.9312139,18.6697343 C85.617968,18.8091641 85.27246,18.8792948 84.8951035,18.8792948 C84.5250542,18.8792948 84.1834067,18.8091641 83.8701608,18.6697343 C83.5566392,18.5304431 83.2848928,18.3401477 83.054784,18.0985711 C82.8246751,17.8574102 82.6453032,17.5785505 82.5169441,17.2618536 C82.3881714,16.9451567 82.3241986,16.6060068 82.3241986,16.2438497 L82.3241986,16.220981 C82.3241986,15.8591011 82.3866548,15.5198126 82.5112913,15.2032543 C82.6356522,14.886696 82.8093713,14.6075591 83.0321729,14.3662596 C83.2549746,14.1249602 83.5227226,13.9343876 83.8362442,13.7950964 C84.1494901,13.655528 84.4948602,13.5858131 84.8726303,13.5858131 C85.242266,13.5858131 85.5859816,13.655528 85.9029501,13.7950964 C86.2200564,13.9343876 86.493595,14.1249602 86.7243933,14.3662596 C86.9542264,14.6075591 87.1333225,14.886696 87.2618195,15.2032543 C87.3903165,15.5198126 87.4544271,15.8591011 87.4544271,16.220981 L87.4544271,16.2438497 Z M87.0195779,14.1195548 C86.7596886,13.8470707 86.450441,13.6311347 86.0928002,13.4720239 C85.7350216,13.3130518 85.3375357,13.2334964 84.9007563,13.2334964 C84.4635632,13.2334964 84.0626305,13.3151308 83.6974068,13.4777065 C83.3320452,13.6408366 83.0192129,13.8582972 82.7594615,14.1310585 C82.4997101,14.4036812 82.297865,14.7214869 82.1550293,15.08503 C82.01178,15.4484345 81.9403621,15.8311042 81.9403621,16.2324847 L81.9403621,16.2552148 C81.9403621,16.6565952 82.01178,17.0369087 82.1550293,17.3967097 C82.297865,17.7565107 82.4997101,18.0726532 82.7594615,18.3452759 C83.0192129,18.61776 83.330115,18.8335574 83.6918919,18.9928068 C84.0533931,19.1516403 84.4523955,19.2311957 84.8893129,19.2311957 C85.3263681,19.2311957 85.7255084,19.1494227 86.0870096,18.986847 C86.4486486,18.8241327 86.7596886,18.6066721 87.0195779,18.3339108 C87.2793293,18.0612881 87.4808986,17.7434824 87.6238722,17.3799393 C87.7668458,17.016119 87.8388151,16.6341423 87.8388151,16.2324847 L87.8388151,16.2096159 C87.8388151,15.8085127 87.7668458,15.427922 87.6238722,15.0682596 C87.4808986,14.7084586 87.2793293,14.3921775 87.0195779,14.1195548 L87.0195779,14.1195548 Z M80.9627096,16.300675 C81.0570143,16.5203531 81.1040287,16.7699685 81.1040287,17.0502141 L81.1040287,17.0729442 C81.1040287,17.3757813 81.0399181,17.6582445 80.9116968,17.9193636 C80.7836135,18.180344 80.6050688,18.4077837 80.3755114,18.6007124 C80.1456783,18.7940569 79.8667626,18.9434658 79.5389023,19.0493548 C79.2113177,19.1553825 78.8440259,19.2084656 78.4371647,19.2084656 C77.8194968,19.2084656 77.2525658,19.1007748 76.7369234,18.8847001 C76.2205916,18.6687641 75.7366598,18.3530374 75.2847144,17.9364111 L75.5444658,17.6522848 C75.9662172,18.0536652 76.4126478,18.3547006 76.8837574,18.5552522 C77.3543156,18.7559424 77.879747,18.8562875 78.4599136,18.8562875 C78.7988038,18.8562875 79.1077756,18.8127677 79.3865534,18.7255894 C79.6650555,18.6386883 79.9044018,18.5157517 80.103903,18.3566409 C80.30368,18.1976688 80.4561667,18.0119472 80.5616391,17.8000305 C80.6666978,17.5881138 80.7199165,17.356932 80.7199165,17.1073166 L80.7199165,17.0843093 C80.7199165,16.8496625 80.6821395,16.641488 80.606999,16.4595085 C80.5315829,16.2778063 80.4012936,16.1152306 80.2168204,15.971227 C80.0322094,15.8273621 79.7818333,15.6966639 79.4655542,15.5792713 C79.1491373,15.46174 78.7537195,15.3540491 78.2790252,15.2556444 C77.7971615,15.1571011 77.3845096,15.0435891 77.0417591,14.9148314 C76.6991464,14.7860737 76.4203686,14.636249 76.2055636,14.4660504 C75.9908964,14.2957132 75.8342734,14.0987651 75.7366598,13.8753448 C75.6387705,13.652063 75.5899637,13.3964879 75.5899637,13.1084808 L75.5899637,13.0858893 C75.5899637,12.798298 75.6537986,12.5312192 75.7820198,12.2850688 C75.9101032,12.0391956 76.0871312,11.8214578 76.3129661,11.631994 C76.5389388,11.4428074 76.8101336,11.2950617 77.1265506,11.1888955 C77.4431054,11.0830065 77.7855802,11.0299234 78.1548022,11.0299234 C78.697054,11.0299234 79.1869143,11.1112805 79.6238316,11.2741334 C80.0604732,11.4371249 80.4674723,11.6659506 80.8441394,11.9613034 L80.606999,12.2680212 C79.868555,11.6774542 79.0438028,11.3819628 78.1321912,11.3819628 C77.8083291,11.3819628 77.5124551,11.4275616 77.2455344,11.5183435 C76.9775106,11.6092639 76.7497455,11.7303987 76.5615498,11.8818866 C76.3732163,12.033513 76.2281746,12.211196 76.1264248,12.4156283 C76.024813,12.6200607 75.9738002,12.8323932 75.9738002,13.0517942 L75.9738002,13.0746629 C75.9738002,13.3016867 76.0115772,13.5063963 76.0871312,13.6880986 C76.1622716,13.8698008 76.2940776,14.0344555 76.4824111,14.1822012 C76.6706068,14.3296697 76.9213966,14.4621696 77.2338152,14.5797009 C77.5463717,14.6972322 77.9437197,14.8050616 78.4261349,14.9034663 C78.9155816,15.0020097 79.331956,15.117462 79.6747065,15.2498233 C80.0173192,15.3826004 80.2940289,15.5356128 80.5052493,15.7096922 C80.7159182,15.8840487 80.8686807,16.0811354 80.9627096,16.300675 L80.9627096,16.300675 Z M74.1662943,17.572868 L74.7198516,18.0953833 C74.4260457,18.4285734 74.0928083,18.7014733 73.7198637,18.9128356 C73.3469192,19.1251681 72.8854606,19.2311957 72.3356258,19.2311957 C71.9064293,19.2311957 71.5088056,19.1494227 71.143444,18.986847 C70.7780824,18.8241327 70.4616654,18.6045931 70.194331,18.3285055 C69.9269966,18.0520021 69.7177065,17.7282366 69.5671499,17.356932 C69.4164555,16.9860432 69.3411772,16.5961664 69.3411772,16.1868858 L69.3411772,16.1641557 C69.3411772,15.7478067 69.4164555,15.3540491 69.5671499,14.9826059 C69.7177065,14.6121329 69.9269966,14.2861499 70.194331,14.0060429 C70.4616654,13.7259359 70.7780824,13.5044559 71.143444,13.341603 C71.5088056,13.1786115 71.9064293,13.097393 72.3356258,13.097393 C72.6144036,13.097393 72.866572,13.124281 73.0926826,13.1779185 C73.3186553,13.2318332 73.5256017,13.3066763 73.714211,13.4027248 C73.9022688,13.498912 74.0757122,13.6121467 74.2338517,13.7424291 C74.3921291,13.8727114 74.5392389,14.0099236 74.6747673,14.1537886 L74.0983232,14.7670857 C73.8649054,14.5249546 73.6103931,14.3166415 73.3354758,14.1421463 C73.0605584,13.9682056 72.7235985,13.8810273 72.3244581,13.8810273 C72.0302386,13.8810273 71.7554591,13.9396543 71.4995681,14.0567698 C71.2432635,14.1738853 71.0211512,14.3345207 70.8329555,14.53826 C70.6444841,14.7424152 70.4975122,14.9821901 70.3920399,15.2580006 C70.2865676,15.5335338 70.2337625,15.830134 70.2337625,16.1471081 L70.2337625,16.1701155 C70.2337625,16.4870896 70.2886357,16.7838284 70.3976927,17.0596388 C70.5068875,17.3353107 70.6574441,17.577026 70.849776,17.7846461 C71.0415563,17.9922662 71.2695971,18.1547033 71.5334847,18.2718188 C71.7968208,18.3890729 72.0795969,18.4472842 72.38071,18.4472842 C72.7575151,18.4472842 73.0907524,18.3641252 73.3808357,18.1976688 C73.6707812,18.0312123 73.9326007,17.8224834 74.1662943,17.572868 L74.1662943,17.572868 Z M67.3187283,11.9387119 L68.3133391,11.9387119 L68.3133391,10.9732367 L67.3187283,10.9732367 L67.3187283,11.9387119 Z M67.3753938,19.0950922 L68.2453681,19.0950922 L68.2453681,13.2224086 L67.3753938,13.2224086 L67.3753938,19.0950922 Z M66.5390604,13.1199845 L66.5390604,14.0627296 L66.4709515,14.0627296 C66.1548103,14.0627296 65.8553517,14.1195548 65.5729892,14.2332054 C65.290351,14.3468559 65.0436974,14.5171931 64.8327528,14.7443556 C64.6218082,14.9715181 64.4559478,15.2517637 64.3357231,15.5849538 C64.214947,15.9182825 64.1548347,16.3080207 64.1548347,16.7551385 L64.1548347,19.094815 L63.2847225,19.094815 L63.2847225,13.22227 L64.1548347,13.22227 L64.1548347,14.755582 C64.260307,14.5135896 64.391975,14.2900306 64.5502524,14.0854597 C64.7082541,13.8811659 64.8890047,13.7050076 65.0925042,13.5574005 C65.2960037,13.4095162 65.518116,13.2961428 65.7593926,13.2164488 C66.0005312,13.1370321 66.2602826,13.1050159 66.5390604,13.1199845 L66.5390604,13.1199845 Z M60.459719,13.22227 L62.3131364,13.22227 L62.3131364,14.0060429 L60.459719,14.0060429 L60.459719,17.4364874 C60.459719,17.8000305 60.5501632,18.0536652 60.7310517,18.1976688 C60.9118023,18.3413951 61.1490805,18.4134662 61.4428864,18.4134662 C61.5935808,18.4134662 61.7348999,18.3975274 61.8667059,18.3655112 C61.998236,18.3336336 62.139693,18.2775014 62.2903875,18.1976688 L62.2903875,18.9472079 C62.139693,19.0306441 61.9797612,19.0931519 61.8100403,19.1345927 C61.6405953,19.1763108 61.4504694,19.1971005 61.2396626,19.1971005 C61.0059691,19.1971005 60.7874415,19.1667475 60.5842177,19.1064573 C60.3805803,19.0463057 60.2056203,18.9497027 60.0587863,18.8176186 C59.9118144,18.6852573 59.7968289,18.5135341 59.7141056,18.3016174 C59.6311064,18.0902552 59.5898826,17.8371748 59.5898826,17.5423764 L59.5898826,14.0060429 L58.7761603,14.0060429 L58.7761603,13.22227 L59.5898826,13.22227 L59.5898826,11.4502917 L60.459719,11.4502917 L60.459719,13.22227 Z M57.8442813,14.494463 C57.9458932,14.7823315 57.9966302,15.1004144 57.9966302,15.4487117 L57.9966302,19.094815 L57.126656,19.094815 L57.126656,15.6568863 C57.126656,15.1105321 56.9871292,14.6781056 56.7084893,14.3593297 C56.4295736,14.0404152 56.0305712,13.8811659 55.5106547,13.8811659 C55.2620709,13.8811659 55.0304454,13.9246857 54.8157783,14.0121412 C54.6009732,14.0993195 54.4145699,14.2244737 54.2564303,14.3876038 C54.0982908,14.5510111 53.9757223,14.7465732 53.8892764,14.9740128 C53.8025547,15.2018683 53.7592628,15.4523153 53.7592628,15.7253538 L53.7592628,19.094815 L52.8891507,19.094815 L52.8891507,13.22227 L53.7592628,13.22227 L53.7592628,14.2444318 C53.9550415,13.9266261 54.2112082,13.6558052 54.5276251,13.4325235 C54.8440421,13.2091031 55.2544879,13.097393 55.7595142,13.097393 C56.1132945,13.097393 56.4277813,13.1540796 56.7026986,13.2675916 C56.9777539,13.3812421 57.2113096,13.5422932 57.4033657,13.7503292 C57.5955597,13.9589195 57.7425316,14.2065945 57.8442813,14.494463 L57.8442813,14.494463 Z M47.2845036,15.8119777 C47.3145597,15.5243864 47.3843231,15.2611883 47.4936558,15.0226608 C47.6027128,14.7839947 47.7401715,14.5758202 47.9060319,14.3979986 C48.0717544,14.2200385 48.2636727,14.0815789 48.4823382,13.9833128 C48.7007279,13.8847694 48.9344214,13.8355671 49.1830052,13.8355671 C49.469366,13.8355671 49.7233268,13.8886502 49.9458527,13.9946778 C50.1676892,14.1008441 50.3560228,14.2445704 50.5108534,14.4264113 C50.6649946,14.6078363 50.7874252,14.818367 50.8778695,15.056756 C50.9683137,15.2952835 51.0248413,15.5472551 51.0471767,15.8119777 L47.2845036,15.8119777 Z M51.228203,14.0060429 C50.9946473,13.7259359 50.7082865,13.5045945 50.3693964,13.3414644 C50.0303684,13.1787501 49.6462562,13.0972544 49.2167839,13.0972544 C48.8100606,13.0972544 48.4351858,13.1768097 48.0924353,13.3357819 C47.7496847,13.4948927 47.4540865,13.7124919 47.2055027,13.9888567 C46.9567811,14.2653601 46.7629326,14.5909274 46.6235437,14.9659741 C46.484017,15.3407437 46.4145293,15.7401838 46.4145293,16.1641557 C46.4145293,16.6184807 46.4915999,17.0349683 46.6462927,17.4134801 C46.8004339,17.7924076 47.0094483,18.116173 47.2733359,18.3850536 C47.5369478,18.6537955 47.8457817,18.86197 48.1999757,19.0098543 C48.5538939,19.1576 48.9304231,19.2311957 49.3298392,19.2311957 C49.8872569,19.2311957 50.3543683,19.1308506 50.7310355,18.9301604 C51.1074269,18.7296087 51.443008,18.4626686 51.7365382,18.1294785 L51.1942864,17.6409197 C50.9531477,17.8909509 50.6876057,18.0916411 50.3976602,18.243129 C50.1075769,18.3944782 49.7591736,18.4702915 49.3524503,18.4702915 C49.0962835,18.4702915 48.8512844,18.4267716 48.6180045,18.3395934 C48.3843109,18.2526923 48.1735042,18.1254591 47.9851706,17.9590026 C47.7969749,17.7924076 47.6424201,17.5881138 47.5219197,17.3455669 C47.4012814,17.1035744 47.3260031,16.827071 47.2958091,16.5163338 L51.9288701,16.5163338 C51.9361773,16.4482821 51.9400377,16.3915954 51.9400377,16.3461352 L51.9400377,16.2096159 C51.9400377,15.7780211 51.8796496,15.3727599 51.7591492,14.9943868 C51.6387867,14.6157364 51.4616208,14.2861499 51.228203,14.0060429 L51.228203,14.0060429 Z M45.4426674,17.2547851 L46.0302792,17.8341257 C45.8269175,18.0460423 45.6139048,18.2371693 45.3920683,18.4077837 C45.1695424,18.5777051 44.9322641,18.7239262 44.6799578,18.8451997 C44.4276515,18.9664731 44.1527341,19.0609971 43.8552057,19.1289102 C43.5574015,19.1971005 43.2280246,19.2311957 42.8665234,19.2311957 C42.2938018,19.2311957 41.7665781,19.1251681 41.2845765,18.9128356 C40.8021614,18.7014733 40.3842704,18.4115258 40.0302143,18.0442406 C39.6760204,17.6768167 39.3991728,17.24342 39.1998094,16.7434963 C38.9998946,16.2438497 38.9002129,15.7096922 38.9002129,15.1417167 L38.9002129,15.1191252 C38.9002129,14.5587726 38.9998946,14.028773 39.1998094,13.5289878 C39.3991728,13.029064 39.6760204,12.5917867 40.0302143,12.2170171 C40.3842704,11.8421089 40.8060218,11.5467561 41.2957442,11.3309587 C41.7854666,11.1150227 42.3202733,11.0071932 42.90044,11.0071932 C43.2619412,11.0071932 43.5877334,11.0376849 43.8778168,11.0981137 C44.1677622,11.1588197 44.4371647,11.243919 44.6857485,11.3535502 C44.9343322,11.4635972 45.1640275,11.5960971 45.3749721,11.7511885 C45.5857789,11.9065571 45.7891405,12.0788347 45.9851949,12.2680212 L45.3749721,12.9267786 C45.0359441,12.6088343 44.6723749,12.3475766 44.2845401,12.1432828 C43.8962916,11.9387119 43.4315241,11.8364264 42.8891344,11.8364264 C42.4520792,11.8364264 42.0471483,11.9198625 41.6743416,12.086319 C41.301397,12.2530526 40.9773971,12.4840959 40.7026175,12.7791715 C40.4274244,13.0746629 40.2127572,13.4210198 40.0584781,13.8186581 C39.9039233,14.2161578 39.8268527,14.6420701 39.8268527,15.0966723 L39.8268527,15.1191252 C39.8268527,15.581073 39.9039233,16.0110047 40.0584781,16.408643 C40.2127572,16.8060041 40.4274244,17.1522224 40.7026175,17.4478524 C40.9773971,17.7434824 41.301397,17.9760502 41.6743416,18.1462488 C42.0471483,18.316586 42.4520792,18.4021011 42.8891344,18.4021011 C43.4315241,18.4021011 43.8983597,18.3016174 44.2901928,18.1010658 C44.6817502,17.9005142 45.0660003,17.6181896 45.4426674,17.2547851 L45.4426674,17.2547851 Z M35.2086819,14.2752006 C35.2177815,14.3268978 35.2260538,14.3788721 35.2332232,14.4312622 C35.2368079,14.4564871 35.239841,14.4821278 35.2428742,14.5073526 C35.2470104,14.5426952 35.2510087,14.5778991 35.2541798,14.6133803 C35.2583159,14.6564843 35.261487,14.699727 35.2641066,14.7431082 C35.2652095,14.7629277 35.2665883,14.7827473 35.2675534,14.8025668 C35.2701729,14.8605009 35.2716895,14.9185735 35.2718274,14.9766462 C35.2718274,14.9817743 35.272241,14.9867639 35.272241,14.9920306 C35.272241,14.9949412 35.2721032,14.9979903 35.2721032,15.0010395 C35.2718274,15.2947291 35.240944,15.5927153 35.1747653,15.891533 C35.1693883,15.9162035 35.1616674,15.9397652 35.1554632,15.9641585 C35.1544981,15.9687322 35.153533,15.9734446 35.15243,15.9781569 C35.1467772,16.0010256 35.1411245,16.0237557 35.1350581,16.046763 C35.1294053,16.0682458 35.1227875,16.0897285 35.1167211,16.1113498 C35.1102411,16.1339413 35.1054155,16.1572258 35.0986598,16.1799559 C35.0950751,16.1918754 35.0914904,16.203379 35.0879058,16.2152985 C35.0728777,16.2638078 35.0572981,16.3121786 35.0406156,16.3598564 C35.0330326,16.3814777 35.0251739,16.4029605 35.0173151,16.4243046 C35.0093185,16.4462031 35.0007705,16.4678244 34.9924981,16.4893071 C34.9898786,16.4959599 34.9876726,16.5026126 34.9851909,16.5094039 L34.9816062,16.5174426 C34.9787109,16.5250655 34.9760913,16.5325498 34.9730581,16.5398955 C34.9612011,16.5694169 34.9487926,16.5989383 34.9362462,16.6281826 C34.9263194,16.6511899 34.9162547,16.67392 34.9060522,16.6966501 C34.9045356,16.700115 34.9031569,16.7034414 34.9015024,16.7069063 C34.8999858,16.7105099 34.8984692,16.7139749 34.8966769,16.7174398 C34.8799943,16.7545841 34.8623467,16.7911741 34.8442854,16.8276254 C34.8349101,16.8463362 34.8253969,16.8656013 34.8157458,16.8843121 C34.8109203,16.8940139 34.805819,16.9028842 34.8008556,16.9124475 C34.7814156,16.949176 34.7619756,16.9860432 34.7412948,17.0226331 C34.7350905,17.0339981 34.7287484,17.045086 34.7222684,17.0564511 C34.721579,17.0575598 34.7210276,17.05853 34.7203382,17.0596388 C34.7126173,17.0732214 34.7046207,17.0862497 34.6968999,17.0991393 C34.6552625,17.1701016 34.6126599,17.2402323 34.5660591,17.3092542 C33.3034245,19.1833793 30.7595426,19.675403 28.8952333,18.4058433 C28.7438495,18.3027262 28.5970155,18.1871353 28.457213,18.0607337 L29.2218528,16.9258915 C29.3524178,17.0610248 29.4959429,17.182021 29.6493948,17.2865241 C29.6608382,17.2944242 29.6729709,17.3007997 29.6845522,17.3084226 L29.6859309,17.3044033 C29.8062935,17.3836814 29.9327224,17.4529806 30.0630117,17.5120234 L30.0638389,17.5077269 C30.2346627,17.5850647 30.4123801,17.6446619 30.5932686,17.6852712 C30.6067801,17.6881817 30.6201537,17.6898449 30.633803,17.6926169 L30.633803,17.6876273 C30.8171732,17.7258804 31.0034387,17.7452842 31.1888769,17.7452842 C32.45744,17.7452842 33.5271913,16.8733628 33.8368525,15.6944464 C33.8732507,15.5518288 33.8982056,15.4074095 33.9114414,15.2624357 C33.9117171,15.259941 33.911855,15.2574462 33.9119929,15.2549514 C33.9971979,14.2901692 33.5737921,13.3082009 32.7214655,12.7277515 C32.250218,12.406758 31.696247,12.2518052 31.145585,12.2500035 C31.0773383,12.2506965 31.0092293,12.2541614 30.9412583,12.2597053 C30.9343647,12.2603983 30.9271953,12.2610913 30.9203017,12.2617843 C30.8699783,12.2663581 30.8199307,12.2728722 30.7701588,12.2799407 C30.72342,12.2871478 30.6770949,12.2944935 30.6310456,12.3039182 C30.6247035,12.305027 30.618775,12.3062743 30.6127086,12.3075217 C30.4756635,12.3362116 30.3413759,12.3751577 30.2105351,12.4231126 C29.2912025,12.7732117 28.5680623,13.590664 28.411853,14.5683359 L28.3946189,14.6758881 L27.052432,14.6225278 L27.0685631,14.4901665 C27.1266073,14.0164377 27.2465562,13.5754182 27.4588796,13.1648903 C27.4637051,13.1544954 27.4683928,13.143962 27.4733562,13.1338443 L27.4744592,13.1310723 L27.4750106,13.1301021 C27.6058515,12.8612216 27.7633016,12.6117448 27.9563229,12.3834735 L27.9668012,12.3690593 L28.0540743,12.268437 C28.7126903,11.510582 29.6281624,11.0581974 30.591752,10.933459 C30.7876685,10.9039376 30.986894,10.8871672 31.1888769,10.8871672 C33.1899556,10.8871672 34.8582105,12.3418941 35.2049593,14.2544109 C35.2062002,14.2613408 35.207441,14.2682707 35.2086819,14.2752006 L35.2086819,14.2752006 Z M28.1657509,15.504151 C28.1078445,15.9769095 27.9880335,16.4170975 27.7765374,16.827071 C27.7710225,16.8387133 27.7656455,16.8509099 27.7599927,16.8625521 L27.759717,16.8628293 C27.6291519,17.1317099 27.4719775,17.3807709 27.2793698,17.6086264 L27.2688915,17.6233178 L27.1816184,17.7236629 C26.5230024,18.4827653 25.6072545,18.9355657 24.6432514,19.0604427 C24.4471969,19.0899641 24.2476957,19.1070117 24.045437,19.1070117 C22.0450477,19.1070117 20.3772065,17.6529778 20.0297683,15.7414312 C20.0285274,15.7346399 20.0271487,15.7278485 20.0260457,15.7209186 C20.0169461,15.6690829 20.0085359,15.6168314 20.0012287,15.5640254 C19.9977819,15.5389392 19.9946108,15.5134371 19.9915776,15.4882122 C19.9874415,15.4525925 19.9833053,15.4171113 19.9799964,15.3816302 C19.9759981,15.3383875 19.9729649,15.2951449 19.9703453,15.2517637 C19.9689666,15.2318055 19.9677257,15.2121246 19.9668985,15.1918892 C19.964141,15.1339552 19.9626244,15.0758825 19.9624866,15.0173941 C19.9624866,15.0122659 19.962073,15.0071378 19.962073,15.0020097 C19.962073,14.9992377 19.9622108,14.9963271 19.9622108,14.9935552 C19.9624866,14.7002814 19.9930942,14.4028496 20.0588593,14.105002 C20.0645121,14.0800543 20.0722329,14.0562154 20.0781614,14.0316836 C20.0794023,14.0264168 20.0806431,14.0211501 20.081884,14.016022 C20.0875367,13.9931532 20.0931895,13.9702845 20.0992559,13.9474158 C20.1047708,13.9262103 20.1112508,13.9051434 20.1173172,13.8840765 C20.1235214,13.8617621 20.128347,13.8386162 20.1349648,13.8163019 C20.1385495,13.8043825 20.1422721,13.7927402 20.1458567,13.7808208 C20.1607469,13.73245 20.1763265,13.6839406 20.1930091,13.63654 C20.2004542,13.6147801 20.2083129,13.5931588 20.2161716,13.5716761 C20.2244439,13.5492232 20.2332678,13.5269088 20.2418159,13.5045945 C20.2444354,13.4979418 20.2466414,13.4912891 20.2491231,13.4849136 C20.2500882,13.482003 20.251329,13.4796469 20.252432,13.4770135 C20.2551895,13.469945 20.2576712,13.4631537 20.2604286,13.4563624 C20.2721478,13.4265637 20.2845563,13.3971809 20.2971027,13.3679367 C20.3073052,13.3442364 20.3177835,13.3205361 20.3283997,13.297113 C20.3299163,13.2939252 20.3311571,13.2905989 20.3325358,13.2875497 C20.3339146,13.2845006 20.3351554,13.28159 20.3365341,13.2784022 C20.3533546,13.2415351 20.3708643,13.2050838 20.3889256,13.1686325 C20.3987145,13.1486743 20.4086413,13.1288548 20.4188439,13.1091738 C20.4243588,13.0982246 20.4302873,13.0878297 20.4359401,13.0768804 C20.4541392,13.0422309 20.4724762,13.0075813 20.4916405,12.9734862 C20.4981205,12.9621211 20.5044626,12.9508947 20.5109426,12.9395296 C20.5117698,12.9381436 20.5127349,12.9368962 20.5135622,12.9353717 C20.5214209,12.9213732 20.5296932,12.9080678 20.5378277,12.8943466 C20.5787758,12.8242159 20.6209647,12.7547782 20.6670141,12.6865879 C21.9286835,10.8119084 24.4721518,10.3187759 26.3371505,11.5870882 C26.4885343,11.6902053 26.635644,11.8056576 26.7754466,11.931782 L26.0114961,13.0669014 C25.880931,12.9320453 25.7372681,12.811049 25.5835405,12.7066846 C25.5725107,12.6992003 25.5609294,12.693102 25.5498996,12.6858949 L25.5482452,12.689637 C25.427469,12.6102202 25.3007644,12.5403667 25.1700614,12.4813239 L25.1690963,12.4858976 C24.9982725,12.4085598 24.8205551,12.3489626 24.6393909,12.3086305 C24.6265688,12.3055814 24.6136088,12.304334 24.6006488,12.301562 L24.6006488,12.3062743 C24.4171408,12.2680212 24.2308753,12.2488947 24.045437,12.2488947 C22.7765982,12.2488947 21.7067091,13.1210933 21.3971858,14.3002869 C21.3606496,14.4430431 21.3359705,14.5874624 21.3227347,14.7325747 C21.322459,14.7353467 21.3223211,14.7385345 21.3220454,14.741445 C21.2376675,15.70595 21.6616249,16.6872254 22.5140893,17.2669817 C22.9853369,17.5875594 23.5390321,17.7423736 24.0894183,17.7440368 C24.1576651,17.7434824 24.2256361,17.7398789 24.2937451,17.7341963 C24.3000872,17.7337805 24.3067051,17.732949 24.3131851,17.7323946 C24.3639221,17.7278208 24.4145212,17.7213067 24.4649825,17.713961 C24.511859,17.7068925 24.5584599,17.6992696 24.604785,17.6898449 C24.6108514,17.6887361 24.6169177,17.6876273 24.6229841,17.68638 C24.7589262,17.6579673 24.8923866,17.6188826 25.0225381,17.5716206 C25.9424221,17.2217987 26.6662517,16.403792 26.8225989,15.4257044 L26.8396951,15.3182908 L28.1820198,15.3716511 L28.1657509,15.504151 Z M31.2813893,10 C29.8367632,10 28.5364895,10.6196726 27.6277732,11.6084323 C26.7189189,10.6196726 25.4186452,10 23.9738813,10 C21.2269135,10 19,12.2386384 19,15.0000693 C19,17.7616388 21.2269135,20 23.9738813,20 C25.4186452,20 26.7189189,19.3803274 27.6277732,18.3915677 C28.5364895,19.3803274 29.8367632,20 31.2813893,20 C34.028495,20 36.2552706,17.7616388 36.2552706,15.0000693 C36.2552706,12.2386384 34.028495,10 31.2813893,10 L31.2813893,10 Z" id="Fill-1" fill="#19191A"></path>
    </g>
</svg>