<?xml version="1.0" standalone="no"?>
<!DOCTYPE svg PUBLIC "-//W3C//DTD SVG 20010904//EN"
 "http://www.w3.org/TR/2001/REC-SVG-20010904/DTD/svg10.dtd">
<svg version="1.0" xmlns="http://www.w3.org/2000/svg"
 width="1280.000000pt" height="183.000000pt" viewBox="0 0 1280.000000 183.000000"
 preserveAspectRatio="xMidYMid meet">
<metadata>
Created by potrace 1.16, written by Peter Selinger 2001-2019
</metadata>
<g transform="translate(0.000000,183.000000) scale(0.100000,-0.100000)"
fill="#ffffff" stroke="none">
<path d="M5622 1280 c-78 -12 -141 -54 -172 -115 l-25 -50 -3 -427 -3 -428 61
0 60 0 0 310 0 310 85 0 85 0 0 55 0 55 -86 0 -87 0 6 54 c3 29 11 63 19 75
17 28 68 51 112 51 l36 0 0 60 c0 67 6 64 -88 50z"/>
<path d="M5820 765 l0 -505 55 0 55 0 0 505 0 505 -55 0 -55 0 0 -505z"/>
<path d="M8440 765 l0 -505 60 0 60 0 0 505 0 505 -60 0 -60 0 0 -505z"/>
<path d="M3660 1115 l0 -125 -75 0 -75 0 0 -55 0 -55 75 0 75 0 0 -310 0 -310
60 0 60 0 0 310 0 310 80 0 80 0 0 55 0 55 -80 0 -80 0 0 125 0 125 -60 0 -60
0 0 -125z"/>
<path d="M4823 1003 c-30 -6 -71 -46 -79 -77 -19 -76 34 -146 110 -146 23 0
52 7 64 16 26 18 52 65 52 94 0 30 -26 83 -48 96 -23 15 -71 23 -99 17z"/>
<path d="M9974 996 c-44 -19 -64 -53 -64 -106 1 -67 43 -110 110 -110 67 0
109 43 110 110 0 54 -20 87 -66 106 -41 17 -50 17 -90 0z m99 -36 c77 -60 6
-187 -83 -150 -39 16 -63 61 -55 101 8 36 49 69 85 69 15 0 39 -9 53 -20z"/>
<path d="M3011 985 c-30 -9 -76 -31 -103 -50 l-48 -35 0 45 0 45 -60 0 -60 0
0 -495 0 -495 60 0 60 0 0 177 0 177 33 -32 c103 -100 312 -101 436 -3 128
101 171 326 93 484 -39 79 -112 148 -180 172 -68 24 -167 28 -231 10z m195
-123 c52 -27 97 -78 119 -136 27 -69 17 -188 -19 -250 -66 -113 -209 -155
-326 -96 -103 53 -155 200 -116 334 20 68 88 144 146 163 50 17 148 10 196
-15z"/>
<path d="M4255 987 c-107 -28 -178 -89 -228 -195 -30 -62 -32 -75 -32 -172 1
-94 4 -112 29 -168 37 -81 123 -163 197 -187 75 -25 198 -23 271 5 69 26 149
95 177 153 31 64 29 67 -37 67 -57 0 -59 -1 -90 -45 -55 -79 -148 -109 -246
-81 -66 19 -127 69 -159 130 -31 59 -31 193 1 253 89 168 310 192 408 43 26
-39 28 -40 85 -40 50 0 59 3 59 18 0 24 -49 99 -91 139 -78 74 -230 109 -344
80z"/>
<path d="M6344 990 c-104 -21 -193 -93 -241 -195 -26 -55 -28 -70 -28 -175 0
-106 2 -120 28 -172 54 -109 151 -180 272 -197 117 -17 234 13 302 77 32 30
93 118 93 134 0 4 -28 8 -62 8 -60 0 -64 -2 -91 -35 -74 -93 -223 -109 -326
-34 -41 29 -85 93 -96 142 l-7 27 302 0 303 0 -5 84 c-15 239 -206 383 -444
336z m167 -115 c69 -25 128 -92 153 -172 l7 -23 -241 0 c-217 0 -242 2 -236
16 3 9 6 21 6 28 0 20 52 92 84 117 61 48 149 61 227 34z"/>
<path d="M7867 990 c-53 -14 -97 -37 -134 -73 l-33 -31 0 52 0 52 -60 0 -60 0
0 -495 0 -495 60 0 60 0 0 178 0 179 41 -38 c52 -48 123 -72 211 -71 109 0
173 26 244 96 44 44 67 77 82 117 75 201 -2 427 -172 505 -60 27 -178 39 -239
24z m156 -114 c128 -46 194 -196 152 -342 -24 -84 -99 -157 -179 -175 -161
-36 -296 81 -296 257 0 81 12 123 49 175 61 86 172 121 274 85z"/>
<path d="M8972 982 c-29 -11 -69 -34 -88 -53 l-34 -33 0 47 0 47 -60 0 -60 0
0 -365 0 -365 60 0 60 0 0 228 c0 125 5 244 10 264 21 76 102 137 181 138 56
0 119 -39 146 -90 22 -42 23 -52 23 -292 l0 -248 59 0 59 0 4 248 c3 271 6
283 67 335 92 77 222 53 273 -51 22 -45 23 -60 26 -290 l4 -242 54 0 54 0 0
255 c0 301 -7 331 -89 408 -113 106 -287 97 -392 -20 l-36 -39 -25 36 c-60 82
-192 119 -296 82z"/>
<path d="M6820 983 c0 -5 56 -84 125 -176 69 -92 125 -171 125 -176 0 -4 -60
-88 -134 -187 l-135 -179 66 -3 c36 -2 71 -1 78 2 7 2 47 55 90 118 43 62 86
123 96 136 l18 23 97 -141 98 -140 73 0 c40 0 73 2 73 5 0 3 -61 87 -135 186
-84 110 -133 184 -129 192 5 7 61 83 126 169 65 87 118 162 118 168 0 6 -28
10 -69 10 l-70 0 -92 -135 -92 -134 -91 134 -91 135 -72 0 c-40 0 -73 -3 -73
-7z"/>
<path d="M0 595 l0 -55 915 0 915 0 0 55 0 55 -915 0 -915 0 0 -55z"/>
<path d="M10970 595 l0 -55 915 0 915 0 0 55 0 55 -915 0 -915 0 0 -55z"/>
</g>
</svg>
