<?xml version="1.0" encoding="UTF-8"?>
<svg width="140px" height="35px" viewBox="0 0 140 35" version="1.1" xmlns="http://www.w3.org/2000/svg" xmlns:xlink="http://www.w3.org/1999/xlink">
    <title>img_bi_white_poweredby</title>
    <g id="img_bi_white_poweredby" stroke="none" stroke-width="1" fill="none" fill-rule="evenodd">
        <rect id="Rectangle" x="0" y="0" width="140" height="35"></rect>
        <path d="M34.7571317,35 L34.7571317,32.502008 L34.7812954,32.502008 C35.0632062,32.9277108 35.5867547,33.1767068 36.1264124,33.1767068 C37.3023828,33.1767068 38.0514599,32.2771084 38.0514599,31.1606426 C38.0514599,30.0361446 37.278219,29.1606426 36.1425215,29.1606426 C35.5142633,29.1606426 35.0148786,29.4578313 34.7651863,29.8594378 L34.7410225,29.8594378 L34.7410225,29.2650602 L34,29.2650602 L34,35 L34.7571317,35 Z M35.9975389,32.5421687 C35.224298,32.5421687 34.7088041,31.8995984 34.7088041,31.1686747 C34.7088041,30.437751 35.224298,29.7871486 35.9975389,29.7871486 C36.8271619,29.7871486 37.2701644,30.4457831 37.2701644,31.1606426 C37.2701644,31.875502 36.8271619,32.5421687 35.9975389,32.5421687 Z M40.9108401,33.1767068 C42.078756,33.1767068 42.9728158,32.3333333 42.9728158,31.1606426 C42.9728158,29.9879518 42.078756,29.1606426 40.9108401,29.1606426 C39.7429243,29.1606426 38.8569191,29.9879518 38.8569191,31.1606426 C38.8569191,32.3333333 39.7429243,33.1767068 40.9108401,33.1767068 Z M40.9108401,32.5421687 C40.0973263,32.5421687 39.6382146,31.8835341 39.6382146,31.1606426 C39.6382146,30.437751 40.0973263,29.7871486 40.9108401,29.7871486 C41.7324085,29.7871486 42.1834657,30.437751 42.1834657,31.1606426 C42.1834657,31.8835341 41.7324085,32.5421687 40.9108401,32.5421687 Z M45.5422307,33.0722892 L46.4765634,30.2128514 L46.4926726,30.2128514 L47.4350599,33.0722892 L48.2244099,33.0722892 L49.4889809,29.2650602 L48.6915762,29.2650602 L47.8297349,32.1726908 L47.8136257,32.1726908 L46.8873476,29.2650602 L46.0899429,29.2650602 L45.179774,32.1726908 L45.1636648,32.1726908 L44.3018235,29.2650602 L43.4802551,29.2650602 L44.7528806,33.0722892 L45.5422307,33.0722892 Z M52.0100682,33.1767068 C52.686654,33.1767068 53.2424209,32.9277108 53.6532051,32.3975904 L53.121602,31.9718876 C52.904128,32.2931727 52.5255621,32.5502008 52.0100682,32.5502008 C51.3415371,32.5502008 50.7938248,32.0441767 50.769661,31.3935743 L53.7981877,31.3935743 C53.8062423,31.3052209 53.8062423,31.2168675 53.8062423,31.1365462 C53.8062423,29.9236948 53.0974382,29.1606426 51.9697953,29.1606426 C50.850207,29.1606426 49.9964202,29.9879518 49.9964202,31.1767068 C49.9964202,32.373494 50.850207,33.1767068 52.0100682,33.1767068 Z M53.041056,30.8313253 L50.769661,30.8313253 C50.8179886,30.2369478 51.3173733,29.7550201 51.9697953,29.7550201 C52.6705448,29.7550201 53.0249469,30.2289157 53.041056,30.8313253 Z M55.6185256,33.0722892 L55.6185256,31.0722892 C55.6185256,30.437751 55.964873,29.8514056 56.6897863,29.8514056 C56.8106052,29.8514056 56.9394787,29.8674699 57.0361338,29.8915663 L57.0683522,29.1927711 C56.9797517,29.1686747 56.875042,29.1606426 56.7703323,29.1606426 C56.2548383,29.1606426 55.8118358,29.4658635 55.6024164,29.9076305 L55.5782526,29.9076305 C55.5782526,29.746988 55.5621434,29.4578313 55.5460342,29.2650602 L54.8291755,29.2650602 C54.8533393,29.5140562 54.8613939,29.8835341 54.8613939,30.0843373 L54.8613939,33.0722892 L55.6185256,33.0722892 Z M59.3961293,33.1767068 C60.0727151,33.1767068 60.6284819,32.9277108 61.0392661,32.3975904 L60.507663,31.9718876 C60.2901891,32.2931727 59.9116232,32.5502008 59.3961293,32.5502008 C58.7275982,32.5502008 58.1798859,32.0441767 58.1557221,31.3935743 L61.1842488,31.3935743 C61.1923034,31.3052209 61.1923034,31.2168675 61.1923034,31.1365462 C61.1923034,29.9236948 60.4834993,29.1606426 59.3558564,29.1606426 C58.236268,29.1606426 57.3824813,29.9879518 57.3824813,31.1767068 C57.3824813,32.373494 58.236268,33.1767068 59.3961293,33.1767068 Z M60.4271171,30.8313253 L58.1557221,30.8313253 C58.2040497,30.2369478 58.7034344,29.7550201 59.3558564,29.7550201 C60.0566059,29.7550201 60.4110079,30.2289157 60.4271171,30.8313253 Z M63.9147556,33.1767068 C64.4544132,33.1767068 65.0021255,32.9277108 65.2920908,32.4698795 L65.3082,32.4698795 L65.3082,33.0722892 L66.0411679,33.0722892 L66.0411679,27 L65.2840362,27 L65.2840362,29.8353414 L65.2679271,29.8353414 C65.0021255,29.4658635 64.5269046,29.1606426 63.906701,29.1606426 C62.7629489,29.1606426 61.989708,30.0361446 61.989708,31.1606426 C61.989708,32.2771084 62.7387851,33.1767068 63.9147556,33.1767068 Z M64.043629,32.5421687 C63.214006,32.5421687 62.7790581,31.875502 62.7790581,31.1606426 C62.7790581,30.4457831 63.214006,29.7871486 64.043629,29.7871486 C64.8168699,29.7871486 65.3323638,30.437751 65.3323638,31.1686747 C65.3323638,31.8995984 64.8168699,32.5421687 64.043629,32.5421687 Z M71.5182906,33.1767068 C72.6942611,33.1767068 73.4433382,32.2771084 73.4433382,31.1606426 C73.4433382,30.0361446 72.6700973,29.1606426 71.5343998,29.1606426 C70.9061416,29.1606426 70.4309207,29.4658635 70.1731737,29.8353414 L70.14901,29.8353414 L70.14901,27 L69.3918783,27 L69.3918783,33.0722892 L70.1248462,33.0722892 L70.1248462,32.4698795 L70.1409554,32.4698795 C70.4389753,32.9277108 70.978633,33.1767068 71.5182906,33.1767068 Z M71.3894172,32.5421687 C70.6161763,32.5421687 70.1006824,31.8995984 70.1006824,31.1686747 C70.1006824,30.437751 70.6161763,29.7871486 71.3894172,29.7871486 C72.2190402,29.7871486 72.6620427,30.4457831 72.6620427,31.1606426 C72.6620427,31.875502 72.2190402,32.5421687 71.3894172,32.5421687 Z M74.651527,35 C75.4006041,35 75.7227878,34.6064257 75.9724801,33.9718876 L77.8250364,29.2650602 L77.0195771,29.2650602 L75.9644256,32.253012 L75.9483164,32.253012 L74.7642913,29.2650602 L73.9185591,29.2650602 L75.5536413,33.0722892 L75.3120036,33.7068273 C75.1509117,34.1164659 74.9978745,34.3413655 74.6031995,34.3413655 C74.4823806,34.3413655 74.3454525,34.3172691 74.2246336,34.2771084 L74.1521423,34.9437751 C74.3212887,34.9839357 74.4904352,35 74.651527,35 Z M83.3665958,33.2168675 C84.2042734,33.2168675 84.9130775,33.0401606 85.5091174,32.7188755 L85.5091174,29.9638554 L83.4551963,29.9638554 L83.4551963,30.6385542 L84.7197673,30.6385542 L84.7197673,32.2208835 C84.389529,32.3975904 83.9223627,32.502008 83.3907596,32.502008 C82.0295335,32.502008 81.1918559,31.4899598 81.1918559,30.2208835 C81.1918559,28.9759036 82.0295335,27.939759 83.3665958,27.939759 C84.0190178,27.939759 84.5747847,28.188755 84.9130775,28.5582329 L85.4688444,27.9799197 C85.001678,27.5301205 84.2606556,27.2409639 83.3585412,27.2409639 C81.6268039,27.2409639 80.32196,28.4457831 80.32196,30.2208835 C80.32196,31.9718876 81.5865309,33.2168675 83.3665958,33.2168675 Z M88.6423537,33.1767068 C89.8102696,33.1767068 90.7043293,32.3333333 90.7043293,31.1606426 C90.7043293,29.9879518 89.8102696,29.1606426 88.6423537,29.1606426 C87.4744379,29.1606426 86.5884327,29.9879518 86.5884327,31.1606426 C86.5884327,32.3333333 87.4744379,33.1767068 88.6423537,33.1767068 Z M88.6423537,32.5421687 C87.8288399,32.5421687 87.3697282,31.8835341 87.3697282,31.1606426 C87.3697282,30.437751 87.8288399,29.7871486 88.6423537,29.7871486 C89.4639221,29.7871486 89.9149793,30.437751 89.9149793,31.1606426 C89.9149793,31.8835341 89.4639221,32.5421687 88.6423537,32.5421687 Z M94.0469851,33.0722892 L96.2861618,27.3855422 L95.4243204,27.3855422 L93.7086922,32.0441767 L93.6845285,32.0441767 L91.9689003,27.3855422 L91.0828952,27.3855422 L93.3059626,33.0722892 L94.0469851,33.0722892 Z M97.1641123,28.373494 C97.4379685,28.373494 97.6715516,28.1646586 97.6715516,27.8915663 C97.6715516,27.6104418 97.4379685,27.4016064 97.1641123,27.4016064 C96.8902562,27.4016064 96.6647276,27.6184739 96.6647276,27.8915663 C96.6647276,28.1566265 96.8902562,28.373494 97.1641123,28.373494 Z M97.5426782,33.0722892 L97.5426782,29.2650602 L96.7855465,29.2650602 L96.7855465,33.0722892 L97.5426782,33.0722892 Z M99.9590558,33.1767068 C100.732297,33.1767068 101.481374,32.8473896 101.481374,31.9477912 C101.481374,31.2811245 100.925607,30.9839357 100.200694,30.8232932 C99.6207629,30.6947791 99.3307976,30.5742972 99.3307976,30.253012 C99.3307976,29.8915663 99.6932543,29.7550201 100.039602,29.7550201 C100.426222,29.7550201 100.75646,29.9558233 100.925607,30.2289157 L101.449155,29.7871486 C101.175299,29.37751 100.603423,29.1606426 100.063766,29.1606426 C99.3388522,29.1606426 98.6219935,29.5060241 98.6219935,30.3253012 C98.6219935,31.0401606 99.2260879,31.2570281 99.7335272,31.37751 C100.385949,31.5301205 100.732297,31.6586345 100.732297,32.0120482 C100.732297,32.4297189 100.353731,32.5662651 99.975165,32.5662651 C99.5482716,32.5662651 99.1616512,32.3333333 98.9602864,32.0361446 L98.4206287,32.4939759 C98.7830854,32.9518072 99.3791252,33.1767068 99.9590558,33.1767068 Z M104.203826,33.1767068 C104.880412,33.1767068 105.436179,32.9277108 105.846963,32.3975904 L105.31536,31.9718876 C105.097886,32.2931727 104.71932,32.5502008 104.203826,32.5502008 C103.535295,32.5502008 102.987583,32.0441767 102.963419,31.3935743 L105.991945,31.3935743 C106,31.3052209 106,31.2168675 106,31.1365462 C106,29.9236948 105.291196,29.1606426 104.163553,29.1606426 C103.043965,29.1606426 102.190178,29.9879518 102.190178,31.1767068 C102.190178,32.373494 103.043965,33.1767068 104.203826,33.1767068 Z M105.234814,30.8313253 L102.963419,30.8313253 C103.011746,30.2369478 103.511131,29.7550201 104.163553,29.7550201 C104.864302,29.7550201 105.218705,30.2289157 105.234814,30.8313253 Z" id="poweredbyGoVise" fill="#FFFFFF" fill-rule="nonzero"></path>
    </g>
</svg>