<?xml version="1.0" encoding="UTF-8"?>
<svg width="140px" height="20px" viewBox="0 0 140 20" version="1.1" xmlns="http://www.w3.org/2000/svg" xmlns:xlink="http://www.w3.org/1999/xlink">
    <title>img_bi_white_bambooPLM</title>
    <g id="img_bi_white_bambooPLM" stroke="none" stroke-width="1" fill="none" fill-rule="evenodd">
        <rect id="Rectangle" fill-rule="nonzero" x="0" y="0" width="140" height="20"></rect>
        <path d="M99.15345,11.3022621 C99.2935296,11.1450607 99.4815408,11.066091 99.7174838,11.066091 L102,11.066091 L102,10.1214067 L99.336631,10.1214067 C99.0739354,10.1214067 98.8476531,10.1686409 98.6574124,10.2631093 C98.4668002,10.3575778 98.308514,10.4789845 98.1818108,10.6273294 C98.054736,10.7760434 97.9596157,10.9402561 97.8964498,11.1199675 C97.8329124,11.300048 97.8013295,11.4757002 97.8013295,11.6465552 L97.8013295,18.380383 C97.8013295,18.5516071 97.8329124,18.7268903 97.8964498,18.9066017 C97.9596157,19.0870512 98.054736,19.2508949 98.1818108,19.3992398 C98.308514,19.5479538 98.4668002,19.6693605 98.6574124,19.7638289 C98.8476531,19.8582974 99.0739354,19.9055316 99.336631,19.9055316 L102,19.9055316 L102,18.9608473 L99.7174838,18.9608473 C99.4815408,18.9608473 99.2935296,18.8822466 99.15345,18.7246762 C99.0126274,18.5674748 98.9427734,18.380383 98.9427734,18.1645079 L98.9427734,15.5463301 L101.402154,15.5463301 L101.402154,14.4802391 L98.9427734,14.4802391 L98.9427734,11.875715 C98.9427734,11.6509834 99.0126274,11.4598325 99.15345,11.3022621 L99.15345,11.3022621 Z M96.1300357,10.661279 C95.9758367,10.4811986 95.7447241,10.3262113 95.4370693,10.1955792 C95.1290429,10.0653161 94.7032309,10 94.1600046,10 C93.6160353,10 93.1902232,10.0653161 92.8825684,10.1955792 C92.5741705,10.3262113 92.3434294,10.4811986 92.1892305,10.661279 C92.0354031,10.8409904 91.9402827,11.023654 91.9038695,11.2077936 C91.8678278,11.3923023 91.8496212,11.5340049 91.8496212,11.6329016 L91.8496212,13.8864903 C91.8496212,14.2104875 91.953659,14.5164028 92.1621063,14.8042363 C92.3705536,15.0924388 92.7298557,15.3260268 93.2459578,15.4788 C93.5484107,15.5758515 94.4858661,15.883981 94.5672385,15.9109192 C94.6489826,15.9378575 94.7169787,15.9603675 94.771227,15.9784494 C95.0067985,16.0592642 95.1561671,16.1740286 95.2197045,16.3223735 C95.2828703,16.4707185 95.3148248,16.5991365 95.3148248,16.7068896 L95.3148248,18.1781616 C95.3148248,18.2504889 95.301077,18.3331488 95.2739528,18.4279863 C95.2468286,18.5220857 95.1899794,18.6099118 95.1041482,18.6907266 C95.0179454,18.7719104 94.8979303,18.8416547 94.7441029,18.8999594 C94.5899039,18.9586332 94.3814566,18.9877855 94.1187611,18.9877855 C93.8742721,18.9877855 93.6773433,18.9586332 93.5279747,18.8999594 C93.3786061,18.8416547 93.2626782,18.7696963 93.1813057,18.6840843 C93.0999332,18.5988413 93.0475427,18.5088011 93.0248774,18.4143326 C93.002212,18.3198642 92.9910651,18.2320381 92.9910651,18.1512233 L92.9910651,18.0294476 L91.8496212,18.0294476 L91.8496212,18.3670984 C91.8496212,18.4663641 91.8678278,18.6076977 91.9038695,18.7922064 C91.9402827,18.976715 92.0354031,19.1590096 92.1892305,19.338721 C92.3434294,19.5188014 92.5741705,19.6741577 92.8825684,19.8044208 C93.1902232,19.9346839 93.6160353,20 94.1600046,20 C94.7032309,20 95.1290429,19.9346839 95.4370693,19.8044208 C95.7447241,19.6741577 95.9758367,19.5188014 96.1300357,19.338721 C96.2838631,19.1590096 96.3789834,18.9789291 96.4153967,18.7988487 C96.4518099,18.6191372 96.469645,18.4748515 96.469645,18.3670984 L96.469645,16.5183217 C96.469645,16.2124064 96.3834422,15.9334293 96.2114082,15.6813905 C96.1211182,15.5463301 96.0144794,15.4275066 95.8922349,15.3238127 C95.7699904,15.2204878 95.6284246,15.1536957 95.4641934,15.0876416 C95.3140817,15.0263847 94.6240878,14.7817263 94.4111817,14.7097679 C94.1982757,14.6381785 94.0102644,14.5750766 93.847148,14.520831 C93.7928996,14.5027492 93.5844524,14.4311598 93.5484107,14.412709 C93.3124677,14.3318942 93.1612413,14.2197129 93.0928735,14.0754271 C93.0248774,13.9315104 92.9910651,13.8012473 92.9910651,13.6842688 L92.9910651,11.8624303 C92.9910651,11.7812465 93.002212,11.6937894 93.0248774,11.599321 C93.0475427,11.5044836 93.0999332,11.4125983 93.1813057,11.322558 C93.2626782,11.2325178 93.3786061,11.1583453 93.5279747,11.0996716 C93.6773433,11.0413668 93.8742721,11.0118455 94.1187611,11.0118455 C94.3814566,11.0118455 94.5899039,11.0413668 94.7441029,11.0996716 C94.8979303,11.1583453 95.0179454,11.2280896 95.1041482,11.3089044 C95.1899794,11.3900882 95.2468286,11.4779143 95.2739528,11.5720137 C95.301077,11.6664822 95.3148248,11.7543083 95.3148248,11.8351231 L95.3148248,11.983837 L96.469645,11.983837 L96.469645,11.6329016 C96.469645,11.5340049 96.4518099,11.3923023 96.4153967,11.2077936 C96.3789834,11.023654 96.2838631,10.8409904 96.1300357,10.661279 L96.1300357,10.661279 Z M83.384284,13.7112071 C83.384284,13.8189601 83.3504717,13.945164 83.2824755,14.0890808 C83.2144794,14.2329975 83.0673401,14.3455478 82.8406862,14.4263626 C82.7953555,14.4444444 82.7455659,14.4625263 82.6913176,14.4802391 C82.6370693,14.49869 82.5824494,14.5164028 82.5282011,14.5344847 C82.4193329,14.5702793 82.2970884,14.6130854 82.1614677,14.6625337 C82.0254753,14.711982 81.889483,14.7595852 81.7534907,14.8042363 C81.6178699,14.8492564 81.4885657,14.8942765 81.3663212,14.9392967 C81.2440768,14.9843168 81.1422683,15.0201114 81.0608958,15.0470497 L81.0608958,11.875715 C81.0608958,11.7949002 81.0720427,11.7070741 81.0943366,11.6126056 C81.1170019,11.5181372 81.1693924,11.4258829 81.2507649,11.3358427 C81.3325089,11.2461714 81.4480653,11.171999 81.5974339,11.1133252 C81.7468025,11.0550205 81.9441029,11.0254991 82.1885918,11.0254991 C82.4512874,11.0254991 82.6593631,11.0550205 82.8135621,11.1133252 C82.9673895,11.171999 83.0874046,11.2413742 83.1736074,11.322558 C83.2598102,11.4033728 83.3162878,11.4911989 83.343412,11.5856674 C83.3705362,11.6801358 83.384284,11.7679619 83.384284,11.8487767 L83.384284,13.7112071 Z M84.2879271,14.7234215 C84.4462132,14.4625263 84.5257279,14.1879774 84.5257279,13.9001439 L84.5257279,11.6465552 C84.5257279,11.5476586 84.5075213,11.4055869 84.4714796,11.2210783 C84.4350663,11.0369386 84.339946,10.8550131 84.1861186,10.6745636 C84.0319196,10.4948522 83.800807,10.3394959 83.4931522,10.2092328 C83.1847543,10.0789697 82.7593138,10.0132846 82.215716,10.0132846 C81.6721182,10.0132846 81.2463061,10.0789697 80.9386513,10.2092328 C80.6302534,10.3394959 80.3991408,10.4948522 80.2453134,10.6745636 C80.0911144,10.8550131 79.9959941,11.0369386 79.9599524,11.2210783 C79.9239107,11.4055869 79.9057041,11.5476586 79.9057041,11.6465552 L79.9057041,19.9055316 L81.0608958,19.9055316 L81.0608958,16.6127901 C81.0698133,16.4865862 81.105855,16.3810473 81.1693924,16.2954353 C81.2329298,16.2101923 81.3053848,16.1448762 81.3867572,16.0998561 C81.4863363,16.0459796 81.5907457,16.0009594 81.6992424,15.9647957 L81.9032309,15.8976346 C81.9663967,15.8795528 82.0388516,15.8548286 82.1205957,15.8230931 C82.2019681,15.7917266 82.2926297,15.7581461 82.3922088,15.7219824 L83.8598856,19.9055316 L85.082702,19.9055316 L83.4794043,15.3441086 C83.8598856,15.1913355 84.1292694,14.9843168 84.2879271,14.7234215 L84.2879271,14.7234215 Z M89.3597724,18.1416288 C89.3597724,18.2135872 89.3497402,18.3331488 89.322616,18.4279863 C89.2951203,18.5220857 89.240872,18.6099118 89.1594996,18.6907266 C89.0777555,18.7719104 88.9577404,18.8416547 88.7990827,18.8999594 C88.6407965,18.9586332 88.4301199,18.9877855 88.1674243,18.9877855 C87.9225638,18.9877855 87.725635,18.9586332 87.5762664,18.8999594 C87.4268977,18.8416547 87.3113414,18.7696963 87.2299689,18.6840843 C87.1482249,18.5988413 87.0958344,18.5088011 87.0735406,18.4143326 C87.0508752,18.3198642 87.0393567,18.2320381 87.0393567,18.1512233 L87.0393567,11.8624303 C87.0393567,11.7812465 87.0508752,11.6937894 87.0735406,11.599321 C87.0958344,11.5044836 87.1482249,11.4125983 87.2299689,11.322558 C87.3113414,11.2325178 87.4268977,11.1583453 87.5762664,11.0996716 C87.725635,11.0413668 87.9225638,11.0118455 88.1674243,11.0118455 C88.4301199,11.0118455 88.6407965,11.0413668 88.7990827,11.0996716 C88.9577404,11.1583453 89.0777555,11.2280896 89.1594996,11.3089044 C89.240872,11.3900882 89.2951203,11.4779143 89.322616,11.5720137 C89.3497402,11.6664822 89.3597724,11.7849367 89.3597724,11.8657515 L89.3597724,11.983837 L89.3597724,18.1416288 Z M90.1783274,10.661279 C90.0245,10.4811986 89.7933873,10.3262113 89.485361,10.1955792 C89.1773346,10.0653161 88.7515225,10 88.2079248,10 C87.6646985,10 87.2385149,10.0653161 86.9308601,10.1955792 C86.6228338,10.3262113 86.3917211,10.4811986 86.2378937,10.661279 C86.0836947,10.8409904 85.9885744,11.023654 85.9525327,11.2077936 C85.9161195,11.3923023 85.8979129,11.5340049 85.8979129,11.6329016 L85.8979129,18.3670984 C85.8979129,18.4663641 85.9161195,18.6076977 85.9525327,18.7922064 C85.9885744,18.976715 86.0836947,19.1590096 86.2378937,19.338721 C86.3917211,19.5188014 86.6228338,19.6741577 86.9308601,19.8044208 C87.2385149,19.9346839 87.6646985,20 88.2079248,20 C88.7515225,20 89.1773346,19.9346839 89.485361,19.8044208 C89.7933873,19.6741577 90.0245,19.5188014 90.1783274,19.338721 C90.3325263,19.1590096 90.4276467,18.9789291 90.4636884,18.7988487 C90.49973,18.6191372 90.5183082,18.4748515 90.5183082,18.3670984 L90.5183082,11.6329016 C90.5183082,11.5340049 90.49973,11.3923023 90.4636884,11.2077936 C90.4276467,11.023654 90.3325263,10.8409904 90.1783274,10.661279 L90.1783274,10.661279 Z M74.698238,18.1416288 C74.698238,18.2135872 74.6878342,18.3331488 74.66071,18.4279863 C74.6335859,18.5220857 74.578966,18.6099118 74.4975935,18.6907266 C74.4162211,18.7719104 74.2958344,18.8416547 74.1375483,18.8999594 C73.9788905,18.9586332 73.7682139,18.9877855 73.5055183,18.9877855 C73.2610293,18.9877855 73.0641006,18.9586332 72.9147319,18.8999594 C72.7649917,18.8416547 72.6494354,18.7696963 72.5680629,18.6840843 C72.4863189,18.5988413 72.4343,18.5088011 72.4116346,18.4143326 C72.3889692,18.3198642 72.3778223,18.2320381 72.3778223,18.1512233 L72.3778223,11.8624303 C72.3778223,11.7812465 72.3889692,11.6937894 72.4116346,11.599321 C72.4343,11.5044836 72.4863189,11.4125983 72.5680629,11.322558 C72.6494354,11.2325178 72.7649917,11.1583453 72.9147319,11.0996716 C73.0641006,11.0413668 73.2610293,11.0118455 73.5055183,11.0118455 C73.7682139,11.0118455 73.9788905,11.0413668 74.1375483,11.0996716 C74.2958344,11.1583453 74.4162211,11.2280896 74.4975935,11.3089044 C74.578966,11.3900882 74.6335859,11.4779143 74.66071,11.5720137 C74.6878342,11.6664822 74.698238,11.7849367 74.698238,11.8657515 L74.698238,11.983837 L74.698238,18.1416288 Z M75.5167929,10.661279 C75.362594,10.4811986 75.1314813,10.3262113 74.8238265,10.1955792 C74.5154286,10.0653161 74.0899881,10 73.5463903,10 C73.0027925,10 72.5769805,10.0653161 72.2693257,10.1955792 C71.9609277,10.3262113 71.7298151,10.4811986 71.5759877,10.661279 C71.4217887,10.8409904 71.3266684,11.023654 71.2906267,11.2077936 C71.254585,11.3923023 71.2363784,11.5340049 71.2363784,11.6329016 L71.2363784,18.3670984 C71.2363784,18.4663641 71.254585,18.6076977 71.2906267,18.7922064 C71.3266684,18.976715 71.4217887,19.1590096 71.5759877,19.338721 C71.7298151,19.5188014 71.9609277,19.6741577 72.2693257,19.8044208 C72.5769805,19.9346839 73.0027925,20 73.5463903,20 C74.0899881,20 74.5154286,19.9346839 74.8238265,19.8044208 C75.1314813,19.6741577 75.362594,19.5188014 75.5167929,19.338721 C75.6706203,19.1590096 75.7657407,18.9789291 75.8021539,18.7988487 C75.8381956,18.6191372 75.8564022,18.4748515 75.8564022,18.3670984 L75.8564022,11.6329016 C75.8564022,11.5340049 75.8381956,11.3923023 75.8021539,11.2077936 C75.7657407,11.023654 75.6706203,10.8409904 75.5167929,10.661279 L75.5167929,10.661279 Z M68.7465297,11.983837 L68.7465297,18.1416288 C68.7465297,18.2135872 68.7361259,18.3331488 68.7090017,18.4279863 C68.6818776,18.5220857 68.6276292,18.6099118 68.5458852,18.6907266 C68.4645128,18.7719104 68.3444977,18.8416547 68.1858399,18.8999594 C68.0271822,18.9586332 67.8168771,18.9877855 67.5541815,18.9877855 C67.309321,18.9877855 67.1123922,18.9586332 66.9630236,18.8999594 C66.8132834,18.8416547 66.6977271,18.7696963 66.6163546,18.6840843 C66.5349821,18.5988413 66.4825917,18.5088011 66.4602978,18.4143326 C66.4372609,18.3198642 66.426114,18.2320381 66.426114,18.1512233 L66.426114,11.8624303 C66.426114,11.7812465 66.4372609,11.6937894 66.4602978,11.599321 C66.4825917,11.5044836 66.5349821,11.4125983 66.6163546,11.322558 C66.6977271,11.2325178 66.8132834,11.1583453 66.9630236,11.0996716 C67.1123922,11.0413668 67.309321,11.0118455 67.5541815,11.0118455 C67.8168771,11.0118455 68.0271822,11.0413668 68.1858399,11.0996716 C68.3444977,11.1583453 68.4645128,11.2280896 68.5458852,11.3089044 C68.6276292,11.3900882 68.6818776,11.4779143 68.7090017,11.5720137 C68.7361259,11.6664822 68.7465297,11.7849367 68.7465297,11.8657515 C68.748759,11.8679656 68.7465297,11.983837 68.7465297,11.983837 L68.7465297,11.983837 Z M69.5650846,10.661279 C69.4108857,10.4811986 69.1801446,10.3262113 68.8721182,10.1955792 C68.5640918,10.0653161 68.1382798,10 67.594682,10 C67.0514558,10 66.6252721,10.0653161 66.3176173,10.1955792 C66.009591,10.3262113 65.7784783,10.4811986 65.6246509,10.661279 C65.470452,10.8409904 65.3753316,11.023654 65.33929,11.2077936 C65.3028767,11.3923023 65.2846701,11.5340049 65.2846701,11.6329016 L65.2846701,18.3670984 C65.2846701,18.4663641 65.3028767,18.6076977 65.33929,18.7922064 C65.3753316,18.976715 65.470452,19.1590096 65.6246509,19.338721 C65.7784783,19.5188014 66.009591,19.6741577 66.3176173,19.8044208 C66.6252721,19.9346839 67.0514558,20 67.594682,20 C68.1382798,20 68.5640918,19.9346839 68.8721182,19.8044208 C69.1801446,19.6741577 69.4108857,19.5188014 69.5650846,19.338721 C69.718912,19.1590096 69.8144039,18.9789291 69.8504456,18.7988487 C69.8864873,18.6191372 69.9046939,18.4748515 69.9046939,18.3670984 L69.9046939,11.6329016 C69.9046939,11.5340049 69.8864873,11.3923023 69.8504456,11.2077936 C69.8144039,11.023654 69.718912,10.8409904 69.5650846,10.661279 L69.5650846,10.661279 Z M62.7981654,13.6842688 C62.7981654,13.7470017 62.7866469,13.8215432 62.7643531,13.9067862 C62.7413161,13.9923982 62.6963569,14.0754271 62.6283608,14.1566109 C62.5603646,14.2374257 62.4652443,14.30717 62.3429998,14.3654747 C62.2207553,14.4241485 62.0598682,14.4625263 61.86071,14.4802391 L60.4744056,14.4802391 L60.4744056,11.066091 L62.0372028,11.066091 C62.2727742,11.066091 62.4585561,11.1450607 62.5941769,11.3022621 C62.7301692,11.4598325 62.7981654,11.6509834 62.7981654,11.875715 L62.7981654,13.6842688 Z M62.7981654,18.2187535 C62.7799588,18.4257722 62.7052745,18.6010554 62.5741125,18.7449721 C62.4425789,18.8888889 62.2634852,18.9608473 62.0372028,18.9608473 L60.4744056,18.9608473 L60.4744056,15.5463301 L61.6433452,15.5463301 C61.8878342,15.5463301 62.0869924,15.5758515 62.2411913,15.6341562 C62.3950187,15.69283 62.5128044,15.7647884 62.5941769,15.8500314 C62.6759209,15.9356434 62.7301692,16.0256836 62.7572934,16.120152 C62.7847891,16.2146205 62.7981654,16.2980184 62.7981654,16.3696077 L62.7981654,18.2187535 Z M63.5728758,10.6273294 C63.445801,10.4789845 63.2849139,10.3575778 63.0902145,10.2631093 C62.8955151,10.1686409 62.6670034,10.1214067 62.4043078,10.1214067 L59.3333333,10.1214067 L59.3333333,19.9055316 L62.4043078,19.9055316 C62.6670034,19.9055316 62.8955151,19.8582974 63.0902145,19.7638289 C63.2849139,19.6693605 63.445801,19.5479538 63.5728758,19.3992398 C63.6995791,19.2508949 63.7946994,19.0870512 63.8582368,18.9066017 C63.9214027,18.7268903 63.9533571,18.5516071 63.9533571,18.380383 L63.9533571,16.1806709 C63.9533571,16.054836 63.9240036,15.8795528 63.864925,15.6544522 C63.8058463,15.4297207 63.6587071,15.2182737 63.4231356,15.0201114 C63.6587071,14.8311746 63.8058463,14.6241559 63.864925,14.3994243 C63.9240036,14.1746928 63.9533571,13.9994096 63.9533571,13.8732057 L63.9533571,11.6465552 C63.9533571,11.4757002 63.9214027,11.300048 63.8582368,11.1199675 C63.7946994,10.9402561 63.6995791,10.7760434 63.5728758,10.6273294 L63.5728758,10.6273294 Z M57.6620395,10.6745636 C57.5078406,10.4948522 57.2767279,10.3394959 56.9690731,10.2092328 C56.6610468,10.0789697 56.2352347,10.0132846 55.6916369,10.0132846 C55.2569073,10.0132846 54.9035502,10.0560906 54.6319371,10.1417026 C54.3599524,10.2273147 54.1332985,10.3328536 53.9523469,10.4586885 C53.7803129,10.3328536 53.5584894,10.2273147 53.2865047,10.1417026 C53.0148916,10.0560906 52.6615344,10.0132846 52.2268048,10.0132846 C51.6832071,10.0132846 51.2570234,10.0789697 50.9493686,10.2092328 C50.6413423,10.3394959 50.4080002,10.4948522 50.2493425,10.6745636 C50.0910563,10.8550131 49.9933351,11.0369386 49.9572934,11.2210783 C49.9212517,11.4055869 49.9030451,11.5476586 49.9030451,11.6465552 L49.9030451,19.9055316 L51.0582368,19.9055316 L51.0582368,11.875715 C51.0582368,11.7949002 51.0693837,11.7070741 51.0920491,11.6126056 C51.1143429,11.5181372 51.1667334,11.4258829 51.2481059,11.3358427 C51.3298499,11.2461714 51.4454063,11.171999 51.5947749,11.1133252 C51.7441435,11.0550205 51.9414439,11.0254991 52.1859328,11.0254991 C52.4486284,11.0254991 52.6567041,11.0550205 52.8109031,11.1133252 C52.9647305,11.171999 53.0847456,11.2413742 53.1709484,11.322558 C53.2571512,11.4033728 53.3136288,11.4911989 53.340753,11.5856674 C53.3678772,11.6801358 53.381625,11.7679619 53.381625,11.8487767 L53.381625,19.9055316 L54.5364452,19.9055316 L54.5364452,11.875715 C54.5364452,11.7949002 54.5479637,11.7070741 54.570629,11.6126056 C54.5929229,11.5181372 54.643084,11.4258829 54.7199977,11.3358427 C54.7969114,11.2461714 54.9102383,11.171999 55.0599785,11.1133252 C55.2093472,11.0550205 55.4107347,11.0254991 55.6645128,11.0254991 C55.9272083,11.0254991 56.1356556,11.0550205 56.289483,11.1133252 C56.443682,11.171999 56.5633255,11.2413742 56.6495283,11.322558 C56.7357311,11.4033728 56.7922088,11.4911989 56.8193329,11.5856674 C56.8468286,11.6801358 56.8602049,11.7679619 56.8602049,11.8487767 L56.8602049,19.9055316 L58.0016488,19.9055316 L58.0016488,11.6465552 C58.0016488,11.5476586 57.9834422,11.4055869 57.9474005,11.2210783 C57.9109873,11.0369386 57.8158669,10.8550131 57.6620395,10.6745636 L57.6620395,10.6745636 Z M47.4165404,13.6975534 C47.4165404,13.8149009 47.3845859,13.945164 47.3214201,14.0890808 C47.2578827,14.2329975 47.108514,14.3455478 46.8729426,14.4263626 C46.854736,14.435588 46.7663038,14.4669545 46.6080176,14.520831 C46.4493599,14.5750766 46.2728671,14.6355954 46.0781677,14.7031256 C45.8830968,14.7706557 45.6906267,14.8381859 45.5007576,14.9057161 C45.3101454,14.9728772 45.1745247,15.0201114 45.0927806,15.0470497 L45.0927806,11.875715 C45.0927806,11.7949002 45.1039275,11.7070741 45.1269645,11.6126056 C45.1492583,11.5181372 45.2016488,11.4258829 45.2830213,11.3358427 C45.3643937,11.2461714 45.4799501,11.171999 45.6296903,11.1133252 C45.7790589,11.0550205 45.9759877,11.0254991 46.2208482,11.0254991 C46.4831722,11.0254991 46.6916195,11.0550205 46.8458185,11.1133252 C46.9996459,11.171999 47.1196609,11.2413742 47.2058637,11.322558 C47.291695,11.4033728 47.3485442,11.4911989 47.3756684,11.5856674 C47.4027925,11.6801358 47.4165404,11.7679619 47.4165404,11.8487767 L47.4165404,13.6975534 Z M48.2317513,10.6745636 C48.0775523,10.4948522 47.8468112,10.3394959 47.5387849,10.2092328 C47.2307585,10.0789697 46.8049464,10.0132846 46.2613487,10.0132846 C45.7181224,10.0132846 45.2919388,10.0789697 44.984284,10.2092328 C44.6762577,10.3394959 44.445145,10.4948522 44.290946,10.6745636 C44.1371186,10.8550131 44.0419983,11.0369386 44.0059566,11.2210783 C43.9695434,11.4055869 43.9513368,11.5476586 43.9513368,11.6465552 L43.9513368,19.9055316 L45.0927806,19.9055316 L45.0927806,16.6397284 C45.0927806,16.5046681 45.1269645,16.3947009 45.1945891,16.3090889 C45.2625853,16.2234769 45.3376412,16.1537326 45.4190136,16.0998561 C45.5185927,16.0371231 45.6218874,15.9991144 45.7314987,15.9647957 L46.5467096,15.6950441 C46.7551569,15.6230857 46.9476269,15.5555556 47.1244913,15.4924536 C47.3009841,15.4297207 47.3979622,15.393557 47.4165404,15.3847005 L47.4165404,19.9055316 L48.5713606,19.9055316 L48.5713606,11.6465552 C48.5713606,11.5476586 48.5531539,11.4055869 48.5171123,11.2210783 C48.480699,11.0369386 48.3855787,10.8550131 48.2317513,10.6745636 L48.2317513,10.6745636 Z M41.4648321,13.6842688 C41.4648321,13.7470017 41.4533136,13.8215432 41.4310198,13.9067862 C41.4079828,13.9923982 41.3630236,14.0754271 41.2950274,14.1566109 C41.2270313,14.2374257 41.1319109,14.30717 41.0096665,14.3654747 C40.887422,14.4241485 40.7265349,14.4625263 40.5273767,14.4802391 L39.1410723,14.4802391 L39.1410723,11.066091 L40.7038695,11.066091 C40.9394409,11.066091 41.1252228,11.1450607 41.2608436,11.3022621 C41.3968359,11.4598325 41.4648321,11.6509834 41.4648321,11.875715 L41.4648321,13.6842688 Z M41.4648321,18.2187535 C41.4466254,18.4257722 41.3719411,18.6010554 41.2407791,18.7449721 C41.1092456,18.8888889 40.9301518,18.9608473 40.7038695,18.9608473 L39.1410723,18.9608473 L39.1410723,15.5463301 L40.3100119,15.5463301 C40.5545009,15.5463301 40.753659,15.5758515 40.907858,15.6341562 C41.0616854,15.69283 41.1794711,15.7647884 41.2608436,15.8500314 C41.3425876,15.9356434 41.3968359,16.0256836 41.4239601,16.120152 C41.4514558,16.2146205 41.4648321,16.2980184 41.4648321,16.3696077 L41.4648321,18.2187535 Z M42.2395425,10.6273294 C42.1124677,10.4789845 41.9515806,10.3575778 41.7568812,10.2631093 C41.5621818,10.1686409 41.3332985,10.1214067 41.0709745,10.1214067 L38,10.1214067 L38,19.9055316 L41.0709745,19.9055316 C41.3332985,19.9055316 41.5621818,19.8582974 41.7568812,19.7638289 C41.9515806,19.6693605 42.1124677,19.5479538 42.2395425,19.3992398 C42.3662458,19.2508949 42.4613661,19.0870512 42.5249035,18.9066017 C42.5880693,18.7268903 42.6200238,18.5516071 42.6200238,18.380383 L42.6200238,16.1806709 C42.6200238,16.054836 42.5906703,15.8795528 42.5315916,15.6544522 C42.472513,15.4297207 42.3253737,15.2182737 42.0898023,15.0201114 C42.3253737,14.8311746 42.472513,14.6241559 42.5315916,14.3994243 C42.5906703,14.1746928 42.6200238,13.9994096 42.6200238,13.8732057 L42.6200238,11.6465552 C42.6200238,11.4757002 42.5880693,11.300048 42.5249035,11.1199675 C42.4613661,10.9402561 42.3662458,10.7760434 42.2395425,10.6273294 L42.2395425,10.6273294 Z" id="Fill-1" fill="#FFFFFF"></path>
    </g>
</svg>