<?xml version="1.0" encoding="UTF-8"?>
<svg width="140px" height="20px" viewBox="0 0 140 20" version="1.1" xmlns="http://www.w3.org/2000/svg" xmlns:xlink="http://www.w3.org/1999/xlink">
    <title>img_bi_black_inforPLM</title>
    <g id="img_bi_black_inforPLM" stroke="none" stroke-width="1" fill="none" fill-rule="evenodd">
        <rect id="Rectangle" x="0" y="0" width="140" height="20"></rect>
        <path d="M27.5474932,13.5038363 C29.4115126,13.5038363 30.9027282,14.7953964 30.9027282,16.7263427 C30.9027282,18.657289 29.4115126,20 27.5474932,20 C25.6834738,20 24.1922582,18.657289 24.1922582,16.7263427 C24.1922582,14.7953964 25.6834738,13.5038363 27.5474932,13.5038363 Z M75.1849736,13.5038363 C77.048993,13.5038363 78.5402085,14.7953964 78.5402085,16.7263427 C78.5402085,18.657289 77.048993,20 75.1849736,20 C73.3209541,20 71.8297386,18.657289 71.8297386,16.7263427 C71.8297386,14.7953964 73.3209541,13.5038363 75.1849736,13.5038363 Z M119.685759,13.5038363 C121.549779,13.5038363 123.040994,14.7953964 123.040994,16.7263427 C123.040994,18.657289 121.549779,20 119.685759,20 C117.82174,20 116.330524,18.657289 116.330524,16.7263427 C116.330524,14.7953964 117.82174,13.5038363 119.685759,13.5038363 Z M102.742465,13.5038363 C103.629482,13.5038363 104.555064,13.8107417 105.056421,14.4373402 L105.056421,14.4373402 L104.053707,15.3196931 C103.783745,14.9616368 103.269533,14.6547315 102.703899,14.6547315 C102.215398,14.6547315 101.714041,14.8337596 101.714041,15.3196931 C101.714041,15.7928389 102.189687,15.9207161 103.050993,16.1253197 C103.963719,16.342711 105.043565,16.7519182 105.043565,17.9539642 C105.043565,19.4501279 103.822311,20 102.472504,20 C101.521211,20 100.531353,19.6419437 99.9400086,18.9897698 L99.9400086,18.9897698 L100.955578,18.0434783 C101.289816,18.4782609 101.868305,18.8107417 102.53678,18.8107417 C102.986716,18.8107417 103.526639,18.6317136 103.526639,18.0818414 C103.526639,17.5703325 103.050993,17.4168798 102.112555,17.1994885 C101.199829,16.9820972 100.287102,16.6112532 100.287102,15.4603581 C100.287102,14.0920716 101.521211,13.5038363 102.742465,13.5038363 Z M96.3362377,13.5038363 C98.4711051,13.5038363 99.04805,14.7674641 99.0853009,15.9595659 L99.0872732,16.0869565 L99.0872732,19.8209719 L97.6474789,19.8209719 L97.6474789,19.0409207 L97.608913,19.0409207 C97.3003857,19.5780051 96.5676332,19.9744246 95.6934724,19.9744246 C94.7036138,19.9744246 93.3795172,19.5012788 93.3795172,18.0690537 C93.3795172,16.2975543 95.5511099,16.0021754 97.4399431,15.9854442 L97.6217683,15.9846547 L97.6217683,15.831202 C97.6217683,15.0767263 96.979003,14.7058824 96.2076846,14.7058824 C95.6176261,14.7058824 95.0483931,14.9544757 94.64993,15.2931841 L94.5236395,15.4092072 L93.7266105,14.4757033 C94.420797,13.8363171 95.3978003,13.5038363 96.3362377,13.5038363 Z M42.6910441,10.7672634 C44.7736038,10.7672634 46.1234109,11.4961637 46.1234109,13.3887468 C46.1234109,15.3171355 44.6218397,16.0266837 42.7799124,16.0718443 L42.5882017,16.0741688 L41.341237,16.0741688 L41.341237,19.8209719 L39.7214684,19.8209719 L39.7214684,10.7672634 L42.6910441,10.7672634 Z M127.724611,13.5038363 C129.331524,13.5038363 130,14.7314578 130,15.9846547 L130,15.9846547 L130,19.8209719 L128.457363,19.8209719 L128.457363,16.4194373 C128.457363,15.6905371 128.290244,14.7826087 127.300386,14.7826087 C126.323382,14.7826087 125.860591,15.6265985 125.860591,16.4450128 L125.860591,16.4450128 L125.860591,19.8209719 L124.317955,19.8209719 L124.317955,13.6828645 L125.78346,13.6828645 L125.78346,14.6675192 L125.80917,14.6675192 C126.079132,14.0537084 126.811884,13.5038363 127.724611,13.5038363 Z M115.027853,13.6828645 L115.027853,19.8209719 L113.485216,19.8209719 L113.485216,13.6828645 L115.027853,13.6828645 Z M48.9687188,10.7672634 L48.9687188,18.3887468 L52.838166,18.3887468 L52.838166,19.8209719 L47.3489501,19.8209719 L47.3489501,10.7672634 L48.9687188,10.7672634 Z M56.236252,10.7672634 L58.6016283,17.1994885 L58.6401943,17.1994885 L60.97986,10.7672634 L63.5252107,10.7672634 L63.5252107,19.8209719 L61.9182974,19.8209719 L61.9182974,12.544757 L61.8925868,12.544757 L59.1286959,19.8209719 L57.9974289,19.8209719 L55.272104,12.544757 L55.2463934,12.544757 L55.2463934,19.8209719 L53.7037566,19.8209719 L53.7037566,10.7672634 L56.236252,10.7672634 Z M83.1209827,13.5038363 C83.2366805,13.5038363 83.3909442,13.516624 83.4937866,13.5421995 L83.4937866,13.5421995 L83.4937866,14.9488491 C83.2881017,14.8976982 83.1595486,14.8849105 83.0181403,14.8849105 C81.6297672,14.8849105 81.3598057,16.0869565 81.3598057,16.5345269 L81.3598057,16.5345269 L81.3598057,19.8209719 L79.817169,19.8209719 L79.817169,13.6828645 L81.2955292,13.6828645 L81.2955292,14.7058824 L81.3212398,14.7058824 C81.6554778,14.0025575 82.3110984,13.5038363 83.1209827,13.5038363 Z M107.734609,10.1534527 L107.734609,14.5396419 L107.76032,14.5396419 C108.004571,14.028133 108.685902,13.5038363 109.598629,13.5038363 C111.205542,13.5038363 111.874018,14.7314578 111.874018,15.9846547 L111.874018,15.9846547 L111.874018,19.8209719 L110.331381,19.8209719 L110.331381,16.4450128 C110.331381,15.7161125 110.177118,14.8209719 109.187259,14.8209719 C108.210256,14.8209719 107.734609,15.6521739 107.734609,16.4705882 L107.734609,16.4705882 L107.734609,19.8209719 L106.191973,19.8209719 L106.191973,10.1534527 L107.734609,10.1534527 Z M11.6197686,10.7672634 L11.6197686,19.8209719 L10,19.8209719 L10,10.7672634 L11.6197686,10.7672634 Z M16.7404656,13.5038363 C18.3473789,13.5038363 19.0158549,14.7314578 19.0158549,15.9846547 L19.0158549,15.9846547 L19.0158549,19.8209719 L17.4732181,19.8209719 L17.4732181,16.4194373 C17.4732181,15.6905371 17.3060991,14.7826087 16.3162405,14.7826087 C15.3392373,14.7826087 14.8764462,15.6265985 14.8764462,16.4450128 L14.8764462,16.4450128 L14.8764462,19.8209719 L13.3338095,19.8209719 L13.3338095,13.6828645 L14.7993144,13.6828645 L14.7993144,14.6675192 L14.825025,14.6675192 C15.0949864,14.0537084 15.8277389,13.5038363 16.7404656,13.5038363 Z M23.3395229,10 C23.6737609,10 23.8923011,10.0255754 24.1236966,10.0895141 L24.1236966,10.0895141 L24.0208542,11.3938619 C23.8537352,11.342711 23.6480503,11.3043478 23.4295101,11.3043478 C22.5424939,11.3043478 22.3882303,12.0716113 22.3882303,12.685422 L22.3882303,12.685422 L22.3882303,13.6828645 L23.8151693,13.6828645 L23.8151693,14.9104859 L22.3882303,14.9104859 L22.3882303,19.8209719 L20.8455935,19.8209719 L20.8455935,14.9104859 L19.6757606,14.9104859 L19.6757606,13.6828645 L20.8455935,13.6828645 L20.8455935,12.7749361 C20.8455935,11.3043478 21.4240823,10 23.3395229,10 Z M70.9770033,10 C71.3112413,10 71.5297815,10.0255754 71.761177,10.0895141 L71.761177,10.0895141 L71.6583345,11.3938619 C71.4912155,11.342711 71.2855306,11.3043478 71.0669904,11.3043478 C70.1799743,11.3043478 70.0257106,12.0716113 70.0257106,12.685422 L70.0257106,12.685422 L70.0257106,13.6828645 L71.4526496,13.6828645 L71.4526496,14.9104859 L70.0257106,14.9104859 L70.0257106,19.8209719 L68.4830738,19.8209719 L68.4830738,14.9104859 L67.313241,14.9104859 L67.313241,13.6828645 L68.4830738,13.6828645 L68.4830738,12.7749361 C68.4830738,11.3043478 69.0615626,10 70.9770033,10 Z M93.2338237,10.7672634 L93.2338237,12.173913 L88.9787173,12.173913 L88.9787173,14.6547315 L92.9895729,14.6547315 L92.9895729,16.0102302 L88.9787173,16.0102302 L88.9787173,19.8209719 L87.3589487,19.8209719 L87.3589487,10.7672634 L93.2338237,10.7672634 Z M35.4835024,13.5038363 C35.5992001,13.5038363 35.7534638,13.516624 35.8563062,13.5421995 L35.8563062,13.5421995 L35.8563062,14.9488491 C35.6506213,14.8976982 35.5220683,14.8849105 35.3806599,14.8849105 C33.9922868,14.8849105 33.7223254,16.0869565 33.7223254,16.5345269 L33.7223254,16.5345269 L33.7223254,19.8209719 L32.1796886,19.8209719 L32.1796886,13.6828645 L33.6580489,13.6828645 L33.6580489,14.7058824 L33.6837595,14.7058824 C34.0179974,14.0025575 34.6736181,13.5038363 35.4835024,13.5038363 Z M97.6217683,17.0204604 L97.274675,17.0204604 C96.2976718,17.0204604 94.922154,17.1355499 94.922154,18.0434783 C94.922154,18.6317136 95.4749322,18.8107417 96.0019997,18.8107417 C96.9975718,18.8107417 97.5574124,18.274644 97.6165442,17.3963563 L97.6217683,17.2378517 L97.6217683,17.0204604 Z M119.685759,14.7570332 C118.464505,14.7570332 117.898872,15.7672634 117.898872,16.7263427 C117.898872,17.685422 118.464505,18.7212276 119.685759,18.7212276 C120.907013,18.7212276 121.472647,17.685422 121.472647,16.7263427 C121.472647,15.7672634 120.907013,14.7570332 119.685759,14.7570332 Z M75.1849736,14.7570332 C73.9637195,14.7570332 73.398086,15.7672634 73.398086,16.7263427 C73.398086,17.685422 73.9637195,18.7212276 75.1849736,18.7212276 C76.4062277,18.7212276 76.9718612,17.685422 76.9718612,16.7263427 C76.9718612,15.7672634 76.4062277,14.7570332 75.1849736,14.7570332 Z M27.5474932,14.7570332 C26.3262391,14.7570332 25.7606056,15.7672634 25.7606056,16.7263427 C25.7606056,17.685422 26.3262391,18.7212276 27.5474932,18.7212276 C28.7687473,18.7212276 29.3343808,17.685422 29.3343808,16.7263427 C29.3343808,15.7672634 28.7687473,14.7570332 27.5474932,14.7570332 Z M42.5239252,12.1227621 L41.341237,12.1227621 L41.341237,14.7186701 L42.4725039,14.7186701 C43.5266391,14.7186701 44.490787,14.4629156 44.490787,13.3887468 C44.490787,12.314578 43.5266391,12.1227621 42.5239252,12.1227621 Z M114.243679,10.6777494 C114.809313,10.6777494 115.246393,11.0741688 115.246393,11.5984655 C115.246393,12.1227621 114.809313,12.5191816 114.243679,12.5191816 C113.678046,12.5191816 113.266676,12.084399 113.266676,11.5984655 C113.266676,11.112532 113.678046,10.6777494 114.243679,10.6777494 Z" id="Combined-Shape" fill="#19191A" fill-rule="nonzero"></path>
    </g>
</svg>