<?xml version="1.0" encoding="UTF-8"?>
<svg width="140px" height="25px" viewBox="0 0 140 25" version="1.1" xmlns="http://www.w3.org/2000/svg" xmlns:xlink="http://www.w3.org/1999/xlink">
    <title>img_bi_black_CLOVise</title>
    <g id="img_bi_black_CLOVise" stroke="none" stroke-width="1" fill="none" fill-rule="evenodd">
        <path d="M81.5000083,13.5 C81.5000083,12.3955 80.6045083,11.5 79.5000083,11.5 L74.5000083,11.5 L74.5000083,12.5 C74.5000083,13.6045 75.3955083,14.5 76.5000083,14.5 L81.5000083,14.5 L81.5000083,13.5 Z M137.188008,13.906 L128.841508,13.906 L128.841508,13.906 C129.019008,11.5375 130.854008,9.6175 133.251508,9.6175 C135.826508,9.6175 137.128508,11.506 137.188008,13.906 L137.188008,13.906 Z M133.251508,7.25 C129.137008,7.25 126.000008,10.546 126.000008,15.2815 C126.000008,20.05 129.137008,23.25 133.399008,23.25 C135.885508,23.25 137.928008,22.258 139.437508,20.146 L138.897008,19.677 C138.209008,19.079 137.171008,19.0315 136.480008,19.6255 C135.692008,20.3025 134.656508,20.754 133.399008,20.754 C130.942508,20.754 128.930008,18.738 128.841508,16.146 L139.970008,16.146 L139.970008,16.146 C140.000008,15.794 140.000008,15.442 140.000008,15.122 C140.000008,10.2895 137.395008,7.25 133.251508,7.25 L133.251508,7.25 Z M122.544008,10.3445 C121.841008,10.9235 120.840508,10.9555 120.098008,10.428 C119.396008,9.929 118.500008,9.6175 117.515008,9.6175 C116.100508,9.6175 114.620508,10.1615 114.620508,11.602 C114.620508,12.882 115.804508,13.362 118.172508,13.874 C121.133508,14.514 123.403008,15.698 123.403008,18.354 C123.403008,21.938 120.344008,23.25 117.186008,23.25 C114.897008,23.25 112.547008,22.413 111.055508,20.7105 C110.970008,20.6135 110.985508,20.462 111.085008,20.3795 L111.696008,19.8735 C112.423008,19.272 113.454008,19.2705 114.219008,19.823 C115.051508,20.4245 116.116508,20.818 117.251508,20.818 C118.797508,20.818 120.344008,20.274 120.344008,18.61 C120.344008,17.2015 118.929008,16.69 116.264508,16.082 C114.192508,15.602 111.725508,14.738 111.725508,11.89 C111.725508,8.626 114.653008,7.25 117.613508,7.25 C119.736008,7.25 121.980008,8.051 123.142508,9.568 C123.217508,9.6655 123.196508,9.8075 123.101508,9.8855 L122.544008,10.3445 Z M105.750008,23 L104.500008,23 L104.500008,7.5 L105.750008,7.5 C106.716508,7.5 107.500008,8.2835 107.500008,9.25 L107.500008,21.25 C107.500008,22.2165 106.716508,23 105.750008,23 L105.750008,23 Z M105.412508,5.671 C104.707008,5.4735 104.158508,4.863 104.032508,4.141 C103.807008,2.8475 104.777008,1.75 105.984008,1.75 C107.072008,1.75 108.000008,2.6095 108.000008,3.7665 C108.000008,5.084 106.725508,6.0375 105.412508,5.671 L105.412508,5.671 Z M91.7500083,19.363 L91.8450083,19.363 L98.1290083,2.9895 C98.4150083,2.2435 99.1430083,1.75 99.9565083,1.75 L102.000008,1.75 L93.5720083,22.29 C93.3335083,22.87 92.7595083,23.25 92.1210083,23.25 L91.3185083,23.25 C90.6785083,23.25 90.1035083,22.868 89.8660083,22.2865 L81.5000083,1.75 L83.6385083,1.75 C84.4520083,1.75 85.1800083,2.2435 85.4665083,2.989 L91.7500083,19.363 Z M32.5975083,6.229 L32.5975083,1.771 C32.5975083,0.793 31.8050083,-5.32907052e-15 30.8270083,-5.32907052e-15 L29.0135083,-5.32907052e-15 L29.0135083,8 L30.8270083,8 C31.8050083,8 32.5975083,7.207 32.5975083,6.229 L32.5975083,6.229 Z M32.0295083,17.359 L30.2830083,18.1845 C29.4240083,16.452 29.0120083,14.594 29.0135043,12.7505 L29.0135043,12.75 L29.0135043,12.7495 C29.0135043,12.6665 29.0280083,12.5 29.0205083,12.5 L29.0135043,12.75 L29.0135043,9.4345 L30.8055083,9.4345 C31.7955083,9.4345 32.5975083,10.2185 32.5975083,11.1845 L32.5880083,12.5 C32.5855083,12.5835 32.5880083,12.6665 32.5880083,12.75 C32.5875083,13.602 32.7120083,14.453 32.9620083,15.2795 C33.2115083,16.104 32.8220083,16.984 32.0295083,17.359 L32.0295083,17.359 Z M39.6310083,21.2815 C38.7730083,21.08 37.9565083,20.76 37.2010083,20.3335 C36.4450083,19.9075 35.7525083,19.377 35.1450083,18.7525 C34.5380083,18.129 33.5630083,18.0185 32.8340083,18.5015 L31.2290083,19.5655 C32.3360083,21.158 33.7780083,22.4355 35.4135083,23.356 L35.4140083,23.356 C35.4140083,23.3565 35.4140083,23.3565 35.4145083,23.3565 C37.0480083,24.2795 38.9020083,24.8605 40.8680083,25 L41.0090083,23.1105 C41.0730083,22.2525 40.4875083,21.4835 39.6310083,21.2815 L39.6310083,21.2815 Z M19.0125083,18.7525 C18.4190083,19.377 17.7425083,19.9075 17.0045083,20.3335 C16.2670083,20.76 15.4690083,21.08 14.6315083,21.2815 C13.7955083,21.4835 13.2235083,22.2525 13.2860083,23.1105 L13.4235083,25 C15.3435083,24.8605 17.1540083,24.2795 18.7495083,23.3565 C18.7500083,23.3565 18.7500083,23.3565 18.7500083,23.356 L18.7500083,23.356 C20.3475083,22.4355 21.7555083,21.158 22.8365083,19.5655 L21.2690083,18.5015 C20.5575083,18.0185 19.6050083,18.129 19.0125083,18.7525 L19.0125083,18.7525 Z M11.5765083,-5.32907052e-15 C9.65650834,0.1395 7.84600834,0.7205 6.25000834,1.6435 L6.25000834,1.6435 C6.25000834,1.644 6.25000834,1.644 6.24950834,1.644 C4.65250834,2.5645 3.24400834,3.842 2.16300834,5.4345 L3.73100834,6.4985 C4.44250834,6.9815 5.39450834,6.8705 5.98700834,6.2475 C6.58100834,5.623 7.25700834,5.0925 7.99500834,4.6665 C8.73250834,4.24 9.53050834,3.92 10.3685083,3.7185 C11.2045083,3.5165 11.7760083,2.7475 11.7140083,1.8895 L11.5765083,-5.32907052e-15 Z M10.3685083,21.2815 C9.53050834,21.08 8.73250834,20.76 7.99500834,20.3335 C7.25700834,19.9075 6.58100834,19.377 5.98700834,18.7525 C5.39450834,18.129 4.44250834,18.0185 3.73100834,18.5015 L2.16300834,19.5655 C3.24400834,21.158 4.65250834,22.4355 6.24950834,23.356 L6.25000834,23.356 C6.25000834,23.3565 6.25000834,23.3565 6.25000834,23.3565 C7.84600834,24.2795 9.65650834,24.8605 11.5765083,25 L11.7140083,23.1105 C11.7760083,22.2525 11.2045083,21.4835 10.3685083,21.2815 L10.3685083,21.2815 Z M14.6315083,3.7185 C15.4690083,3.92 16.2670083,4.24 17.0045083,4.6665 C17.7425083,5.0925 18.4190083,5.623 19.0125083,6.2475 C19.6050083,6.8705 20.5575083,6.9815 21.2690083,6.4985 L22.8365083,5.4345 C21.7555083,3.842 20.3475083,2.5645 18.7500083,1.644 C18.7500083,1.644 18.7500083,1.644 18.7500083,1.6435 L18.7495083,1.6435 C17.1540083,0.7205 15.3435083,0.1395 13.4235083,-5.32907052e-15 L13.2860083,1.8895 C13.2235083,2.7475 13.7955083,3.5165 14.6315083,3.7185 L14.6315083,3.7185 Z M3.85550834,15.0295 C3.61150834,14.203 3.48950834,13.352 3.49050834,12.5 C3.48950834,11.648 3.61150834,10.797 3.85550834,9.9705 C4.09900834,9.1455 3.71900834,8.266 2.94500834,7.891 L1.23950834,7.0655 C0.400508341,8.798 -0.00149165936,10.6565 4.15869879e-06,12.4995 L4.15869879e-06,12.5 L4.15869879e-06,12.5005 C-0.00149165936,14.3435 0.400508341,16.202 1.23950834,17.9345 L2.94500834,17.109 C3.71900834,16.734 4.09900834,15.854 3.85550834,15.0295 L3.85550834,15.0295 Z M64.0125083,18.7525 C63.4190083,19.377 62.7425083,19.9075 62.0045083,20.3335 C61.2670083,20.76 60.4690083,21.08 59.6315083,21.2815 C58.7955083,21.4835 58.2235083,22.2525 58.2860083,23.1105 L58.4235083,25 C60.3435083,24.8605 62.1540083,24.2795 63.7495083,23.3565 C63.7500083,23.3565 63.7500083,23.3565 63.7500083,23.356 L63.7500083,23.356 C65.3475083,22.4355 66.7555083,21.158 67.8365083,19.5655 L66.2690083,18.5015 C65.5575083,18.0185 64.6050083,18.129 64.0125083,18.7525 L64.0125083,18.7525 Z M56.5765083,-5.32907052e-15 C54.6560083,0.1395 52.8460083,0.7205 51.2500083,1.6435 L51.2500083,1.6435 C51.2500083,1.644 51.2500083,1.644 51.2495083,1.644 C49.6525083,2.5645 48.2440083,3.842 47.1630083,5.4345 L48.7310083,6.4985 C49.4425083,6.9815 50.3945083,6.8705 50.9870083,6.2475 C51.5810083,5.623 52.2570083,5.0925 52.9950083,4.6665 C53.7325083,4.24 54.5305083,3.92 55.3685083,3.7185 C56.2045083,3.5165 56.7760083,2.7475 56.7140083,1.8895 L56.5765083,-5.32907052e-15 Z M55.3685083,21.2815 C54.5305083,21.08 53.7325083,20.76 52.9950083,20.3335 C52.2570083,19.9075 51.5810083,19.377 50.9870083,18.7525 C50.3945083,18.129 49.4425083,18.0185 48.7310083,18.5015 L47.1630083,19.5655 C48.2440083,21.158 49.6525083,22.4355 51.2495083,23.356 L51.2500083,23.356 C51.2500083,23.3565 51.2500083,23.3565 51.2500083,23.3565 C52.8460083,24.2795 54.6560083,24.8605 56.5765083,25 L56.7140083,23.1105 C56.7760083,22.2525 56.2045083,21.4835 55.3685083,21.2815 L55.3685083,21.2815 Z M59.6315083,3.7185 C60.4690083,3.92 61.2670083,4.24 62.0045083,4.6665 C62.7425083,5.0925 63.4190083,5.623 64.0125083,6.2475 C64.6050083,6.8705 65.5575083,6.9815 66.2690083,6.4985 L67.8365083,5.4345 C66.7555083,3.842 65.3475083,2.5645 63.7500083,1.644 C63.7500083,1.644 63.7500083,1.644 63.7500083,1.6435 L63.7495083,1.6435 C62.1540083,0.7205 60.3435083,0.1395 58.4235083,-5.32907052e-15 L58.2860083,1.8895 C58.2235083,2.7475 58.7955083,3.5165 59.6315083,3.7185 L59.6315083,3.7185 Z M48.8555083,15.0295 C48.6115083,14.203 48.4895083,13.352 48.4905083,12.5 C48.4895083,11.648 48.6115083,10.797 48.8555083,9.9705 C49.0990083,9.1455 48.7185083,8.266 47.9450083,7.891 L46.2395083,7.0655 C45.4005083,8.798 44.9985083,10.6565 45.0000042,12.4995 L45.0000042,12.5 L45.0000042,12.5005 C44.9985083,14.3435 45.4005083,16.202 46.2395083,17.9345 L47.9450083,17.109 C48.7185083,16.734 49.0990083,15.854 48.8555083,15.0295 L48.8555083,15.0295 Z M70.0000125,12.5 L70.0000125,12.5005 C70.0015083,14.3435 69.5995083,16.202 68.7605083,17.9345 L67.0550083,17.109 C66.2810083,16.734 65.9005083,15.854 66.1445083,15.0295 C66.3885083,14.203 66.5100083,13.352 66.5095083,12.5 C66.5100083,11.648 66.3885083,10.797 66.1445083,9.9705 C65.9005083,9.1455 66.2810083,8.266 67.0550083,7.891 L68.7605083,7.0655 C69.5995083,8.798 70.0015083,10.6565 70.0000125,12.4995 L70.0000125,12.5 Z" id="Fill-1" fill="#19191A"></path>
    </g>
</svg>