<?xml version="1.0" encoding="UTF-8"?>
<svg width="140px" height="80px" viewBox="0 0 140 80" version="1.1" xmlns="http://www.w3.org/2000/svg" xmlns:xlink="http://www.w3.org/1999/xlink">
    <title>img/bi ver2 Flex</title>
    <g id="img/bi-ver2-Flex" stroke="none" stroke-width="1" fill="none" fill-rule="evenodd">
        <path d="M81.5001,13.50005 C81.5001,12.39555 80.6046,11.50005 79.5001,11.50005 L74.5001,11.50005 L74.5001,12.50005 C74.5001,13.60455 75.3956,14.50005 76.5001,14.50005 L81.5001,14.50005 L81.5001,13.50005 Z M137.1881,13.90605 L128.8416,13.90605 L128.8416,13.90605 C129.0191,11.53755 130.8541,9.61755 133.2516,9.61755 C135.8266,9.61755 137.1286,11.50605 137.1881,13.90605 L137.1881,13.90605 Z M133.2516,7.25005 C129.1371,7.25005 126.0001,10.54605 126.0001,15.28155 C126.0001,20.05005 129.1371,23.25005 133.3991,23.25005 C135.8856,23.25005 137.9281,22.25805 139.4376,20.14605 L138.8971,19.67705 C138.2091,19.07905 137.1711,19.03155 136.4801,19.62555 C135.6921,20.30255 134.6566,20.75405 133.3991,20.75405 C130.9426,20.75405 128.9301,18.73805 128.8416,16.14605 L139.9701,16.14605 L139.9701,16.14605 C140.0001,15.79405 140.0001,15.44205 140.0001,15.12205 C140.0001,10.28955 137.3951,7.25005 133.2516,7.25005 L133.2516,7.25005 Z M122.5441,10.34455 C121.8411,10.92355 120.8406,10.95555 120.0981,10.42805 C119.3961,9.92905 118.5001,9.61755 117.5151,9.61755 C116.1006,9.61755 114.6206,10.16155 114.6206,11.60205 C114.6206,12.88205 115.8046,13.36205 118.1726,13.87405 C121.1336,14.51405 123.4031,15.69805 123.4031,18.35405 C123.4031,21.93805 120.3441,23.25005 117.1861,23.25005 C114.8971,23.25005 112.5471,22.41305 111.0556,20.71055 C110.9701,20.61355 110.9856,20.46205 111.0851,20.37955 L111.6961,19.87355 C112.4231,19.27205 113.4541,19.27055 114.2191,19.82305 C115.0516,20.42455 116.1166,20.81805 117.2516,20.81805 C118.7976,20.81805 120.3441,20.27405 120.3441,18.61005 C120.3441,17.20155 118.9291,16.69005 116.2646,16.08205 C114.1926,15.60205 111.7256,14.73805 111.7256,11.89005 C111.7256,8.62605 114.6531,7.25005 117.6136,7.25005 C119.7361,7.25005 121.9801,8.05105 123.1426,9.56805 C123.2176,9.66555 123.1966,9.80755 123.1016,9.88555 L122.5441,10.34455 Z M105.7501,23.00005 L104.5001,23.00005 L104.5001,7.50005 L105.7501,7.50005 C106.7166,7.50005 107.5001,8.28355 107.5001,9.25005 L107.5001,21.25005 C107.5001,22.21655 106.7166,23.00005 105.7501,23.00005 L105.7501,23.00005 Z M105.4126,5.67105 C104.7071,5.47355 104.1586,4.86305 104.0326,4.14105 C103.8071,2.84755 104.7771,1.75005 105.9841,1.75005 C107.0721,1.75005 108.0001,2.60955 108.0001,3.76655 C108.0001,5.08405 106.7256,6.03755 105.4126,5.67105 L105.4126,5.67105 Z M91.7501,19.36305 L91.8451,19.36305 L98.1291,2.98955 C98.4151,2.24355 99.1431,1.75005 99.9566,1.75005 L102.0001,1.75005 L93.5721,22.29005 C93.3336,22.87005 92.7596,23.25005 92.1211,23.25005 L91.3186,23.25005 C90.6786,23.25005 90.1036,22.86805 89.8661,22.28655 L81.5001,1.75005 L83.6386,1.75005 C84.4521,1.75005 85.1801,2.24355 85.4666,2.98905 L91.7501,19.36305 Z M32.5976,6.22905 L32.5976,1.77105 C32.5976,0.79305 31.8051,5e-05 30.8271,5e-05 L29.0136,5e-05 L29.0136,8.00005 L30.8271,8.00005 C31.8051,8.00005 32.5976,7.20705 32.5976,6.22905 L32.5976,6.22905 Z M32.0296,17.35905 L30.2831,18.18455 C29.4241,16.45205 29.0121,14.59405 29.0135959,12.75055 L29.0135959,12.75005 L29.0135959,12.74955 C29.0135959,12.66655 29.0281,12.50005 29.0206,12.50005 L29.0135959,12.75005 L29.0135959,9.43455 L30.8056,9.43455 C31.7956,9.43455 32.5976,10.21855 32.5976,11.18455 L32.5881,12.50005 C32.5856,12.58355 32.5881,12.66655 32.5881,12.75005 C32.5876,13.60205 32.7121,14.45305 32.9621,15.27955 C33.2116,16.10405 32.8221,16.98405 32.0296,17.35905 L32.0296,17.35905 Z M39.6311,21.28155 C38.7731,21.08005 37.9566,20.76005 37.2011,20.33355 C36.4451,19.90755 35.7526,19.37705 35.1451,18.75255 C34.5381,18.12905 33.5631,18.01855 32.8341,18.50155 L31.2291,19.56555 C32.3361,21.15805 33.7781,22.43555 35.4136,23.35605 L35.4141,23.35605 C35.4141,23.35655 35.4141,23.35655 35.4146,23.35655 C37.0481,24.27955 38.9021,24.86055 40.8681,25.00005 L41.0091,23.11055 C41.0731,22.25255 40.4876,21.48355 39.6311,21.28155 L39.6311,21.28155 Z M19.0126,18.75255 C18.4191,19.37705 17.7426,19.90755 17.0046,20.33355 C16.2671,20.76005 15.4691,21.08005 14.6316,21.28155 C13.7956,21.48355 13.2236,22.25255 13.2861,23.11055 L13.4236,25.00005 C15.3436,24.86055 17.1541,24.27955 18.7496,23.35655 C18.7501,23.35655 18.7501,23.35655 18.7501,23.35605 L18.7501,23.35605 C20.3476,22.43555 21.7556,21.15805 22.8366,19.56555 L21.2691,18.50155 C20.5576,18.01855 19.6051,18.12905 19.0126,18.75255 L19.0126,18.75255 Z M11.5766,5e-05 C9.6566,0.13955 7.8461,0.72055 6.2501,1.64355 L6.2501,1.64355 C6.2501,1.64405 6.2501,1.64405 6.2496,1.64405 C4.6526,2.56455 3.2441,3.84205 2.1631,5.43455 L3.7311,6.49855 C4.4426,6.98155 5.3946,6.87055 5.9871,6.24755 C6.5811,5.62305 7.2571,5.09255 7.9951,4.66655 C8.7326,4.24005 9.5306,3.92005 10.3686,3.71855 C11.2046,3.51655 11.7761,2.74755 11.7141,1.88955 L11.5766,5e-05 Z M10.3686,21.28155 C9.5306,21.08005 8.7326,20.76005 7.9951,20.33355 C7.2571,19.90755 6.5811,19.37705 5.9871,18.75255 C5.3946,18.12905 4.4426,18.01855 3.7311,18.50155 L2.1631,19.56555 C3.2441,21.15805 4.6526,22.43555 6.2496,23.35605 L6.2501,23.35605 C6.2501,23.35655 6.2501,23.35655 6.2501,23.35655 C7.8461,24.27955 9.6566,24.86055 11.5766,25.00005 L11.7141,23.11055 C11.7761,22.25255 11.2046,21.48355 10.3686,21.28155 L10.3686,21.28155 Z M14.6316,3.71855 C15.4691,3.92005 16.2671,4.24005 17.0046,4.66655 C17.7426,5.09255 18.4191,5.62305 19.0126,6.24755 C19.6051,6.87055 20.5576,6.98155 21.2691,6.49855 L22.8366,5.43455 C21.7556,3.84205 20.3476,2.56455 18.7501,1.64405 C18.7501,1.64405 18.7501,1.64405 18.7501,1.64355 L18.7496,1.64355 C17.1541,0.72055 15.3436,0.13955 13.4236,5e-05 L13.2861,1.88955 C13.2236,2.74755 13.7956,3.51655 14.6316,3.71855 L14.6316,3.71855 Z M3.8556,15.02955 C3.6116,14.20305 3.4896,13.35205 3.4906,12.50005 C3.4896,11.64805 3.6116,10.79705 3.8556,9.97055 C4.0991,9.14555 3.7191,8.26605 2.9451,7.89105 L1.2396,7.06555 C0.4006,8.79805 -0.0014,10.65655 9.5818059e-05,12.49955 L9.5818059e-05,12.50005 L9.5818059e-05,12.50055 C-0.0014,14.34355 0.4006,16.20205 1.2396,17.93455 L2.9451,17.10905 C3.7191,16.73405 4.0991,15.85405 3.8556,15.02955 L3.8556,15.02955 Z M64.0126,18.75255 C63.4191,19.37705 62.7426,19.90755 62.0046,20.33355 C61.2671,20.76005 60.4691,21.08005 59.6316,21.28155 C58.7956,21.48355 58.2236,22.25255 58.2861,23.11055 L58.4236,25.00005 C60.3436,24.86055 62.1541,24.27955 63.7496,23.35655 C63.7501,23.35655 63.7501,23.35655 63.7501,23.35605 L63.7501,23.35605 C65.3476,22.43555 66.7556,21.15805 67.8366,19.56555 L66.2691,18.50155 C65.5576,18.01855 64.6051,18.12905 64.0126,18.75255 L64.0126,18.75255 Z M56.5766,5e-05 C54.6561,0.13955 52.8461,0.72055 51.2501,1.64355 L51.2501,1.64355 C51.2501,1.64405 51.2501,1.64405 51.2496,1.64405 C49.6526,2.56455 48.2441,3.84205 47.1631,5.43455 L48.7311,6.49855 C49.4426,6.98155 50.3946,6.87055 50.9871,6.24755 C51.5811,5.62305 52.2571,5.09255 52.9951,4.66655 C53.7326,4.24005 54.5306,3.92005 55.3686,3.71855 C56.2046,3.51655 56.7761,2.74755 56.7141,1.88955 L56.5766,5e-05 Z M55.3686,21.28155 C54.5306,21.08005 53.7326,20.76005 52.9951,20.33355 C52.2571,19.90755 51.5811,19.37705 50.9871,18.75255 C50.3946,18.12905 49.4426,18.01855 48.7311,18.50155 L47.1631,19.56555 C48.2441,21.15805 49.6526,22.43555 51.2496,23.35605 L51.2501,23.35605 C51.2501,23.35655 51.2501,23.35655 51.2501,23.35655 C52.8461,24.27955 54.6561,24.86055 56.5766,25.00005 L56.7141,23.11055 C56.7761,22.25255 56.2046,21.48355 55.3686,21.28155 L55.3686,21.28155 Z M59.6316,3.71855 C60.4691,3.92005 61.2671,4.24005 62.0046,4.66655 C62.7426,5.09255 63.4191,5.62305 64.0126,6.24755 C64.6051,6.87055 65.5576,6.98155 66.2691,6.49855 L67.8366,5.43455 C66.7556,3.84205 65.3476,2.56455 63.7501,1.64405 C63.7501,1.64405 63.7501,1.64405 63.7501,1.64355 L63.7496,1.64355 C62.1541,0.72055 60.3436,0.13955 58.4236,5e-05 L58.2861,1.88955 C58.2236,2.74755 58.7956,3.51655 59.6316,3.71855 L59.6316,3.71855 Z M48.8556,15.02955 C48.6116,14.20305 48.4896,13.35205 48.4906,12.50005 C48.4896,11.64805 48.6116,10.79705 48.8556,9.97055 C49.0991,9.14555 48.7186,8.26605 47.9451,7.89105 L46.2396,7.06555 C45.4006,8.79805 44.9986,10.65655 45.0000958,12.49955 L45.0000958,12.50005 L45.0000958,12.50055 C44.9986,14.34355 45.4006,16.20205 46.2396,17.93455 L47.9451,17.10905 C48.7186,16.73405 49.0991,15.85405 48.8556,15.02955 L48.8556,15.02955 Z M70.0001042,12.50005 L70.0001042,12.50055 C70.0016,14.34355 69.5996,16.20205 68.7606,17.93455 L67.0551,17.10905 C66.2811,16.73405 65.9006,15.85405 66.1446,15.02955 C66.3886,14.20305 66.5101,13.35205 66.5096,12.50005 C66.5101,11.64805 66.3886,10.79705 66.1446,9.97055 C65.9006,9.14555 66.2811,8.26605 67.0551,7.89105 L68.7606,7.06555 C69.5996,8.79805 70.0016,10.65655 70.0001042,12.49955 L70.0001042,12.50005 Z" id="Fill-1" fill="#FFFFFF"></path>
        <path d="M34.7571317,80 L34.7571317,77.502008 L34.7812954,77.502008 C35.0632062,77.9277108 35.5867547,78.1767068 36.1264124,78.1767068 C37.3023828,78.1767068 38.0514599,77.2771084 38.0514599,76.1606426 C38.0514599,75.0361446 37.278219,74.1606426 36.1425215,74.1606426 C35.5142633,74.1606426 35.0148786,74.4578313 34.7651863,74.8594378 L34.7410225,74.8594378 L34.7410225,74.2650602 L34,74.2650602 L34,80 L34.7571317,80 Z M35.9975389,77.5421687 C35.224298,77.5421687 34.7088041,76.8995984 34.7088041,76.1686747 C34.7088041,75.437751 35.224298,74.7871486 35.9975389,74.7871486 C36.8271619,74.7871486 37.2701644,75.4457831 37.2701644,76.1606426 C37.2701644,76.875502 36.8271619,77.5421687 35.9975389,77.5421687 Z M40.9108401,78.1767068 C42.078756,78.1767068 42.9728158,77.3333333 42.9728158,76.1606426 C42.9728158,74.9879518 42.078756,74.1606426 40.9108401,74.1606426 C39.7429243,74.1606426 38.8569191,74.9879518 38.8569191,76.1606426 C38.8569191,77.3333333 39.7429243,78.1767068 40.9108401,78.1767068 Z M40.9108401,77.5421687 C40.0973263,77.5421687 39.6382146,76.8835341 39.6382146,76.1606426 C39.6382146,75.437751 40.0973263,74.7871486 40.9108401,74.7871486 C41.7324085,74.7871486 42.1834657,75.437751 42.1834657,76.1606426 C42.1834657,76.8835341 41.7324085,77.5421687 40.9108401,77.5421687 Z M45.5422307,78.0722892 L46.4765634,75.2128514 L46.4926726,75.2128514 L47.4350599,78.0722892 L48.2244099,78.0722892 L49.4889809,74.2650602 L48.6915762,74.2650602 L47.8297349,77.1726908 L47.8136257,77.1726908 L46.8873476,74.2650602 L46.0899429,74.2650602 L45.179774,77.1726908 L45.1636648,77.1726908 L44.3018235,74.2650602 L43.4802551,74.2650602 L44.7528806,78.0722892 L45.5422307,78.0722892 Z M52.0100682,78.1767068 C52.686654,78.1767068 53.2424209,77.9277108 53.6532051,77.3975904 L53.121602,76.9718876 C52.904128,77.2931727 52.5255621,77.5502008 52.0100682,77.5502008 C51.3415371,77.5502008 50.7938248,77.0441767 50.769661,76.3935743 L53.7981877,76.3935743 C53.8062423,76.3052209 53.8062423,76.2168675 53.8062423,76.1365462 C53.8062423,74.9236948 53.0974382,74.1606426 51.9697953,74.1606426 C50.850207,74.1606426 49.9964202,74.9879518 49.9964202,76.1767068 C49.9964202,77.373494 50.850207,78.1767068 52.0100682,78.1767068 Z M53.041056,75.8313253 L50.769661,75.8313253 C50.8179886,75.2369478 51.3173733,74.7550201 51.9697953,74.7550201 C52.6705448,74.7550201 53.0249469,75.2289157 53.041056,75.8313253 Z M55.6185256,78.0722892 L55.6185256,76.0722892 C55.6185256,75.437751 55.964873,74.8514056 56.6897863,74.8514056 C56.8106052,74.8514056 56.9394787,74.8674699 57.0361338,74.8915663 L57.0683522,74.1927711 C56.9797517,74.1686747 56.875042,74.1606426 56.7703323,74.1606426 C56.2548383,74.1606426 55.8118358,74.4658635 55.6024164,74.9076305 L55.5782526,74.9076305 C55.5782526,74.746988 55.5621434,74.4578313 55.5460342,74.2650602 L54.8291755,74.2650602 C54.8533393,74.5140562 54.8613939,74.8835341 54.8613939,75.0843373 L54.8613939,78.0722892 L55.6185256,78.0722892 Z M59.3961293,78.1767068 C60.0727151,78.1767068 60.6284819,77.9277108 61.0392661,77.3975904 L60.507663,76.9718876 C60.2901891,77.2931727 59.9116232,77.5502008 59.3961293,77.5502008 C58.7275982,77.5502008 58.1798859,77.0441767 58.1557221,76.3935743 L61.1842488,76.3935743 C61.1923034,76.3052209 61.1923034,76.2168675 61.1923034,76.1365462 C61.1923034,74.9236948 60.4834993,74.1606426 59.3558564,74.1606426 C58.236268,74.1606426 57.3824813,74.9879518 57.3824813,76.1767068 C57.3824813,77.373494 58.236268,78.1767068 59.3961293,78.1767068 Z M60.4271171,75.8313253 L58.1557221,75.8313253 C58.2040497,75.2369478 58.7034344,74.7550201 59.3558564,74.7550201 C60.0566059,74.7550201 60.4110079,75.2289157 60.4271171,75.8313253 Z M63.9147556,78.1767068 C64.4544132,78.1767068 65.0021255,77.9277108 65.2920908,77.4698795 L65.3082,77.4698795 L65.3082,78.0722892 L66.0411679,78.0722892 L66.0411679,72 L65.2840362,72 L65.2840362,74.8353414 L65.2679271,74.8353414 C65.0021255,74.4658635 64.5269046,74.1606426 63.906701,74.1606426 C62.7629489,74.1606426 61.989708,75.0361446 61.989708,76.1606426 C61.989708,77.2771084 62.7387851,78.1767068 63.9147556,78.1767068 Z M64.043629,77.5421687 C63.214006,77.5421687 62.7790581,76.875502 62.7790581,76.1606426 C62.7790581,75.4457831 63.214006,74.7871486 64.043629,74.7871486 C64.8168699,74.7871486 65.3323638,75.437751 65.3323638,76.1686747 C65.3323638,76.8995984 64.8168699,77.5421687 64.043629,77.5421687 Z M71.5182906,78.1767068 C72.6942611,78.1767068 73.4433382,77.2771084 73.4433382,76.1606426 C73.4433382,75.0361446 72.6700973,74.1606426 71.5343998,74.1606426 C70.9061416,74.1606426 70.4309207,74.4658635 70.1731737,74.8353414 L70.14901,74.8353414 L70.14901,72 L69.3918783,72 L69.3918783,78.0722892 L70.1248462,78.0722892 L70.1248462,77.4698795 L70.1409554,77.4698795 C70.4389753,77.9277108 70.978633,78.1767068 71.5182906,78.1767068 Z M71.3894172,77.5421687 C70.6161763,77.5421687 70.1006824,76.8995984 70.1006824,76.1686747 C70.1006824,75.437751 70.6161763,74.7871486 71.3894172,74.7871486 C72.2190402,74.7871486 72.6620427,75.4457831 72.6620427,76.1606426 C72.6620427,76.875502 72.2190402,77.5421687 71.3894172,77.5421687 Z M74.651527,80 C75.4006041,80 75.7227878,79.6064257 75.9724801,78.9718876 L77.8250364,74.2650602 L77.0195771,74.2650602 L75.9644256,77.253012 L75.9483164,77.253012 L74.7642913,74.2650602 L73.9185591,74.2650602 L75.5536413,78.0722892 L75.3120036,78.7068273 C75.1509117,79.1164659 74.9978745,79.3413655 74.6031995,79.3413655 C74.4823806,79.3413655 74.3454525,79.3172691 74.2246336,79.2771084 L74.1521423,79.9437751 C74.3212887,79.9839357 74.4904352,80 74.651527,80 Z M83.3665958,78.2168675 C84.2042734,78.2168675 84.9130775,78.0401606 85.5091174,77.7188755 L85.5091174,74.9638554 L83.4551963,74.9638554 L83.4551963,75.6385542 L84.7197673,75.6385542 L84.7197673,77.2208835 C84.389529,77.3975904 83.9223627,77.502008 83.3907596,77.502008 C82.0295335,77.502008 81.1918559,76.4899598 81.1918559,75.2208835 C81.1918559,73.9759036 82.0295335,72.939759 83.3665958,72.939759 C84.0190178,72.939759 84.5747847,73.188755 84.9130775,73.5582329 L85.4688444,72.9799197 C85.001678,72.5301205 84.2606556,72.2409639 83.3585412,72.2409639 C81.6268039,72.2409639 80.32196,73.4457831 80.32196,75.2208835 C80.32196,76.9718876 81.5865309,78.2168675 83.3665958,78.2168675 Z M88.6423537,78.1767068 C89.8102696,78.1767068 90.7043293,77.3333333 90.7043293,76.1606426 C90.7043293,74.9879518 89.8102696,74.1606426 88.6423537,74.1606426 C87.4744379,74.1606426 86.5884327,74.9879518 86.5884327,76.1606426 C86.5884327,77.3333333 87.4744379,78.1767068 88.6423537,78.1767068 Z M88.6423537,77.5421687 C87.8288399,77.5421687 87.3697282,76.8835341 87.3697282,76.1606426 C87.3697282,75.437751 87.8288399,74.7871486 88.6423537,74.7871486 C89.4639221,74.7871486 89.9149793,75.437751 89.9149793,76.1606426 C89.9149793,76.8835341 89.4639221,77.5421687 88.6423537,77.5421687 Z M94.0469851,78.0722892 L96.2861618,72.3855422 L95.4243204,72.3855422 L93.7086922,77.0441767 L93.6845285,77.0441767 L91.9689003,72.3855422 L91.0828952,72.3855422 L93.3059626,78.0722892 L94.0469851,78.0722892 Z M97.1641123,73.373494 C97.4379685,73.373494 97.6715516,73.1646586 97.6715516,72.8915663 C97.6715516,72.6104418 97.4379685,72.4016064 97.1641123,72.4016064 C96.8902562,72.4016064 96.6647276,72.6184739 96.6647276,72.8915663 C96.6647276,73.1566265 96.8902562,73.373494 97.1641123,73.373494 Z M97.5426782,78.0722892 L97.5426782,74.2650602 L96.7855465,74.2650602 L96.7855465,78.0722892 L97.5426782,78.0722892 Z M99.9590558,78.1767068 C100.732297,78.1767068 101.481374,77.8473896 101.481374,76.9477912 C101.481374,76.2811245 100.925607,75.9839357 100.200694,75.8232932 C99.6207629,75.6947791 99.3307976,75.5742972 99.3307976,75.253012 C99.3307976,74.8915663 99.6932543,74.7550201 100.039602,74.7550201 C100.426222,74.7550201 100.75646,74.9558233 100.925607,75.2289157 L101.449155,74.7871486 C101.175299,74.37751 100.603423,74.1606426 100.063766,74.1606426 C99.3388522,74.1606426 98.6219935,74.5060241 98.6219935,75.3253012 C98.6219935,76.0401606 99.2260879,76.2570281 99.7335272,76.37751 C100.385949,76.5301205 100.732297,76.6586345 100.732297,77.0120482 C100.732297,77.4297189 100.353731,77.5662651 99.975165,77.5662651 C99.5482716,77.5662651 99.1616512,77.3333333 98.9602864,77.0361446 L98.4206287,77.4939759 C98.7830854,77.9518072 99.3791252,78.1767068 99.9590558,78.1767068 Z M104.203826,78.1767068 C104.880412,78.1767068 105.436179,77.9277108 105.846963,77.3975904 L105.31536,76.9718876 C105.097886,77.2931727 104.71932,77.5502008 104.203826,77.5502008 C103.535295,77.5502008 102.987583,77.0441767 102.963419,76.3935743 L105.991945,76.3935743 C106,76.3052209 106,76.2168675 106,76.1365462 C106,74.9236948 105.291196,74.1606426 104.163553,74.1606426 C103.043965,74.1606426 102.190178,74.9879518 102.190178,76.1767068 C102.190178,77.373494 103.043965,78.1767068 104.203826,78.1767068 Z M105.234814,75.8313253 L102.963419,75.8313253 C103.011746,75.2369478 103.511131,74.7550201 104.163553,74.7550201 C104.864302,74.7550201 105.218705,75.2289157 105.234814,75.8313253 Z" id="poweredbyGoVise" fill="#FFFFFF" fill-rule="nonzero"></path>
        <path d="M11.6197686,44.8209719 L11.6197686,35.7672634 L10,35.7672634 L10,44.8209719 L11.6197686,44.8209719 Z M14.8764462,44.8209719 L14.8764462,41.4450128 C14.8764462,40.6265985 15.3392373,39.7826087 16.3162405,39.7826087 C17.3060991,39.7826087 17.4732181,40.6905371 17.4732181,41.4194373 L17.4732181,44.8209719 L19.0158549,44.8209719 L19.0158549,40.9846547 C19.0158549,39.7314578 18.3473789,38.5038363 16.7404656,38.5038363 C15.8277389,38.5038363 15.0949864,39.0537084 14.825025,39.6675192 L14.7993144,39.6675192 L14.7993144,38.6828645 L13.3338095,38.6828645 L13.3338095,44.8209719 L14.8764462,44.8209719 Z M22.3882303,44.8209719 L22.3882303,39.9104859 L23.8151693,39.9104859 L23.8151693,38.6828645 L22.3882303,38.6828645 L22.3882303,37.685422 C22.3882303,37.0716113 22.5424939,36.3043478 23.4295101,36.3043478 C23.6480503,36.3043478 23.8537352,36.342711 24.0208542,36.3938619 L24.1236966,35.0895141 C23.8923011,35.0255754 23.6737609,35 23.3395229,35 C21.4240823,35 20.8455935,36.3043478 20.8455935,37.7749361 L20.8455935,38.6828645 L19.6757606,38.6828645 L19.6757606,39.9104859 L20.8455935,39.9104859 L20.8455935,44.8209719 L22.3882303,44.8209719 Z M27.5474932,45 C29.4115126,45 30.9027282,43.657289 30.9027282,41.7263427 C30.9027282,39.7953964 29.4115126,38.5038363 27.5474932,38.5038363 C25.6834738,38.5038363 24.1922582,39.7953964 24.1922582,41.7263427 C24.1922582,43.657289 25.6834738,45 27.5474932,45 Z M27.5474932,43.7212276 C26.3262391,43.7212276 25.7606056,42.685422 25.7606056,41.7263427 C25.7606056,40.7672634 26.3262391,39.7570332 27.5474932,39.7570332 C28.7687473,39.7570332 29.3343808,40.7672634 29.3343808,41.7263427 C29.3343808,42.685422 28.7687473,43.7212276 27.5474932,43.7212276 Z M33.7223254,44.8209719 L33.7223254,41.5345269 C33.7223254,41.0869565 33.9922868,39.8849105 35.3806599,39.8849105 C35.5220683,39.8849105 35.6506213,39.8976982 35.8563062,39.9488491 L35.8563062,38.5421995 C35.7534638,38.516624 35.5992001,38.5038363 35.4835024,38.5038363 C34.6736181,38.5038363 34.0179974,39.0025575 33.6837595,39.7058824 L33.6580489,39.7058824 L33.6580489,38.6828645 L32.1796886,38.6828645 L32.1796886,44.8209719 L33.7223254,44.8209719 Z M41.341237,44.8209719 L41.341237,41.0741688 L42.5882017,41.0741688 C44.5164976,41.0741688 46.1234109,40.3836317 46.1234109,38.3887468 C46.1234109,36.4961637 44.7736038,35.7672634 42.6910441,35.7672634 L39.7214684,35.7672634 L39.7214684,44.8209719 L41.341237,44.8209719 Z M42.4725039,39.7186701 L41.341237,39.7186701 L41.341237,37.1227621 L42.5239252,37.1227621 C43.5266391,37.1227621 44.490787,37.314578 44.490787,38.3887468 C44.490787,39.4629156 43.5266391,39.7186701 42.4725039,39.7186701 Z M52.838166,44.8209719 L52.838166,43.3887468 L48.9687188,43.3887468 L48.9687188,35.7672634 L47.3489501,35.7672634 L47.3489501,44.8209719 L52.838166,44.8209719 Z M55.2463934,44.8209719 L55.2463934,37.544757 L55.272104,37.544757 L57.9974289,44.8209719 L59.1286959,44.8209719 L61.8925868,37.544757 L61.9182974,37.544757 L61.9182974,44.8209719 L63.5252107,44.8209719 L63.5252107,35.7672634 L60.97986,35.7672634 L58.6401943,42.1994885 L58.6016283,42.1994885 L56.236252,35.7672634 L53.7037566,35.7672634 L53.7037566,44.8209719 L55.2463934,44.8209719 Z M70.0257106,44.8209719 L70.0257106,39.9104859 L71.4526496,39.9104859 L71.4526496,38.6828645 L70.0257106,38.6828645 L70.0257106,37.685422 C70.0257106,37.0716113 70.1799743,36.3043478 71.0669904,36.3043478 C71.2855306,36.3043478 71.4912155,36.342711 71.6583345,36.3938619 L71.761177,35.0895141 C71.5297815,35.0255754 71.3112413,35 70.9770033,35 C69.0615626,35 68.4830738,36.3043478 68.4830738,37.7749361 L68.4830738,38.6828645 L67.313241,38.6828645 L67.313241,39.9104859 L68.4830738,39.9104859 L68.4830738,44.8209719 L70.0257106,44.8209719 Z M75.1849736,45 C77.048993,45 78.5402085,43.657289 78.5402085,41.7263427 C78.5402085,39.7953964 77.048993,38.5038363 75.1849736,38.5038363 C73.3209541,38.5038363 71.8297386,39.7953964 71.8297386,41.7263427 C71.8297386,43.657289 73.3209541,45 75.1849736,45 Z M75.1849736,43.7212276 C73.9637195,43.7212276 73.398086,42.685422 73.398086,41.7263427 C73.398086,40.7672634 73.9637195,39.7570332 75.1849736,39.7570332 C76.4062277,39.7570332 76.9718612,40.7672634 76.9718612,41.7263427 C76.9718612,42.685422 76.4062277,43.7212276 75.1849736,43.7212276 Z M81.3598057,44.8209719 L81.3598057,41.5345269 C81.3598057,41.0869565 81.6297672,39.8849105 83.0181403,39.8849105 C83.1595486,39.8849105 83.2881017,39.8976982 83.4937866,39.9488491 L83.4937866,38.5421995 C83.3909442,38.516624 83.2366805,38.5038363 83.1209827,38.5038363 C82.3110984,38.5038363 81.6554778,39.0025575 81.3212398,39.7058824 L81.2955292,39.7058824 L81.2955292,38.6828645 L79.817169,38.6828645 L79.817169,44.8209719 L81.3598057,44.8209719 Z M88.9787173,44.8209719 L88.9787173,41.0102302 L92.9895729,41.0102302 L92.9895729,39.6547315 L88.9787173,39.6547315 L88.9787173,37.173913 L93.2338237,37.173913 L93.2338237,35.7672634 L87.3589487,35.7672634 L87.3589487,44.8209719 L88.9787173,44.8209719 Z M95.6934724,44.9744246 C96.5676332,44.9744246 97.3003857,44.5780051 97.608913,44.0409207 L97.6474789,44.0409207 L97.6474789,44.8209719 L99.0872732,44.8209719 L99.0872732,41.0869565 C99.0872732,39.859335 98.5473504,38.5038363 96.3362377,38.5038363 C95.3978003,38.5038363 94.420797,38.8363171 93.7266105,39.4757033 L94.5236395,40.4092072 C94.922154,40.0127877 95.552064,39.7058824 96.2076846,39.7058824 C96.979003,39.7058824 97.6217683,40.0767263 97.6217683,40.831202 L97.6217683,40.9846547 C95.6934724,40.9846547 93.3795172,41.2404092 93.3795172,43.0690537 C93.3795172,44.5012788 94.7036138,44.9744246 95.6934724,44.9744246 Z M96.0019997,43.8107417 C95.4749322,43.8107417 94.922154,43.6317136 94.922154,43.0434783 C94.922154,42.1355499 96.2976718,42.0204604 97.274675,42.0204604 L97.6217683,42.0204604 L97.6217683,42.2378517 C97.6217683,43.2097187 97.0561348,43.8107417 96.0019997,43.8107417 Z M102.472504,45 C103.822311,45 105.043565,44.4501279 105.043565,42.9539642 C105.043565,41.7519182 103.963719,41.342711 103.050993,41.1253197 C102.189687,40.9207161 101.714041,40.7928389 101.714041,40.3196931 C101.714041,39.8337596 102.215398,39.6547315 102.703899,39.6547315 C103.269533,39.6547315 103.783745,39.9616368 104.053707,40.3196931 L105.056421,39.4373402 C104.555064,38.8107417 103.629482,38.5038363 102.742465,38.5038363 C101.521211,38.5038363 100.287102,39.0920716 100.287102,40.4603581 C100.287102,41.6112532 101.199829,41.9820972 102.112555,42.1994885 C103.050993,42.4168798 103.526639,42.5703325 103.526639,43.0818414 C103.526639,43.6317136 102.986716,43.8107417 102.53678,43.8107417 C101.868305,43.8107417 101.289816,43.4782609 100.955578,43.0434783 L99.9400086,43.9897698 C100.531353,44.6419437 101.521211,45 102.472504,45 Z M107.734609,44.8209719 L107.734609,41.4705882 C107.734609,40.6521739 108.210256,39.8209719 109.187259,39.8209719 C110.177118,39.8209719 110.331381,40.7161125 110.331381,41.4450128 L110.331381,44.8209719 L111.874018,44.8209719 L111.874018,40.9846547 C111.874018,39.7314578 111.205542,38.5038363 109.598629,38.5038363 C108.685902,38.5038363 108.004571,39.028133 107.76032,39.5396419 L107.734609,39.5396419 L107.734609,35.1534527 L106.191973,35.1534527 L106.191973,44.8209719 L107.734609,44.8209719 Z M114.243679,37.5191816 C114.809313,37.5191816 115.246393,37.1227621 115.246393,36.5984655 C115.246393,36.0741688 114.809313,35.6777494 114.243679,35.6777494 C113.678046,35.6777494 113.266676,36.112532 113.266676,36.5984655 C113.266676,37.084399 113.678046,37.5191816 114.243679,37.5191816 Z M115.027853,44.8209719 L115.027853,38.6828645 L113.485216,38.6828645 L113.485216,44.8209719 L115.027853,44.8209719 Z M119.685759,45 C121.549779,45 123.040994,43.657289 123.040994,41.7263427 C123.040994,39.7953964 121.549779,38.5038363 119.685759,38.5038363 C117.82174,38.5038363 116.330524,39.7953964 116.330524,41.7263427 C116.330524,43.657289 117.82174,45 119.685759,45 Z M119.685759,43.7212276 C118.464505,43.7212276 117.898872,42.685422 117.898872,41.7263427 C117.898872,40.7672634 118.464505,39.7570332 119.685759,39.7570332 C120.907013,39.7570332 121.472647,40.7672634 121.472647,41.7263427 C121.472647,42.685422 120.907013,43.7212276 119.685759,43.7212276 Z M125.860591,44.8209719 L125.860591,41.4450128 C125.860591,40.6265985 126.323382,39.7826087 127.300386,39.7826087 C128.290244,39.7826087 128.457363,40.6905371 128.457363,41.4194373 L128.457363,44.8209719 L130,44.8209719 L130,40.9846547 C130,39.7314578 129.331524,38.5038363 127.724611,38.5038363 C126.811884,38.5038363 126.079132,39.0537084 125.80917,39.6675192 L125.78346,39.6675192 L125.78346,38.6828645 L124.317955,38.6828645 L124.317955,44.8209719 L125.860591,44.8209719 Z" id="InforPLMforFashion" fill="#FFFFFF" fill-rule="nonzero"></path>
    </g>
</svg>