<svg xmlns="http://www.w3.org/2000/svg" xmlns:xlink="http://www.w3.org/1999/xlink" version="1.1" viewBox="0 0 172 172"><g fill="none" fill-rule="nonzero" stroke="none" stroke-width="1" stroke-linecap="butt" stroke-linejoin="miter" stroke-miterlimit="10" stroke-dasharray="" stroke-dashoffset="0" font-family="none" font-weight="none" font-size="none" text-anchor="none" style="mix-blend-mode: normal"><path d="M0,172v-172h172v172z" fill="none"/><g><path d="M143.33333,35.83333h-121.83333c0,0.07525 0,86.00717 0,100.33333c0,14.33333 14.33333,14.33333 14.33333,14.33333h107.5l7.16667,-7.16667l-7.16667,-7.16667l7.16667,-7.14875l-7.16667,-7.18458l7.16667,-7.18458l-7.16667,-7.14875l7.16667,-7.16308l-7.16667,-7.17025l7.16667,-7.15592l-7.16667,-7.17742l7.16667,-7.15592l-7.16667,-7.17742l7.16667,-7.16308l-7.16667,-7.17025l7.16667,-7.16308z" fill="#4696FF"/><path d="M100.33333,35.83333c0,13.06842 0,77.24592 0,93.16667h-68.08333c-5.93758,0 -10.75,4.81242 -10.75,10.75c0,5.93758 4.81242,10.75 10.75,10.75h10.75h46.58333c10.75,0 17.91667,-7.16667 17.91667,-17.91667c0,-9.89 0,-83.82492 0,-96.75z" fill="#000000"/><path d="M87.79167,21.5h-53.75c-6.92658,0 -12.54167,5.6115 -12.54167,12.54167c0,6.93017 0,105.70833 0,105.70833c0,-5.93758 4.81242,-10.75 10.75,-10.75h57.29033c1.6555,0.043 3.62633,0.69517 3.62633,3.58333c0,2.88817 -1.97083,3.54033 -3.58333,3.58333h-57.33333c-1.978,0 -3.58333,1.60175 -3.58333,3.58333c0,1.98158 1.60533,3.58333 3.58333,3.58333h57.33333c4.3215,0 10.75,-2.86308 10.75,-10.75c0,0 0,-86.05733 0,-96.75c0,-0.79908 0,-1.4405 0,-1.79167c0,-6.93017 -5.6115,-12.54167 -12.54167,-12.54167z" fill="#46c8ff"/></g></g></svg>