<?xml version="1.0" encoding="UTF-8"?>
<svg width="21px" height="22px" viewBox="0 0 21 22" version="1.1" xmlns="http://www.w3.org/2000/svg" xmlns:xlink="http://www.w3.org/1999/xlink">
    <title>ui/exit</title>
    <defs>
        <radialGradient cx="50%" cy="50%" fx="50%" fy="50%" r="50%" id="radialGradient-1">
            <stop stop-color="#000000" offset="0%"></stop>
            <stop stop-color="#000000" stop-opacity="0.3" offset="80%"></stop>
            <stop stop-color="#000000" stop-opacity="0" offset="100%"></stop>
        </radialGradient>
    </defs>
    <g id="ui/exit" stroke="none" stroke-width="1" fill="none" fill-rule="evenodd">
        <g id="pop_btn_img_login_open_none"></g>
        <rect id="Rectangle-path" x="0" y="0" width="21" height="22"></rect>
        <circle id="Oval" fill="url(#radialGradient-1)" fill-rule="nonzero" cx="10.5" cy="11.5" r="10.5"></circle>
        <circle id="Oval" fill="#323234" fill-rule="nonzero" cx="10.5" cy="9.5" r="9.5"></circle>
        <path d="M11.4,1 C11.1,1 10.8,1 10.5,1 C10.2,1 9.9,1 9.6,1 C5.4,1.5 2,5.1 2,9.5 C2,9.7 2,9.8 2,10 C2.3,5.5 6,2 10.5,2 C15,2 18.7,5.5 19,10 C19,9.8 19,9.7 19,9.5 C19,5.1 15.6,1.5 11.4,1 Z" id="Shape" fill="#FFFFFF" fill-rule="nonzero" opacity="0.05"></path>
        <path d="M10.5,1 C15.2,1 19,4.8 19,9.5 C19,14.2 15.2,18 10.5,18 C5.8,18 2,14.2 2,9.5 C2,4.8 5.8,1 10.5,1 L10.5,1 Z M10.5,0 C5.3,0 1,4.3 1,9.5 C1,14.7 5.3,19 10.5,19 C15.7,19 20,14.7 20,9.5 C20,4.3 15.7,0 10.5,0 L10.5,0 Z" id="Shape" fill="#000000" fill-rule="nonzero" opacity="0.3"></path>
        <path d="M7.95238095,5.29347826 L7.28571429,5.97826087 C6.9047619,6.36956522 6.9047619,6.95652174 7.28571429,7.34782609 L9.38095238,9.5 L7.28571429,11.6521739 C6.9047619,12.0434783 6.9047619,12.6304348 7.28571429,13.0217391 L7.95238095,13.7065217 C8.33333333,14.0978261 8.9047619,14.0978261 9.28571429,13.7065217 L12.7142857,10.1847826 C12.9047619,9.98913043 13,9.79347826 13,9.5 C13,9.20652174 12.9047619,9.01086957 12.7142857,8.81521739 L9.28571429,5.29347826 C8.9047619,4.90217391 8.33333333,4.90217391 7.95238095,5.29347826 Z" id="Shape" fill="#222224" fill-rule="nonzero"></path>
        <path d="M8.95238095,5.29347826 L8.28571429,5.97826087 C7.9047619,6.36956522 7.9047619,6.95652174 8.28571429,7.34782609 L10.3809524,9.5 L8.28571429,11.6521739 C7.9047619,12.0434783 7.9047619,12.6304348 8.28571429,13.0217391 L8.95238095,13.7065217 C9.33333333,14.0978261 9.9047619,14.0978261 10.2857143,13.7065217 L13.7142857,10.1847826 C13.9047619,9.98913043 14,9.79347826 14,9.5 C14,9.20652174 13.9047619,9.01086957 13.7142857,8.81521739 L10.2857143,5.29347826 C9.9047619,4.90217391 9.33333333,4.90217391 8.95238095,5.29347826 Z" id="Shape" fill="#969696" fill-rule="nonzero"></path>
    </g>
</svg>