<?xml version="1.0" encoding="utf-8"?>
<!-- Generator: Adobe Illustrator 20.1.0, SVG Export Plug-In . SVG Version: 6.00 Build 0)  -->
<svg version="1.1" id="Search" xmlns="http://www.w3.org/2000/svg" xmlns:xlink="http://www.w3.org/1999/xlink" x="0px" y="0px"
	 viewBox="0 0 9 9" style="enable-background:new 0 0 9 9;" xml:space="preserve">
<style type="text/css">
	.st0{fill:#373739;}
	.st1{opacity:5.000000e-02;fill:#FFFFFF;}
	.st2{fill:#1E1E20;}
</style>
<path class="st0" d="M7,9H2C0.9,9,0,8.1,0,7V2c0-1.1,0.9-2,2-2h5c1.1,0,2,0.9,2,2v5C9,8.1,8.1,9,7,9z"/>
<path class="st1" d="M2,9V2h7c0-0.4-0.1-0.7-0.3-1H2C1.4,1,1,1.4,1,2v6.7C1.3,8.9,1.6,9,2,9z"/>
<g>
	<path class="st2" d="M7,1c0.6,0,1,0.4,1,1v5c0,0.6-0.4,1-1,1H2C1.4,8,1,7.6,1,7V2c0-0.6,0.4-1,1-1H7 M7,0H2C0.9,0,0,0.9,0,2v5
		c0,1.1,0.9,2,2,2h5c1.1,0,2-0.9,2-2V2C9,0.9,8.1,0,7,0L7,0z"/>
</g>
</svg>
