<?xml version="1.0" encoding="utf-8"?>
<!-- Generator: Adobe Illustrator 20.1.0, SVG Export Plug-In . SVG Version: 6.00 Build 0)  -->
<svg version="1.1" id="레이어_1" xmlns="http://www.w3.org/2000/svg" xmlns:xlink="http://www.w3.org/1999/xlink" x="0px"
	 y="0px" viewBox="0 0 14 14" style="enable-background:new 0 0 14 14;" xml:space="preserve">
<style type="text/css">
	.st0{fill:none;}
	.st1{fill:#373739;}
	.st2{opacity:5.000000e-02;fill:#FFFFFF;}
	.st3{fill:#1E1E1E;}
</style>
<rect class="st0" width="14" height="14"/>
<g>
	<path class="st1" d="M10,14H4c-2.2,0-4-1.8-4-4V4c0-2.2,1.8-4,4-4h6c2.2,0,4,1.8,4,4v6C14,12.2,12.2,14,10,14z"/>
</g>
<path class="st2" d="M4,1C2.4,1,1,2.4,1,4v8c0,0.3,0,0.5,0.1,0.7c0.6,0.7,1.5,1.1,2.5,1.2C2.7,13.8,2,13,2,12V4c0-1.1,0.9-2,2-2h8
	c1,0,1.8,0.7,2,1.6c-0.1-1-0.5-1.9-1.2-2.5C12.5,1,12.3,1,12,1H4z"/>
<g>
	<path class="st3" d="M10,1c1.7,0,3,1.3,3,3v6c0,1.7-1.3,3-3,3H4c-1.7,0-3-1.3-3-3V4c0-1.7,1.3-3,3-3H10 M10,0H4C1.8,0,0,1.8,0,4v6
		c0,2.2,1.8,4,4,4h6c2.2,0,4-1.8,4-4V4C14,1.8,12.2,0,10,0L10,0z"/>
</g>
</svg>
